SplineFontDB: 3.2
FontName: ZainRo-Italic
FullName: ZainRo Italic
FamilyName: ZainRo
Weight: Book
Copyright: Copyright 2024 The Zain Project Authors (https://github.com/googlefonts/zain) and 2025 Lazar (https://bylazar.com)
Version: 1.51; ttfautohint (v1.8.4)
ItalicAngle: -10
UnderlinePosition: -100
UnderlineWidth: 50
Ascent: 800
Descent: 200
InvalidEm: 0
sfntRevision: 0x0001828f
LayerCount: 2
Layer: 0 1 "Back" 1
Layer: 1 1 "Fore" 0
XUID: [1021 736 -289526145 2322]
StyleMap: 0x0001
FSType: 0
OS2Version: 4
OS2_WeightWidthSlopeOnly: 0
OS2_UseTypoMetrics: 1
CreationTime: 1722724883
ModificationTime: 1760719600
PfmFamily: 81
TTFWeight: 400
TTFWidth: 5
LineGap: 0
VLineGap: 0
Panose: 0 0 9 0 0 0 0 0 0 0
OS2TypoAscent: 900
OS2TypoAOffset: 0
OS2TypoDescent: -500
OS2TypoDOffset: 0
OS2TypoLinegap: 0
OS2WinAscent: 881
OS2WinAOffset: 0
OS2WinDescent: 501
OS2WinDOffset: 0
HheadAscent: 900
HheadAOffset: 0
HheadDescent: -500
HheadDOffset: 0
OS2SubXSize: 650
OS2SubYSize: 600
OS2SubXOff: -13
OS2SubYOff: 75
OS2SupXSize: 650
OS2SupYSize: 600
OS2SupXOff: 62
OS2SupYOff: 350
OS2StrikeYSize: 45
OS2StrikeYPos: 267
OS2CapHeight: 556
OS2XHeight: 368
OS2Vendor: '1BOU'
OS2CodePages: 00000041.00000000
OS2UnicodeRanges: 800020af.d000204a.00000008.00000000
Lookup: 1 0 0 "'aalt' Access All Alternates lookup 0" { "'aalt' Access All Alternates lookup 0 subtable"  } ['aalt' ('DFLT' <'dflt' > 'arab' <'URD ' 'dflt' > 'latn' <'dflt' > ) ]
Lookup: 3 0 0 "'aalt' Access All Alternates lookup 1" { "'aalt' Access All Alternates lookup 1 subtable"  } ['aalt' ('DFLT' <'dflt' > 'arab' <'URD ' 'dflt' > 'latn' <'dflt' > ) ]
Lookup: 1 0 0 "Single Substitution lookup 2" { "Single Substitution lookup 2 subtable"  } []
Lookup: 1 0 0 "'sups' Superscript lookup 3" { "'sups' Superscript lookup 3 subtable" ("superior") } ['sups' ('DFLT' <'dflt' > 'arab' <'URD ' 'dflt' > 'latn' <'dflt' > ) ]

StartChar: .notdef
Encoding: 65536 -1 0
Width: 531
GlyphClass: 1
Flags: W
LayerCount: 2
Fore
SplineSet
-61 545 m 1,0,-1
 400 545 l 1,1,-1
 541 -254 l 1,2,-1
 80 -254 l 1,3,-1
 -61 545 l 1,0,-1
-5 497 m 1,4,-1
 120 -206 l 1,5,-1
 485 -206 l 1,6,-1
 361 497 l 1,7,-1
 -5 497 l 1,4,-1
213 67 m 1,8,-1
 210 88 l 2,9,10
 206 108 206 108 214.5 125 c 128,-1,11
 223 142 223 142 248 165 c 0,12,13
 274 189 274 189 282.5 207 c 128,-1,14
 291 225 291 225 287 247 c 0,15,16
 283 275 283 275 261 290.5 c 128,-1,17
 239 306 239 306 205 307 c 0,18,19
 177 308 177 308 155.5 302 c 128,-1,20
 134 296 134 296 99 277 c 1,21,-1
 90 294 l 2,22,23
 88 299 88 299 86.5 303.5 c 128,-1,24
 85 308 85 308 83 312 c 0,25,26
 77 334 77 334 108 347 c 0,27,28
 147 365 147 365 197 365 c 0,29,30
 263 365 263 365 304.5 338 c 128,-1,31
 346 311 346 311 355 262 c 0,32,33
 361 235 361 235 356 213 c 128,-1,34
 351 191 351 191 332 167.5 c 128,-1,35
 313 144 313 144 275 112 c 0,36,37
 258 96 258 96 262 75 c 2,38,-1
 264 67 l 1,39,-1
 213 67 l 1,8,-1
214 -29 m 0,40,41
 212 -9 212 -9 221.5 2.5 c 128,-1,42
 231 14 231 14 249 14 c 256,43,44
 267 14 267 14 281 2 c 128,-1,45
 295 -10 295 -10 298 -29 c 0,46,47
 302 -48 302 -48 292.5 -60 c 128,-1,48
 283 -72 283 -72 265 -72 c 0,49,50
 225 -72 225 -72 214 -29 c 0,40,41
EndSplineSet
EndChar

StartChar: exclam
Encoding: 33 33 3
Width: 153
GlyphClass: 1
Flags: W
LayerCount: 2
Fore
SplineSet
39 146 m 2,0,1
 30 146 30 146 33 154 c 2,2,-1
 95 547 l 2,3,4
 97 556 97 556 105 556 c 2,5,-1
 111 556 l 2,6,7
 140 556 140 556 153 538.5 c 128,-1,8
 166 521 166 521 158 485 c 2,9,-1
 94 154 l 2,10,11
 93 146 93 146 85 146 c 2,12,-1
 39 146 l 2,0,1
40 -10 m 0,13,14
 20 -10 20 -10 8.5 2.5 c 128,-1,15
 -3 15 -3 15 -3 34 c 0,16,17
 -3 56 -3 56 13 73.5 c 128,-1,18
 29 91 29 91 53 91 c 0,19,20
 73 91 73 91 83.5 79 c 128,-1,21
 94 67 94 67 94 49 c 0,22,23
 94 27 94 27 79.5 8.5 c 128,-1,24
 65 -10 65 -10 40 -10 c 0,13,14
EndSplineSet
Substitution2: "'locl' Localized Forms lookup 17 subtable" exclam.ar
EndChar

StartChar: quotedbl
Encoding: 34 34 4
Width: 257
GlyphClass: 1
Flags: W
LayerCount: 2
Fore
SplineSet
23 379 m 2,0,-1
 -22 547 l 2,1,2
 -25 556 -25 556 -16 556 c 2,3,-1
 -4 556 l 2,4,5
 28 556 28 556 43.5 541 c 128,-1,6
 59 526 59 526 63 488 c 2,7,-1
 74 379 l 2,8,9
 74 371 74 371 67 371 c 2,10,-1
 32 371 l 2,11,12
 26 371 26 371 23 379 c 2,0,-1
145 379 m 2,13,-1
 100 547 l 2,14,15
 97 556 97 556 107 556 c 2,16,-1
 119 556 l 2,17,18
 151 556 151 556 166 541 c 128,-1,19
 181 526 181 526 185 488 c 2,20,-1
 196 379 l 2,21,22
 198 371 198 371 189 371 c 2,23,-1
 154 371 l 2,24,25
 148 371 148 371 145 379 c 2,13,-1
EndSplineSet
EndChar

StartChar: numbersign
Encoding: 35 35 5
Width: 548
GlyphClass: 1
Flags: W
LayerCount: 2
Fore
SplineSet
159 151 m 1,0,-1
 92 151 l 2,1,2
 84 151 84 151 81 159 c 2,3,-1
 69 198 l 2,4,5
 68 207 68 207 77 207 c 2,6,-1
 145 207 l 1,7,-1
 107 347 l 1,8,-1
 39 347 l 2,9,10
 31 347 31 347 28 356 c 2,11,-1
 17 394 l 2,12,13
 14 403 14 403 23 403 c 2,14,-1
 92 403 l 1,15,-1
 52 547 l 2,16,17
 49 556 49 556 56 556 c 2,18,-1
 73 556 l 2,19,20
 122 556 122 556 136 502 c 2,21,-1
 163 403 l 1,22,-1
 307 403 l 1,23,-1
 267 547 l 2,24,25
 266 556 266 556 272 556 c 2,26,-1
 288 556 l 2,27,28
 337 556 337 556 352 502 c 2,29,-1
 379 403 l 1,30,-1
 446 403 l 2,31,32
 456 403 456 403 457 394 c 2,33,-1
 468 356 l 2,34,35
 471 347 471 347 462 347 c 2,36,-1
 394 347 l 1,37,-1
 432 207 l 1,38,-1
 500 207 l 2,39,40
 508 207 508 207 511 198 c 2,41,-1
 522 159 l 2,42,43
 525 151 525 151 516 151 c 2,44,-1
 447 151 l 1,45,-1
 486 9 l 2,46,47
 489 0 489 0 483 0 c 2,48,-1
 426 0 l 2,49,50
 418 0 418 0 414 9 c 2,51,-1
 375 151 l 1,52,-1
 232 151 l 1,53,-1
 271 9 l 2,54,55
 273 0 273 0 267 0 c 2,56,-1
 210 0 l 2,57,58
 201 0 201 0 199 9 c 2,59,-1
 159 151 l 1,0,-1
217 207 m 1,60,-1
 360 207 l 1,61,-1
 322 347 l 1,62,-1
 179 347 l 1,63,-1
 217 207 l 1,60,-1
EndSplineSet
EndChar

StartChar: dollar
Encoding: 36 36 6
Width: 454
GlyphClass: 1
Flags: W
LayerCount: 2
Fore
SplineSet
240 57 m 1,0,-1
 206 248 l 1,1,2
 171 259 171 259 136 273.5 c 128,-1,3
 101 288 101 288 72 308.5 c 128,-1,4
 43 329 43 329 25.5 358 c 128,-1,5
 8 387 8 387 8 429 c 0,6,7
 8 488 8 488 45.5 522 c 128,-1,8
 83 556 83 556 150 566 c 1,9,-1
 141 612 l 2,10,11
 140 621 140 621 149 621 c 2,12,-1
 180 621 l 2,13,14
 188 621 188 621 189 612 c 2,15,-1
 198 566 l 1,16,17
 230 564 230 564 257 558 c 128,-1,18
 284 552 284 552 311 539 c 0,19,20
 337 529 337 529 349.5 515 c 128,-1,21
 362 501 362 501 360 479 c 2,22,-1
 358 461 l 2,23,24
 357 456 357 456 356.5 453.5 c 128,-1,25
 356 451 356 451 351 451 c 0,26,27
 348 451 348 451 336 456 c 0,28,29
 307 473 307 473 276 483.5 c 128,-1,30
 245 494 245 494 210 497 c 1,31,-1
 242 313 l 1,32,33
 291 300 291 300 335 280 c 128,-1,34
 379 260 379 260 407.5 225 c 128,-1,35
 436 190 436 190 436 131 c 0,36,37
 436 76 436 76 400.5 38 c 128,-1,38
 365 0 365 0 299 -8 c 1,39,-1
 307 -56 l 2,40,41
 310 -64 310 -64 300 -64 c 2,42,-1
 269 -64 l 2,43,44
 261 -64 261 -64 260 -56 c 2,45,-1
 252 -11 l 1,46,47
 191 -9 191 -9 144.5 13 c 128,-1,48
 98 35 98 35 71.5 66.5 c 128,-1,49
 45 98 45 98 45 127 c 0,50,51
 45 141 45 141 55 141 c 0,52,53
 61 141 61 141 69 133 c 0,54,55
 105 99 105 99 146.5 79 c 128,-1,56
 188 59 188 59 240 57 c 1,0,-1
193 325 m 1,57,-1
 162 499 l 1,58,59
 124 498 124 498 103 479.5 c 128,-1,60
 82 461 82 461 82 431 c 0,61,62
 82 400 82 400 98.5 379.5 c 128,-1,63
 115 359 115 359 140.5 346.5 c 128,-1,64
 166 334 166 334 193 325 c 1,57,-1
256 237 m 1,65,-1
 286 59 l 1,66,67
 327 66 327 66 345.5 86 c 128,-1,68
 364 106 364 106 364 134 c 0,69,70
 364 165 364 165 349 184.5 c 128,-1,71
 334 204 334 204 309.5 216 c 128,-1,72
 285 228 285 228 256 237 c 1,65,-1
EndSplineSet
EndChar

StartChar: percent
Encoding: 37 37 7
Width: 761
GlyphClass: 1
Flags: W
LayerCount: 2
Fore
SplineSet
166 223 m 0,0,1
 119 223 119 223 81.5 251.5 c 128,-1,2
 44 280 44 280 22 328.5 c 128,-1,3
 0 377 0 377 0 437 c 0,4,5
 0 496 0 496 32.5 531.5 c 128,-1,6
 65 567 65 567 117 567 c 0,7,8
 165 567 165 567 202.5 538 c 128,-1,9
 240 509 240 509 262 461 c 128,-1,10
 284 413 284 413 284 355 c 0,11,12
 284 296 284 296 254.5 259.5 c 128,-1,13
 225 223 225 223 166 223 c 0,0,1
238 0 m 2,14,15
 229 0 229 0 233 9 c 2,16,-1
 433 547 l 2,17,18
 438 556 438 556 443 556 c 2,19,-1
 450 556 l 2,20,21
 475 556 475 556 484.5 539 c 128,-1,22
 494 522 494 522 484 496 c 2,23,-1
 301 9 l 2,24,25
 298 0 298 0 291 0 c 2,26,-1
 238 0 l 2,14,15
164 276 m 0,27,28
 223 276 223 276 223 349 c 0,29,30
 223 423 223 423 194.5 468 c 128,-1,31
 166 513 166 513 120 513 c 0,32,33
 61 513 61 513 61 433 c 0,34,35
 61 401 61 401 70 364.5 c 128,-1,36
 79 328 79 328 101.5 302 c 128,-1,37
 124 276 124 276 164 276 c 0,27,28
619 -9 m 0,38,39
 572 -9 572 -9 534.5 20 c 128,-1,40
 497 49 497 49 475 97.5 c 128,-1,41
 453 146 453 146 453 206 c 0,42,43
 453 265 453 265 486 300 c 128,-1,44
 519 335 519 335 571 335 c 0,45,46
 618 335 618 335 655.5 306 c 128,-1,47
 693 277 693 277 715 229 c 128,-1,48
 737 181 737 181 737 123 c 256,49,50
 737 65 737 65 707.5 28 c 128,-1,51
 678 -9 678 -9 619 -9 c 0,38,39
617 45 m 0,52,53
 676 45 676 45 676 117 c 0,54,55
 676 191 676 191 647.5 236 c 128,-1,56
 619 281 619 281 573 281 c 0,57,58
 514 281 514 281 514 202 c 0,59,60
 514 170 514 170 523.5 133 c 128,-1,61
 533 96 533 96 555.5 70.5 c 128,-1,62
 578 45 578 45 617 45 c 0,52,53
EndSplineSet
EndChar

StartChar: ampersand
Encoding: 38 38 8
Width: 532
GlyphClass: 1
Flags: W
LayerCount: 2
Fore
SplineSet
252 293 m 1,0,-1
 371 180 l 1,1,-1
 416 279 l 2,2,3
 420 290 420 290 434 290 c 2,4,-1
 485 290 l 2,5,6
 494 290 494 290 492 281 c 2,7,-1
 420 133 l 1,8,-1
 545 10 l 2,9,10
 548 7 548 7 547.5 3.5 c 128,-1,11
 547 0 547 0 543 0 c 2,12,-1
 494 0 l 2,13,14
 475 0 475 0 464 5 c 128,-1,15
 453 10 453 10 440 22 c 2,16,-1
 390 72 l 1,17,18
 367 38 367 38 330 15.5 c 128,-1,19
 293 -7 293 -7 232 -7 c 0,20,21
 176 -7 176 -7 134 16 c 128,-1,22
 92 39 92 39 69 78.5 c 128,-1,23
 46 118 46 118 46 168 c 0,24,25
 46 214 46 214 75.5 248 c 128,-1,26
 105 282 105 282 149 306 c 1,27,28
 112 338 112 338 83 371 c 128,-1,29
 54 404 54 404 54 450 c 0,30,31
 54 499 54 499 92 533 c 128,-1,32
 130 567 130 567 194 567 c 0,33,34
 265 567 265 567 311 533.5 c 128,-1,35
 357 500 357 500 357 440 c 0,36,37
 357 400 357 400 328 360.5 c 128,-1,38
 299 321 299 321 252 293 c 1,0,-1
207 339 m 1,39,40
 242 359 242 359 263.5 385.5 c 128,-1,41
 285 412 285 412 285 440 c 0,42,43
 285 470 285 470 261.5 488 c 128,-1,44
 238 506 238 506 203 506 c 0,45,46
 169 506 169 506 150.5 489 c 128,-1,47
 132 472 132 472 132 447 c 0,48,49
 132 421 132 421 148 398.5 c 128,-1,50
 164 376 164 376 207 339 c 1,39,40
343 118 m 1,51,-1
 198 258 l 1,52,53
 164 242 164 242 143 221 c 128,-1,54
 122 200 122 200 122 162 c 0,55,56
 122 111 122 111 153 84 c 128,-1,57
 184 57 184 57 232 57 c 0,58,59
 275 57 275 57 301.5 73.5 c 128,-1,60
 328 90 328 90 343 118 c 1,51,-1
EndSplineSet
EndChar

StartChar: quotesingle
Encoding: 39 39 9
Width: 133
GlyphClass: 1
Flags: W
LayerCount: 2
Fore
SplineSet
23 379 m 2,0,-1
 -22 547 l 2,1,2
 -25 556 -25 556 -16 556 c 2,3,-1
 -4 556 l 2,4,5
 28 556 28 556 43.5 541 c 128,-1,6
 59 526 59 526 63 488 c 2,7,-1
 74 379 l 2,8,9
 74 371 74 371 67 371 c 2,10,-1
 32 371 l 2,11,12
 26 371 26 371 23 379 c 2,0,-1
EndSplineSet
EndChar

StartChar: parenleft
Encoding: 40 40 10
Width: 394
GlyphClass: 1
Flags: W
LayerCount: 2
Fore
SplineSet
97 277 m 0,0,1
 77 395 77 395 93 481.5 c 128,-1,2
 109 568 109 568 148 622 c 128,-1,3
 187 676 187 676 234 697 c 0,4,5
 243 700 243 700 245 691 c 0,6,7
 245 688 245 688 246 682 c 128,-1,8
 247 676 247 676 247 671 c 0,9,10
 249 642 249 642 243 633 c 128,-1,11
 237 624 237 624 229 614 c 0,12,13
 177 553 177 553 163 471 c 128,-1,14
 149 389 149 389 168 277 c 256,15,16
 187 165 187 165 231 82.5 c 128,-1,17
 275 0 275 0 348 -61 c 0,18,19
 360 -71 360 -71 368.5 -80.5 c 128,-1,20
 377 -90 377 -90 386 -118 c 0,21,22
 388 -123 388 -123 389 -129 c 128,-1,23
 390 -135 390 -135 391 -138 c 0,24,25
 392 -148 392 -148 383 -144 c 0,26,27
 280 -109 280 -109 203.5 -5 c 128,-1,28
 127 99 127 99 97 277 c 0,0,1
EndSplineSet
EndChar

StartChar: parenright
Encoding: 41 41 11
Width: 356
GlyphClass: 1
Flags: W
LayerCount: 2
Fore
SplineSet
288 277 m 0,0,1
 310 158 310 158 293.5 71.5 c 128,-1,2
 277 -15 277 -15 238 -69 c 128,-1,3
 199 -123 199 -123 151 -144 c 0,4,5
 142 -148 142 -148 141 -138 c 0,6,7
 140 -135 140 -135 139.5 -129 c 128,-1,8
 139 -123 139 -123 138 -118 c 0,9,10
 136 -89 136 -89 142.5 -80 c 128,-1,11
 149 -71 149 -71 156 -61 c 0,12,13
 208 0 208 0 223 82.5 c 128,-1,14
 238 165 238 165 217 277 c 0,15,16
 198 389 198 389 153 470 c 128,-1,17
 108 551 108 551 34 612 c 0,18,19
 23 623 23 623 15 632 c 128,-1,20
 7 641 7 641 1 671 c 0,21,22
 0 677 0 677 -1.5 682.5 c 128,-1,23
 -3 688 -3 688 -3 691 c 0,24,25
 -5 700 -5 700 5 697 c 0,26,27
 105 659 105 659 181.5 556.5 c 128,-1,28
 258 454 258 454 288 277 c 0,0,1
EndSplineSet
PairPos2: "'kern' Horizontal Kerning lookup 4 per glyph data 1" uni0698 dx=-33 dy=0 dh=-33 dv=0 dx=0 dy=0 dh=0 dv=0
PairPos2: "'kern' Horizontal Kerning lookup 4 per glyph data 1" uni0694 dx=-33 dy=0 dh=-33 dv=0 dx=0 dy=0 dh=0 dv=0
PairPos2: "'kern' Horizontal Kerning lookup 4 per glyph data 1" uni0691 dx=-22 dy=0 dh=-22 dv=0 dx=0 dy=0 dh=0 dv=0
PairPos2: "'kern' Horizontal Kerning lookup 4 per glyph data 1" uni0671 dx=44 dy=0 dh=44 dv=0 dx=0 dy=0 dh=0 dv=0
PairPos2: "'kern' Horizontal Kerning lookup 4 per glyph data 1" uni0632 dx=-33 dy=0 dh=-33 dv=0 dx=0 dy=0 dh=0 dv=0
PairPos2: "'kern' Horizontal Kerning lookup 4 per glyph data 1" uni0631 dx=-33 dy=0 dh=-33 dv=0 dx=0 dy=0 dh=0 dv=0
PairPos2: "'kern' Horizontal Kerning lookup 4 per glyph data 1" uni0625 dx=11 dy=0 dh=11 dv=0 dx=0 dy=0 dh=0 dv=0
PairPos2: "'kern' Horizontal Kerning lookup 4 per glyph data 1" uni0623 dx=50 dy=0 dh=50 dv=0 dx=0 dy=0 dh=0 dv=0
PairPos2: "'kern' Horizontal Kerning lookup 4 per glyph data 1" uni0622 dx=44 dy=0 dh=44 dv=0 dx=0 dy=0 dh=0 dv=0
EndChar

StartChar: asterisk
Encoding: 42 42 12
Width: 366
GlyphClass: 1
Flags: W
LayerCount: 2
Fore
SplineSet
112 377 m 1,0,-1
 14 402 l 2,1,2
 5 404 5 404 7 413 c 2,3,-1
 15 463 l 2,4,5
 17 471 17 471 24 468 c 2,6,-1
 119 431 l 1,7,-1
 95 531 l 2,8,9
 94 539 94 539 102 539 c 2,10,-1
 159 539 l 2,11,12
 168 539 168 539 169 531 c 2,13,-1
 179 431 l 1,14,-1
 262 468 l 2,15,16
 271 471 271 471 274 463 c 2,17,-1
 297 417 l 2,18,19
 303 408 303 408 294 406 c 2,20,-1
 201 379 l 1,21,-1
 281 300 l 2,22,23
 287 294 287 294 281 289 c 2,24,-1
 243 261 l 2,25,26
 236 256 236 256 232 262 c 2,27,-1
 163 348 l 1,28,-1
 125 257 l 2,29,30
 122 249 122 249 114 256 c 2,31,-1
 65 283 l 2,32,33
 58 287 58 287 62 294 c 2,34,-1
 112 377 l 1,0,-1
EndSplineSet
EndChar

StartChar: plus
Encoding: 43 43 13
Width: 403
GlyphClass: 1
Flags: W
LayerCount: 2
Fore
SplineSet
168 238 m 1,0,-1
 45 238 l 2,1,2
 37 238 37 238 37 247 c 2,3,-1
 37 295 l 2,4,5
 37 304 37 304 45 304 c 2,6,-1
 168 304 l 1,7,-1
 168 441 l 2,8,9
 168 450 168 450 176 450 c 0,10,11
 208 450 208 450 221.5 435.5 c 128,-1,12
 235 421 235 421 235 389 c 2,13,-1
 235 304 l 1,14,-1
 358 304 l 2,15,16
 366 304 366 304 366 295 c 2,17,-1
 366 247 l 2,18,19
 366 238 366 238 358 238 c 2,20,-1
 235 238 l 1,21,-1
 235 101 l 2,22,23
 235 92 235 92 227 92 c 2,24,-1
 176 92 l 2,25,26
 168 92 168 92 168 101 c 2,27,-1
 168 238 l 1,0,-1
EndSplineSet
EndChar

StartChar: comma
Encoding: 44 44 14
Width: 145
GlyphClass: 1
Flags: W
LayerCount: 2
Fore
SplineSet
-11 -86 m 0,0,1
 -27 -65 -27 -65 -7 -49 c 0,2,3
 1 -41 1 -41 10 -31 c 128,-1,4
 19 -21 19 -21 23 -8 c 1,5,6
 -10 -1 -10 -1 -10 33 c 0,7,8
 -10 56 -10 56 5.5 73.5 c 128,-1,9
 21 91 21 91 45 91 c 0,10,11
 65 91 65 91 76 79.5 c 128,-1,12
 87 68 87 68 87 48 c 0,13,14
 87 20 87 20 73 -4.5 c 128,-1,15
 59 -29 59 -29 38.5 -49.5 c 128,-1,16
 18 -70 18 -70 -3 -86 c 0,17,18
 -8 -89 -8 -89 -11 -86 c 0,0,1
EndSplineSet
EndChar

StartChar: hyphen
Encoding: 45 45 15
Width: 305
GlyphClass: 1
Flags: W
LayerCount: 2
Fore
SplineSet
276 177 m 2,0,1
 276 168 276 168 269 168 c 2,2,-1
 57 168 l 2,3,4
 50 168 50 168 48 177 c 2,5,-1
 38 229 l 2,6,7
 37 238 37 238 45 238 c 2,8,-1
 257 238 l 2,9,10
 265 238 265 238 266 229 c 2,11,-1
 276 177 l 2,0,1
EndSplineSet
EndChar

StartChar: period
Encoding: 46 46 16
Width: 217
GlyphClass: 1
Flags: W
LayerCount: 2
Fore
SplineSet
164 -11 m 0,0,1
 142 -11 142 -11 123.5 5.5 c 128,-1,2
 105 22 105 22 101 44 c 0,3,4
 97 67 97 67 110 83 c 128,-1,5
 123 99 123 99 145 99 c 256,6,7
 167 99 167 99 185.5 83 c 128,-1,8
 204 67 204 67 208 44 c 0,9,10
 212 22 212 22 199.5 5.5 c 128,-1,11
 187 -11 187 -11 164 -11 c 0,0,1
EndSplineSet
EndChar

StartChar: slash
Encoding: 47 47 17
Width: 207
GlyphClass: 1
Flags: W
LayerCount: 2
Fore
SplineSet
8 0 m 2,0,1
 0 0 0 0 2 9 c 2,2,-1
 134 547 l 2,3,4
 137 556 137 556 145 556 c 2,5,-1
 149 556 l 2,6,7
 173 556 173 556 184.5 538 c 128,-1,8
 196 520 196 520 189 493 c 2,9,-1
 69 9 l 2,10,11
 68 0 68 0 59 0 c 2,12,-1
 8 0 l 2,0,1
EndSplineSet
EndChar

StartChar: zero
Encoding: 48 48 18
Width: 502
GlyphClass: 1
Flags: W
LayerCount: 2
Fore
SplineSet
285 -11 m 0,0,1
 211 -11 211 -11 153 37 c 128,-1,2
 95 85 95 85 62.5 169.5 c 128,-1,3
 30 254 30 254 30 362 c 0,4,5
 30 460 30 460 77 513.5 c 128,-1,6
 124 567 124 567 203 567 c 0,7,8
 278 567 278 567 335 521 c 128,-1,9
 392 475 392 475 423.5 391.5 c 128,-1,10
 455 308 455 308 455 194 c 0,11,12
 455 100 455 100 411 44.5 c 128,-1,13
 367 -11 367 -11 285 -11 c 0,0,1
280 59 m 0,14,15
 332 59 332 59 355 93.5 c 128,-1,16
 378 128 378 128 378 194 c 0,17,18
 378 286 378 286 356.5 353.5 c 128,-1,19
 335 421 335 421 297 458.5 c 128,-1,20
 259 496 259 496 208 496 c 0,21,22
 158 496 158 496 132 462 c 128,-1,23
 106 428 106 428 106 365 c 0,24,25
 106 280 106 280 128.5 210.5 c 128,-1,26
 151 141 151 141 190.5 100 c 128,-1,27
 230 59 230 59 280 59 c 0,14,15
EndSplineSet
Substitution2: "'lnum' Lining Figures in Latin lookup 7 subtable" zero.tab
Substitution2: "'aalt' Access All Alternates lookup 0 subtable" zero.tab
EndChar

StartChar: one
Encoding: 49 49 19
Width: 358
GlyphClass: 1
Flags: W
LayerCount: 2
Fore
SplineSet
188 69 m 1,0,-1
 114 486 l 1,1,-1
 23 449 l 2,2,3
 15 446 15 446 13 455 c 2,4,-1
 2 510 l 2,5,6
 1 520 1 520 10 524 c 2,7,-1
 67 547 l 2,8,9
 91 556 91 556 113 556 c 2,10,-1
 129 556 l 2,11,12
 179 556 179 556 188 501 c 2,13,-1
 264 69 l 1,14,-1
 329 69 l 2,15,16
 372 69 372 69 380 26 c 2,17,-1
 384 11 l 2,18,19
 386 0 386 0 375 0 c 2,20,-1
 99 0 l 2,21,22
 91 0 91 0 89 9 c 2,23,-1
 80 61 l 2,24,25
 79 69 79 69 88 69 c 2,26,-1
 188 69 l 1,0,-1
EndSplineSet
Substitution2: "'lnum' Lining Figures in Latin lookup 7 subtable" one.tab
Substitution2: "'sups' Superscript lookup 3 subtable" onesuperior
AlternateSubs2: "'aalt' Access All Alternates lookup 1 subtable" onesuperior one.tab
EndChar

StartChar: two
Encoding: 50 50 20
Width: 449
GlyphClass: 1
Flags: W
LayerCount: 2
Fore
SplineSet
153 69 m 1,0,-1
 381 69 l 2,1,2
 425 69 425 69 433 27 c 2,3,-1
 436 11 l 2,4,5
 438 0 438 0 427 0 c 2,6,-1
 85 0 l 2,7,8
 75 0 75 0 75 9 c 0,9,10
 71 23 71 23 70.5 35.5 c 128,-1,11
 70 48 70 48 70 59 c 0,12,13
 70 106 70 106 85.5 140 c 128,-1,14
 101 174 101 174 126 199.5 c 128,-1,15
 151 225 151 225 179 246 c 128,-1,16
 207 267 207 267 232 288 c 128,-1,17
 257 309 257 309 272.5 334 c 128,-1,18
 288 359 288 359 288 393 c 0,19,20
 288 445 288 445 256 471.5 c 128,-1,21
 224 498 224 498 171 498 c 0,22,23
 132 498 132 498 99.5 486 c 128,-1,24
 67 474 67 474 38 454 c 0,25,26
 33 449 33 449 27 449 c 0,27,28
 22 449 22 449 18 457 c 2,29,-1
 8 477 l 2,30,31
 -2 498 -2 498 4.5 512 c 128,-1,32
 11 526 11 526 33 537 c 0,33,34
 61 549 61 549 92 558 c 128,-1,35
 123 567 123 567 162 567 c 0,36,37
 253 567 253 567 309.5 523 c 128,-1,38
 366 479 366 479 366 393 c 0,39,40
 366 350 366 350 350 317.5 c 128,-1,41
 334 285 334 285 309 259.5 c 128,-1,42
 284 234 284 234 256 213 c 128,-1,43
 228 192 228 192 203.5 170.5 c 128,-1,44
 179 149 179 149 165 125 c 128,-1,45
 151 101 151 101 153 69 c 1,0,-1
EndSplineSet
Substitution2: "'lnum' Lining Figures in Latin lookup 7 subtable" two.tab
Substitution2: "'sups' Superscript lookup 3 subtable" twosuperior
AlternateSubs2: "'aalt' Access All Alternates lookup 1 subtable" twosuperior two.tab
EndChar

StartChar: three
Encoding: 51 51 21
Width: 444
GlyphClass: 1
Flags: W
LayerCount: 2
Fore
SplineSet
291 293 m 1,0,1
 350 283 350 283 388 240.5 c 128,-1,2
 426 198 426 198 426 139 c 0,3,4
 426 100 426 100 408.5 66 c 128,-1,5
 391 32 391 32 352 11 c 128,-1,6
 313 -10 313 -10 250 -10 c 0,7,8
 192 -10 192 -10 148 11 c 128,-1,9
 104 32 104 32 79 62.5 c 128,-1,10
 54 93 54 93 54 122 c 0,11,12
 54 129 54 129 56 134 c 128,-1,13
 58 139 58 139 65 139 c 256,14,15
 72 139 72 139 81 129 c 0,16,17
 113 97 113 97 149.5 77.5 c 128,-1,18
 186 58 186 58 240 58 c 0,19,20
 293 58 293 58 321 81 c 128,-1,21
 349 104 349 104 349 144 c 0,22,23
 349 183 349 183 329 207.5 c 128,-1,24
 309 232 309 232 277.5 243 c 128,-1,25
 246 254 246 254 211 254 c 2,26,-1
 154 254 l 2,27,28
 111 254 111 254 104 294 c 2,29,-1
 101 311 l 2,30,31
 99 324 99 324 110 324 c 2,32,-1
 197 324 l 2,33,34
 244 324 244 324 266 344.5 c 128,-1,35
 288 365 288 365 288 399 c 0,36,37
 288 446 288 446 257 472.5 c 128,-1,38
 226 499 226 499 167 499 c 0,39,40
 128 499 128 499 97 487.5 c 128,-1,41
 66 476 66 476 39 456 c 0,42,43
 36 454 36 454 33 452 c 128,-1,44
 30 450 30 450 27 450 c 0,45,46
 22 450 22 450 17 458 c 2,47,-1
 7 478 l 2,48,49
 -3 500 -3 500 4 513.5 c 128,-1,50
 11 527 11 527 33 538 c 0,51,52
 54 549 54 549 88.5 558 c 128,-1,53
 123 567 123 567 167 567 c 0,54,55
 256 567 256 567 309 522 c 128,-1,56
 362 477 362 477 362 401 c 0,57,58
 362 367 362 367 345.5 338.5 c 128,-1,59
 329 310 329 310 291 293 c 1,0,1
EndSplineSet
Substitution2: "'lnum' Lining Figures in Latin lookup 7 subtable" three.tab
Substitution2: "'sups' Superscript lookup 3 subtable" threesuperior
AlternateSubs2: "'aalt' Access All Alternates lookup 1 subtable" threesuperior three.tab
EndChar

StartChar: four
Encoding: 52 52 22
Width: 468
GlyphClass: 1
Flags: W
LayerCount: 2
Fore
SplineSet
297 128 m 1,0,-1
 42 128 l 2,1,2
 34 128 34 128 33 136 c 2,3,-1
 26 177 l 2,4,5
 24 187 24 187 25 192.5 c 128,-1,6
 26 198 26 198 30 208 c 2,7,-1
 190 537 l 2,8,9
 194 545 194 545 201 550.5 c 128,-1,10
 208 556 208 556 221 556 c 2,11,-1
 250 556 l 2,12,13
 270 556 270 556 285.5 545 c 128,-1,14
 301 534 301 534 305 508 c 2,15,-1
 360 197 l 1,16,-1
 397 197 l 2,17,18
 442 197 442 197 450 154 c 1,19,-1
 451 138 l 2,20,21
 453 128 453 128 442 128 c 2,22,-1
 372 128 l 1,23,-1
 393 9 l 2,24,25
 395 0 395 0 388 0 c 2,26,-1
 329 0 l 2,27,28
 321 0 321 0 319 9 c 2,29,-1
 297 128 l 1,0,-1
98 197 m 1,30,-1
 286 197 l 1,31,-1
 236 481 l 1,32,-1
 98 197 l 1,30,-1
EndSplineSet
Substitution2: "'lnum' Lining Figures in Latin lookup 7 subtable" four.tab
Substitution2: "'aalt' Access All Alternates lookup 0 subtable" four.tab
EndChar

StartChar: five
Encoding: 53 53 23
Width: 452
GlyphClass: 1
Flags: W
LayerCount: 2
Fore
SplineSet
85 486 m 1,0,-1
 111 340 l 1,1,2
 128 345 128 345 153.5 349 c 128,-1,3
 179 353 179 353 210 353 c 0,4,5
 276 353 276 353 323.5 327 c 128,-1,6
 371 301 371 301 397 256 c 128,-1,7
 423 211 423 211 423 153 c 0,8,9
 423 79 423 79 373.5 34.5 c 128,-1,10
 324 -10 324 -10 244 -10 c 0,11,12
 186 -10 186 -10 143 11.5 c 128,-1,13
 100 33 100 33 76 63.5 c 128,-1,14
 52 94 52 94 52 120 c 0,15,16
 52 127 52 127 55 132 c 128,-1,17
 58 137 58 137 64 137 c 0,18,19
 71 137 71 137 80 128 c 0,20,21
 113 94 113 94 149 76 c 128,-1,22
 185 58 185 58 232 58 c 0,23,24
 290 58 290 58 318 83.5 c 128,-1,25
 346 109 346 109 346 156 c 0,26,27
 346 221 346 221 307.5 253.5 c 128,-1,28
 269 286 269 286 204 286 c 0,29,30
 163 286 163 286 128.5 278 c 128,-1,31
 94 270 94 270 66 259 c 0,32,33
 54 256 54 256 52 268 c 2,34,-1
 3 547 l 2,35,36
 2 556 2 556 9 556 c 2,37,-1
 275 556 l 2,38,39
 320 556 320 556 328 513 c 2,40,-1
 331 497 l 2,41,42
 333 486 333 486 323 486 c 2,43,-1
 85 486 l 1,0,-1
EndSplineSet
Substitution2: "'lnum' Lining Figures in Latin lookup 7 subtable" five.tab
Substitution2: "'aalt' Access All Alternates lookup 0 subtable" five.tab
EndChar

StartChar: six
Encoding: 54 54 24
Width: 463
GlyphClass: 1
Flags: W
LayerCount: 2
Fore
SplineSet
153 341 m 1,0,1
 170 350 170 350 188 356 c 128,-1,2
 206 362 206 362 237 362 c 0,3,4
 296 362 296 362 340.5 336 c 128,-1,5
 385 310 385 310 409.5 265.5 c 128,-1,6
 434 221 434 221 434 164 c 0,7,8
 434 118 434 118 412 78 c 128,-1,9
 390 38 390 38 348 14 c 128,-1,10
 306 -10 306 -10 247 -10 c 0,11,12
 187 -10 187 -10 141 17 c 128,-1,13
 95 44 95 44 69 91 c 128,-1,14
 43 138 43 138 43 197 c 0,15,16
 43 243 43 243 53.5 278.5 c 128,-1,17
 64 314 64 314 80 353 c 2,18,-1
 168 557 l 2,19,20
 173 567 173 567 181 567 c 0,21,22
 207 567 207 567 218 541 c 128,-1,23
 229 515 229 515 213 479 c 2,24,-1
 153 341 l 1,0,1
247 59 m 0,25,26
 303 59 303 59 331 90.5 c 128,-1,27
 359 122 359 122 359 164 c 0,28,29
 359 223 359 223 323 259.5 c 128,-1,30
 287 296 287 296 228 296 c 0,31,32
 170 296 170 296 144.5 265 c 128,-1,33
 119 234 119 234 119 190 c 0,34,35
 119 133 119 133 154 96 c 128,-1,36
 189 59 189 59 247 59 c 0,25,26
EndSplineSet
Substitution2: "'lnum' Lining Figures in Latin lookup 7 subtable" six.tab
Substitution2: "'aalt' Access All Alternates lookup 0 subtable" six.tab
EndChar

StartChar: seven
Encoding: 55 55 25
Width: 428
GlyphClass: 1
Flags: W
LayerCount: 2
Fore
SplineSet
280 486 m 1,0,-1
 4 486 l 2,1,2
 -4 486 -4 486 -6 495 c 2,3,-1
 -15 547 l 2,4,5
 -16 556 -16 556 -9 556 c 2,6,-1
 295 556 l 2,7,8
 341 556 341 556 349 513 c 2,9,-1
 351 502 l 2,10,11
 353 489 353 489 352.5 479.5 c 128,-1,12
 352 470 352 470 348 456 c 2,13,-1
 218 12 l 2,14,15
 214 0 214 0 203 0 c 2,16,-1
 147 0 l 2,17,18
 137 0 137 0 139 9 c 2,19,-1
 280 486 l 1,0,-1
EndSplineSet
Substitution2: "'lnum' Lining Figures in Latin lookup 7 subtable" seven.tab
Substitution2: "'aalt' Access All Alternates lookup 0 subtable" seven.tab
EndChar

StartChar: eight
Encoding: 56 56 26
Width: 462
GlyphClass: 1
Flags: W
LayerCount: 2
Fore
SplineSet
133 290 m 1,0,1
 84 307 84 307 50 341.5 c 128,-1,2
 16 376 16 376 16 431 c 0,3,4
 16 488 16 488 60.5 527.5 c 128,-1,5
 105 567 105 567 182 567 c 0,6,7
 239 567 239 567 283 545.5 c 128,-1,8
 327 524 327 524 352 487 c 128,-1,9
 377 450 377 450 377 404 c 0,10,11
 377 366 377 366 357.5 337 c 128,-1,12
 338 308 338 308 309 294 c 1,13,14
 368 275 368 275 404.5 236.5 c 128,-1,15
 441 198 441 198 441 136 c 0,16,17
 441 96 441 96 421.5 62.5 c 128,-1,18
 402 29 402 29 362 9 c 128,-1,19
 322 -11 322 -11 260 -11 c 0,20,21
 199 -11 199 -11 150 13 c 128,-1,22
 101 37 101 37 73 78 c 128,-1,23
 45 119 45 119 45 171 c 0,24,25
 45 211 45 211 66.5 241.5 c 128,-1,26
 88 272 88 272 133 290 c 1,0,1
87 423 m 0,27,28
 87 394 87 394 105 371.5 c 128,-1,29
 123 349 123 349 152 336.5 c 128,-1,30
 181 324 181 324 214 324 c 0,31,32
 259 324 259 324 282 345.5 c 128,-1,33
 305 367 305 367 305 399 c 0,34,35
 305 446 305 446 270.5 474.5 c 128,-1,36
 236 503 236 503 182 503 c 0,37,38
 139 503 139 503 113 481 c 128,-1,39
 87 459 87 459 87 423 c 0,27,28
120 171 m 0,40,41
 120 134 120 134 139.5 108 c 128,-1,42
 159 82 159 82 190 68 c 128,-1,43
 221 54 221 54 257 54 c 0,44,45
 314 54 314 54 339.5 77.5 c 128,-1,46
 365 101 365 101 365 139 c 0,47,48
 365 178 365 178 345 205 c 128,-1,49
 325 232 325 232 293 246.5 c 128,-1,50
 261 261 261 261 224 261 c 0,51,52
 180 261 180 261 150 236.5 c 128,-1,53
 120 212 120 212 120 171 c 0,40,41
EndSplineSet
Substitution2: "'lnum' Lining Figures in Latin lookup 7 subtable" eight.tab
Substitution2: "'aalt' Access All Alternates lookup 0 subtable" eight.tab
EndChar

StartChar: nine
Encoding: 57 57 27
Width: 463
GlyphClass: 1
Flags: W
LayerCount: 2
Fore
SplineSet
286 214 m 1,0,1
 274 207 274 207 253 200.5 c 128,-1,2
 232 194 232 194 200 194 c 0,3,4
 144 194 144 194 100 220.5 c 128,-1,5
 56 247 56 247 31 292 c 128,-1,6
 6 337 6 337 6 392 c 0,7,8
 6 442 6 442 28.5 481.5 c 128,-1,9
 51 521 51 521 92 544 c 128,-1,10
 133 567 133 567 188 567 c 0,11,12
 250 567 250 567 297 541 c 128,-1,13
 344 515 344 515 370.5 469 c 128,-1,14
 397 423 397 423 397 362 c 0,15,16
 397 320 397 320 387 281.5 c 128,-1,17
 377 243 377 243 360 204 c 2,18,-1
 272 1 l 2,19,20
 267 -10 267 -10 258 -10 c 0,21,22
 231 -10 231 -10 222 17.5 c 128,-1,23
 213 45 213 45 227 77 c 2,24,-1
 286 214 l 1,0,1
209 261 m 0,25,26
 265 261 265 261 293.5 292.5 c 128,-1,27
 322 324 322 324 322 369 c 0,28,29
 322 423 322 423 285.5 460.5 c 128,-1,30
 249 498 249 498 190 498 c 0,31,32
 135 498 135 498 108.5 466 c 128,-1,33
 82 434 82 434 82 392 c 0,34,35
 82 335 82 335 116.5 298 c 128,-1,36
 151 261 151 261 209 261 c 0,25,26
EndSplineSet
Substitution2: "'lnum' Lining Figures in Latin lookup 7 subtable" nine.tab
Substitution2: "'aalt' Access All Alternates lookup 0 subtable" nine.tab
EndChar

StartChar: colon
Encoding: 58 58 28
Width: 223
GlyphClass: 1
Flags: W
LayerCount: 2
Fore
SplineSet
109 319 m 256,0,1
 131 319 131 319 149.5 302.5 c 128,-1,2
 168 286 168 286 172 263 c 0,3,4
 176 241 176 241 163.5 224.5 c 128,-1,5
 151 208 151 208 128 208 c 0,6,7
 106 208 106 208 87.5 224.5 c 128,-1,8
 69 241 69 241 65 263 c 0,9,10
 61 286 61 286 74 302.5 c 128,-1,11
 87 319 87 319 109 319 c 256,0,1
148 99 m 256,12,13
 170 99 170 99 188.5 83 c 128,-1,14
 207 67 207 67 211 44 c 0,15,16
 215 22 215 22 202.5 5.5 c 128,-1,17
 190 -11 190 -11 167 -11 c 0,18,19
 145 -11 145 -11 126 5.5 c 128,-1,20
 107 22 107 22 103 44 c 0,21,22
 99 67 99 67 112.5 83 c 128,-1,23
 126 99 126 99 148 99 c 256,12,13
EndSplineSet
EndChar

StartChar: semicolon
Encoding: 59 59 29
Width: 162
GlyphClass: 1
Flags: W
LayerCount: 2
Fore
SplineSet
85 219 m 0,0,1
 64 219 64 219 53 231.5 c 128,-1,2
 42 244 42 244 42 262 c 0,3,4
 42 285 42 285 58 302 c 128,-1,5
 74 319 74 319 97 319 c 0,6,7
 117 319 117 319 128 307 c 128,-1,8
 139 295 139 295 139 277 c 0,9,10
 139 255 139 255 124.5 237 c 128,-1,11
 110 219 110 219 85 219 c 0,0,1
-1 -86 m 0,12,13
 -8 -76 -8 -76 -6.5 -66 c 128,-1,14
 -5 -56 -5 -56 3 -49 c 0,15,16
 12 -41 12 -41 20.5 -31 c 128,-1,17
 29 -21 29 -21 33 -8 c 1,18,19
 0 -1 0 -1 0 33 c 0,20,21
 0 56 0 56 15.5 73.5 c 128,-1,22
 31 91 31 91 55 91 c 0,23,24
 75 91 75 91 86 79.5 c 128,-1,25
 97 68 97 68 97 48 c 0,26,27
 97 20 97 20 83 -4.5 c 128,-1,28
 69 -29 69 -29 48.5 -49.5 c 128,-1,29
 28 -70 28 -70 7 -86 c 0,30,31
 4 -88 4 -88 -1 -86 c 0,12,13
EndSplineSet
EndChar

StartChar: less
Encoding: 60 60 30
Width: 450
GlyphClass: 1
Flags: W
LayerCount: 2
Fore
SplineSet
133 271 m 1,0,-1
 354 180 l 2,1,2
 384 168 384 168 395.5 148.5 c 128,-1,3
 407 129 407 129 407 99 c 2,4,-1
 407 94 l 2,5,6
 407 86 407 86 399 88 c 2,7,-1
 45 238 l 2,8,9
 37 239 37 239 37 251 c 2,10,-1
 37 290 l 2,11,12
 37 299 37 299 45 303 c 2,13,-1
 397 451 l 2,14,15
 407 454 407 454 407 445 c 2,16,-1
 407 396 l 2,17,18
 407 383 407 383 393 377 c 2,19,-1
 133 271 l 1,0,-1
EndSplineSet
EndChar

StartChar: equal
Encoding: 61 61 31
Width: 403
GlyphClass: 1
Flags: W
LayerCount: 2
Fore
SplineSet
45 325 m 2,0,1
 37 325 37 325 37 334 c 2,2,-1
 37 382 l 2,3,4
 37 391 37 391 45 391 c 2,5,-1
 315 391 l 2,6,7
 340 391 340 391 353 378 c 128,-1,8
 366 365 366 365 366 343 c 2,9,-1
 366 334 l 2,10,11
 366 325 366 325 358 325 c 2,12,-1
 45 325 l 2,0,1
45 148 m 2,13,14
 37 148 37 148 37 157 c 2,15,-1
 37 205 l 2,16,17
 37 214 37 214 45 214 c 2,18,-1
 315 214 l 2,19,20
 340 214 340 214 353 201 c 128,-1,21
 366 188 366 188 366 166 c 2,22,-1
 366 157 l 2,23,24
 366 148 366 148 358 148 c 2,25,-1
 45 148 l 2,13,14
EndSplineSet
EndChar

StartChar: greater
Encoding: 62 62 32
Width: 451
GlyphClass: 1
Flags: W
LayerCount: 2
Fore
SplineSet
319 271 m 1,0,-1
 58 377 l 2,1,2
 44 383 44 383 44 396 c 2,3,-1
 44 445 l 2,4,5
 44 455 44 455 54 451 c 2,6,-1
 407 303 l 2,7,8
 415 298 415 298 415 290 c 2,9,-1
 415 251 l 2,10,11
 415 240 415 240 407 238 c 2,12,-1
 53 88 l 2,13,14
 44 86 44 86 44 94 c 2,15,-1
 44 99 l 2,16,17
 44 129 44 129 55.5 148.5 c 128,-1,18
 67 168 67 168 97 180 c 2,19,-1
 319 271 l 1,0,-1
EndSplineSet
EndChar

StartChar: question
Encoding: 63 63 33
Width: 387
GlyphClass: 1
Flags: W
LayerCount: 2
Fore
SplineSet
130 154 m 2,0,-1
 137 192 l 2,1,2
 142 223 142 223 162 245 c 128,-1,3
 182 267 182 267 208 285.5 c 128,-1,4
 234 304 234 304 258.5 323 c 128,-1,5
 283 342 283 342 299.5 366.5 c 128,-1,6
 316 391 316 391 316 426 c 0,7,8
 316 497 316 497 229 497 c 0,9,10
 194 497 194 497 162 487.5 c 128,-1,11
 130 478 130 478 95 456 c 0,12,13
 85 451 85 451 81 451 c 0,14,15
 75 451 75 451 74 459 c 2,16,-1
 72 479 l 2,17,18
 70 500 70 500 79 514 c 128,-1,19
 88 528 88 528 115 539 c 0,20,21
 141 550 141 550 171.5 558.5 c 128,-1,22
 202 567 202 567 239 567 c 0,23,24
 310 567 310 567 350.5 533.5 c 128,-1,25
 391 500 391 500 391 441 c 0,26,27
 391 389 391 389 365.5 351 c 128,-1,28
 340 313 340 313 301.5 283.5 c 128,-1,29
 263 254 263 254 223 226 c 0,30,31
 201 209 201 209 197 183 c 2,32,-1
 192 154 l 2,33,34
 191 146 191 146 183 146 c 2,35,-1
 137 146 l 2,36,37
 127 146 127 146 130 154 c 2,0,-1
135 -10 m 0,38,39
 115 -10 115 -10 103.5 2.5 c 128,-1,40
 92 15 92 15 92 34 c 0,41,42
 92 56 92 56 108.5 73.5 c 128,-1,43
 125 91 125 91 147 91 c 0,44,45
 167 91 167 91 178 79 c 128,-1,46
 189 67 189 67 189 49 c 0,47,48
 189 27 189 27 174.5 8.5 c 128,-1,49
 160 -10 160 -10 135 -10 c 0,38,39
EndSplineSet
EndChar

StartChar: at
Encoding: 64 64 34
Width: 766
GlyphClass: 1
Flags: W
LayerCount: 2
Fore
SplineSet
495 103 m 1,0,1
 483 77 483 77 454 55.5 c 128,-1,2
 425 34 425 34 375 34 c 0,3,4
 326 34 326 34 284.5 60 c 128,-1,5
 243 86 243 86 218.5 131 c 128,-1,6
 194 176 194 176 194 231 c 0,7,8
 194 281 194 281 214 321 c 128,-1,9
 234 361 234 361 268.5 385 c 128,-1,10
 303 409 303 409 346 409 c 0,11,12
 386 409 386 409 418.5 394.5 c 128,-1,13
 451 380 451 380 470 352 c 1,14,15
 472 403 472 403 520 403 c 2,16,-1
 526 403 l 2,17,18
 534 403 534 403 534 393 c 2,19,-1
 554 154 l 2,20,21
 557 122 557 122 565 109 c 128,-1,22
 573 96 573 96 592 96 c 0,23,24
 624 96 624 96 640 126 c 128,-1,25
 656 156 656 156 656 211 c 0,26,27
 656 298 656 298 619 364.5 c 128,-1,28
 582 431 582 431 516.5 469 c 128,-1,29
 451 507 451 507 363 507 c 0,30,31
 279 507 279 507 222.5 473 c 128,-1,32
 166 439 166 439 138 380.5 c 128,-1,33
 110 322 110 322 110 246 c 0,34,35
 110 152 110 152 150 81 c 128,-1,36
 190 10 190 10 262 -29.5 c 128,-1,37
 334 -69 334 -69 429 -69 c 256,38,39
 524 -69 524 -69 577 -48 c 128,-1,40
 630 -27 630 -27 654 -7 c 0,41,42
 659 -3 659 -3 662 -0.5 c 128,-1,43
 665 2 665 2 669 2 c 0,44,45
 675 2 675 2 676.5 -4 c 128,-1,46
 678 -10 678 -10 678 -15 c 0,47,48
 678 -34 678 -34 649.5 -61.5 c 128,-1,49
 621 -89 621 -89 566 -110 c 128,-1,50
 511 -131 511 -131 429 -131 c 0,51,52
 342 -131 342 -131 270.5 -103 c 128,-1,53
 199 -75 199 -75 147 -23.5 c 128,-1,54
 95 28 95 28 66.5 98 c 128,-1,55
 38 168 38 168 38 252 c 0,56,57
 38 339 38 339 76 411 c 128,-1,58
 114 483 114 483 186 525.5 c 128,-1,59
 258 568 258 568 358 568 c 0,60,61
 438 568 438 568 504.5 542 c 128,-1,62
 571 516 571 516 619.5 469.5 c 128,-1,63
 668 423 668 423 695 359 c 128,-1,64
 722 295 722 295 722 219 c 0,65,66
 722 168 722 168 706.5 126 c 128,-1,67
 691 84 691 84 661 59.5 c 128,-1,68
 631 35 631 35 587 35 c 0,69,70
 549 35 549 35 525.5 56 c 128,-1,71
 502 77 502 77 495 103 c 1,0,1
377 101 m 0,72,73
 428 101 428 101 454 131 c 128,-1,74
 480 161 480 161 480 209 c 0,75,76
 480 244 480 244 467.5 274.5 c 128,-1,77
 455 305 455 305 428.5 324.5 c 128,-1,78
 402 344 402 344 358 344 c 0,79,80
 315 344 315 344 292 313 c 128,-1,81
 269 282 269 282 269 231 c 0,82,83
 269 173 269 173 298.5 137 c 128,-1,84
 328 101 328 101 377 101 c 0,72,73
EndSplineSet
EndChar

StartChar: A
Encoding: 65 65 35
Width: 495
GlyphClass: 1
Flags: W
LayerCount: 2
Fore
SplineSet
123 153 m 1,0,-1
 49 12 l 2,1,2
 44 0 44 0 33 0 c 2,3,-1
 -27 0 l 2,4,5
 -36 0 -36 0 -31 9 c 2,6,-1
 259 548 l 2,7,8
 265 556 265 556 272 556 c 2,9,-1
 291 556 l 2,10,11
 319 556 319 556 332.5 544.5 c 128,-1,12
 346 533 346 533 352 500 c 2,13,-1
 444 9 l 2,14,15
 446 0 446 0 436 0 c 2,16,-1
 381 0 l 2,17,18
 373 0 373 0 370.5 3 c 128,-1,19
 368 6 368 6 367 12 c 2,20,-1
 342 153 l 1,21,-1
 123 153 l 1,0,-1
159 221 m 1,22,-1
 330 221 l 1,23,-1
 287 463 l 1,24,-1
 159 221 l 1,22,-1
EndSplineSet
Substitution2: "Single Substitution lookup 2 subtable" ordfeminine
EndChar

StartChar: B
Encoding: 66 66 36
Width: 473
GlyphClass: 1
Flags: W
LayerCount: 2
Fore
SplineSet
26 9 m 1,0,-1
 120 547 l 2,1,2
 122 556 122 556 130 556 c 2,3,-1
 309 556 l 2,4,5
 376 556 376 556 414.5 524.5 c 128,-1,6
 453 493 453 493 453 438 c 0,7,8
 453 384 453 384 424.5 346 c 128,-1,9
 396 308 396 308 349 291 c 1,10,11
 389 280 389 280 410.5 251 c 128,-1,12
 432 222 432 222 432 176 c 0,13,14
 432 96 432 96 379 48 c 128,-1,15
 326 0 326 0 237 0 c 2,16,-1
 32 0 l 2,17,18
 26 0 26 0 26 4 c 2,19,-1
 26 9 l 1,0,-1
155 325 m 1,20,-1
 279 325 l 2,21,22
 324 325 324 325 351 350.5 c 128,-1,23
 378 376 378 376 378 419 c 0,24,25
 378 452 378 452 358 470 c 128,-1,26
 338 488 338 488 301 488 c 2,27,-1
 184 488 l 1,28,-1
 155 325 l 1,20,-1
109 68 m 1,29,-1
 233 68 l 2,30,31
 358 68 358 68 358 177 c 0,32,33
 358 215 358 215 333 236.5 c 128,-1,34
 308 258 308 258 267 258 c 2,35,-1
 143 258 l 1,36,-1
 109 68 l 1,29,-1
EndSplineSet
EndChar

StartChar: C
Encoding: 67 67 37
Width: 499
GlyphClass: 1
Flags: W
LayerCount: 2
Fore
SplineSet
258 -11 m 0,0,1
 163 -11 163 -11 108.5 50 c 128,-1,2
 54 111 54 111 54 222 c 0,3,4
 54 292 54 292 77.5 354.5 c 128,-1,5
 101 417 101 417 142.5 464.5 c 128,-1,6
 184 512 184 512 240 539.5 c 128,-1,7
 296 567 296 567 361 567 c 0,8,9
 401 567 401 567 430.5 558 c 128,-1,10
 460 549 460 549 485 538 c 0,11,12
 508 527 508 527 513.5 513 c 128,-1,13
 519 499 519 499 511 477 c 2,14,-1
 502 456 l 2,15,16
 499 446 499 446 491 446 c 0,17,18
 486 446 486 446 478 452 c 0,19,20
 453 472 453 472 422.5 483.5 c 128,-1,21
 392 495 392 495 351 495 c 0,22,23
 288 495 288 495 238 458.5 c 128,-1,24
 188 422 188 422 159.5 360.5 c 128,-1,25
 131 299 131 299 131 224 c 0,26,27
 131 145 131 145 165.5 103 c 128,-1,28
 200 61 200 61 272 61 c 0,29,30
 331 61 331 61 370 83 c 128,-1,31
 409 105 409 105 435 132 c 0,32,33
 445 142 445 142 452 142 c 0,34,35
 463 142 463 142 463 128 c 0,36,37
 463 113 463 113 450 90 c 128,-1,38
 437 67 437 67 411 43.5 c 128,-1,39
 385 20 385 20 347 4.5 c 128,-1,40
 309 -11 309 -11 258 -11 c 0,0,1
EndSplineSet
EndChar

StartChar: D
Encoding: 68 68 38
Width: 544
GlyphClass: 1
Flags: W
LayerCount: 2
Fore
SplineSet
33 0 m 2,0,1
 25 0 25 0 27 9 c 2,2,-1
 121 547 l 2,3,4
 123 556 123 556 131 556 c 2,5,-1
 282 556 l 2,6,7
 388 556 388 556 449 498 c 128,-1,8
 510 440 510 440 510 339 c 0,9,10
 510 242 510 242 473.5 165 c 128,-1,11
 437 88 437 88 367 44 c 128,-1,12
 297 0 297 0 195 0 c 2,13,-1
 33 0 l 2,0,1
111 71 m 1,14,-1
 205 71 l 2,15,16
 310 71 310 71 371 140.5 c 128,-1,17
 432 210 432 210 432 330 c 0,18,19
 432 485 432 485 265 485 c 2,20,-1
 184 485 l 1,21,-1
 111 71 l 1,14,-1
EndSplineSet
EndChar

StartChar: E
Encoding: 69 69 39
Width: 399
GlyphClass: 1
Flags: W
LayerCount: 2
Fore
SplineSet
112 71 m 1,0,-1
 303 71 l 2,1,2
 325 71 325 71 333.5 59 c 128,-1,3
 342 47 342 47 339 27 c 2,4,-1
 336 11 l 2,5,6
 333 0 333 0 323 0 c 2,7,-1
 33 0 l 2,8,9
 26 0 26 0 27 9 c 2,10,-1
 122 547 l 2,11,12
 124 556 124 556 131 556 c 2,13,-1
 380 556 l 2,14,15
 423 556 423 556 415 513 c 2,16,-1
 413 496 l 2,17,18
 411 485 411 485 400 485 c 2,19,-1
 185 485 l 1,20,-1
 154 312 l 1,21,-1
 318 312 l 2,22,23
 362 312 362 312 354 268 c 2,24,-1
 352 252 l 2,25,26
 349 242 349 242 339 242 c 2,27,-1
 142 242 l 1,28,-1
 112 71 l 1,0,-1
EndSplineSet
EndChar

StartChar: F
Encoding: 70 70 40
Width: 383
GlyphClass: 1
Flags: W
LayerCount: 2
Fore
SplineSet
140 239 m 1,0,-1
 100 9 l 2,1,2
 99 0 99 0 90 0 c 2,3,-1
 33 0 l 2,4,5
 26 0 26 0 27 9 c 2,6,-1
 121 547 l 2,7,8
 123 556 123 556 131 556 c 2,9,-1
 379 556 l 2,10,11
 423 556 423 556 415 513 c 2,12,-1
 412 496 l 2,13,14
 412 485 412 485 399 485 c 2,15,-1
 184 485 l 1,16,-1
 153 310 l 1,17,-1
 316 310 l 2,18,19
 360 310 360 310 352 266 c 2,20,-1
 349 251 l 2,21,22
 348 239 348 239 336 239 c 2,23,-1
 140 239 l 1,0,-1
EndSplineSet
EndChar

StartChar: G
Encoding: 71 71 41
Width: 552
GlyphClass: 1
Flags: W
LayerCount: 2
Fore
SplineSet
413 107 m 1,0,-1
 434 224 l 1,1,-1
 333 224 l 2,2,3
 312 224 312 224 303 236 c 128,-1,4
 294 248 294 248 297 268 c 2,5,-1
 298 284 l 2,6,7
 301 295 301 295 312 295 c 2,8,-1
 506 295 l 2,9,10
 515 295 515 295 515 285 c 2,11,-1
 482 106 l 2,12,13
 479 88 479 88 472.5 77.5 c 128,-1,14
 466 67 466 67 450 54 c 0,15,16
 413 23 413 23 367 6 c 128,-1,17
 321 -11 321 -11 263 -11 c 0,18,19
 166 -11 166 -11 110 50.5 c 128,-1,20
 54 112 54 112 54 219 c 0,21,22
 54 293 54 293 78 356.5 c 128,-1,23
 102 420 102 420 145 467 c 128,-1,24
 188 514 188 514 245.5 540.5 c 128,-1,25
 303 567 303 567 370 567 c 0,26,27
 413 567 413 567 443 559.5 c 128,-1,28
 473 552 473 552 498 539 c 0,29,30
 543 519 543 519 525 479 c 2,31,-1
 516 458 l 2,32,33
 512 448 512 448 506 448 c 0,34,35
 503 448 503 448 500 450 c 128,-1,36
 497 452 497 452 493 454 c 0,37,38
 466 474 466 474 432.5 484.5 c 128,-1,39
 399 495 399 495 360 495 c 0,40,41
 294 495 294 495 242.5 459 c 128,-1,42
 191 423 191 423 161.5 361 c 128,-1,43
 132 299 132 299 132 219 c 0,44,45
 132 147 132 147 165.5 104 c 128,-1,46
 199 61 199 61 269 61 c 0,47,48
 313 61 313 61 348 73 c 128,-1,49
 383 85 383 85 413 107 c 1,0,-1
EndSplineSet
EndChar

StartChar: H
Encoding: 72 72 42
Width: 514
GlyphClass: 1
Flags: W
LayerCount: 2
Fore
SplineSet
141 239 m 1,0,-1
 100 9 l 2,1,2
 99 0 99 0 90 0 c 2,3,-1
 33 0 l 2,4,5
 26 0 26 0 27 9 c 2,6,-1
 121 547 l 2,7,8
 123 556 123 556 131 556 c 2,9,-1
 138 556 l 2,10,11
 196 556 196 556 184 485 c 2,12,-1
 153 310 l 1,13,-1
 392 310 l 1,14,-1
 433 547 l 2,15,16
 435 556 435 556 443 556 c 2,17,-1
 450 556 l 2,18,19
 508 556 508 556 496 485 c 2,20,-1
 412 9 l 2,21,22
 412 0 412 0 403 0 c 2,23,-1
 345 0 l 2,24,25
 338 0 338 0 339 9 c 2,26,-1
 379 239 l 1,27,-1
 141 239 l 1,0,-1
EndSplineSet
EndChar

StartChar: I
Encoding: 73 73 43
Width: 202
GlyphClass: 1
Flags: W
LayerCount: 2
Fore
SplineSet
33 0 m 2,0,1
 26 0 26 0 27 9 c 2,2,-1
 122 547 l 2,3,4
 124 556 124 556 131 556 c 2,5,-1
 138 556 l 2,6,7
 166 556 166 556 178.5 538.5 c 128,-1,8
 191 521 191 521 184 485 c 2,9,-1
 100 9 l 2,10,11
 99 0 99 0 91 0 c 2,12,-1
 33 0 l 2,0,1
EndSplineSet
EndChar

StartChar: J
Encoding: 74 74 44
Width: 283
GlyphClass: 1
Flags: W
LayerCount: 2
Fore
SplineSet
-24 68 m 0,0,1
 -24 97 -24 97 -10 97 c 0,2,3
 -7 97 -7 97 -5 95 c 128,-1,4
 -3 93 -3 93 -1 91 c 0,5,6
 8 78 8 78 22 66 c 128,-1,7
 36 54 36 54 62 54 c 0,8,9
 91 54 91 54 107.5 71 c 128,-1,10
 124 88 124 88 129 117 c 2,11,-1
 205 547 l 2,12,13
 205 556 205 556 214 556 c 0,14,15
 240 556 240 556 254.5 546.5 c 128,-1,16
 269 537 269 537 269 508 c 0,17,18
 269 502 269 502 268.5 496.5 c 128,-1,19
 268 491 268 491 267 485 c 2,20,-1
 202 114 l 2,21,22
 192 61 192 61 159.5 25.5 c 128,-1,23
 127 -10 127 -10 65 -10 c 0,24,25
 27 -10 27 -10 1.5 12 c 128,-1,26
 -24 34 -24 34 -24 68 c 0,0,1
EndSplineSet
EndChar

StartChar: K
Encoding: 75 75 45
Width: 474
GlyphClass: 1
Flags: W
LayerCount: 2
Fore
SplineSet
130 178 m 1,0,-1
 100 9 l 2,1,2
 99 0 99 0 90 0 c 2,3,-1
 33 0 l 2,4,5
 26 0 26 0 27 9 c 2,6,-1
 121 547 l 2,7,8
 123 556 123 556 131 556 c 2,9,-1
 138 556 l 2,10,11
 196 556 196 556 184 485 c 2,12,-1
 148 282 l 1,13,-1
 403 544 l 2,14,15
 415 556 415 556 424 556 c 2,16,-1
 490 556 l 2,17,18
 494 556 494 556 493.5 553 c 128,-1,19
 493 550 493 550 491 547 c 2,20,-1
 284 332 l 1,21,-1
 424 10 l 2,22,23
 428 0 428 0 417 0 c 2,24,-1
 363 0 l 2,25,26
 350 0 350 0 346 11 c 2,27,-1
 228 277 l 1,28,-1
 130 178 l 1,0,-1
EndSplineSet
EndChar

StartChar: L
Encoding: 76 76 46
Width: 366
GlyphClass: 1
Flags: W
LayerCount: 2
Fore
SplineSet
111 71 m 1,0,-1
 273 71 l 2,1,2
 295 71 295 71 303.5 59 c 128,-1,3
 312 47 312 47 308 27 c 2,4,-1
 305 11 l 2,5,6
 303 0 303 0 293 0 c 2,7,-1
 33 0 l 2,8,9
 26 0 26 0 27 9 c 2,10,-1
 121 547 l 2,11,12
 123 556 123 556 131 556 c 2,13,-1
 138 556 l 2,14,15
 196 556 196 556 184 485 c 2,16,-1
 111 71 l 1,0,-1
EndSplineSet
EndChar

StartChar: M
Encoding: 77 77 47
Width: 612
GlyphClass: 1
Flags: W
LayerCount: 2
Fore
SplineSet
285 108 m 1,0,-1
 498 547 l 2,1,2
 503 556 503 556 511 556 c 2,3,-1
 542 556 l 2,4,5
 565 556 565 556 577.5 541 c 128,-1,6
 590 526 590 526 586 500 c 2,7,-1
 527 9 l 2,8,9
 526 0 526 0 518 0 c 2,10,-1
 459 0 l 2,11,12
 451 0 451 0 454 9 c 2,13,-1
 504 416 l 1,14,-1
 304 9 l 2,15,16
 300 0 300 0 290 0 c 2,17,-1
 236 0 l 2,18,19
 230 0 230 0 228 9 c 2,20,-1
 174 412 l 1,21,-1
 82 9 l 2,22,23
 81 0 81 0 74 0 c 2,24,-1
 13 0 l 2,25,26
 8 0 8 0 9 9 c 2,27,-1
 132 547 l 2,28,29
 136 556 136 556 141 556 c 2,30,-1
 173 556 l 2,31,32
 201 556 201 556 213.5 546 c 128,-1,33
 226 536 226 536 230 511 c 2,34,-1
 285 108 l 1,0,-1
EndSplineSet
EndChar

StartChar: N
Encoding: 78 78 48
Width: 516
GlyphClass: 1
Flags: W
LayerCount: 2
Fore
SplineSet
365 138 m 1,0,-1
 437 547 l 2,1,2
 439 556 439 556 446 556 c 2,3,-1
 452 556 l 2,4,5
 511 556 511 556 498 485 c 2,6,-1
 414 9 l 2,7,8
 413 0 413 0 405 0 c 2,9,-1
 357 0 l 2,10,11
 343 0 343 0 338 13 c 2,12,-1
 171 412 l 1,13,-1
 100 9 l 2,14,15
 99 0 99 0 91 0 c 2,16,-1
 33 0 l 2,17,18
 26 0 26 0 27 9 c 2,19,-1
 122 547 l 2,20,21
 124 556 124 556 131 556 c 2,22,-1
 148 556 l 2,23,24
 176 556 176 556 187 545 c 128,-1,25
 198 534 198 534 208 511 c 2,26,-1
 365 138 l 1,0,-1
EndSplineSet
EndChar

StartChar: O
Encoding: 79 79 49
Width: 592
GlyphClass: 1
Flags: W
LayerCount: 2
Fore
SplineSet
54 219 m 0,0,1
 54 290 54 290 78.5 353 c 128,-1,2
 103 416 103 416 145 464 c 128,-1,3
 187 512 187 512 242 539.5 c 128,-1,4
 297 567 297 567 357 567 c 0,5,6
 449 567 449 567 503 508 c 128,-1,7
 557 449 557 449 557 347 c 0,8,9
 557 279 557 279 536.5 215 c 128,-1,10
 516 151 516 151 477.5 100.5 c 128,-1,11
 439 50 439 50 384 20 c 128,-1,12
 329 -10 329 -10 259 -10 c 0,13,14
 164 -10 164 -10 109.5 50 c 128,-1,15
 55 110 55 110 54 219 c 0,0,1
131 219 m 0,16,17
 132 143 132 143 165.5 102.5 c 128,-1,18
 199 62 199 62 263 62 c 256,19,20
 327 62 327 62 375.5 99 c 128,-1,21
 424 136 424 136 452 200.5 c 128,-1,22
 480 265 480 265 480 347 c 0,23,24
 480 419 480 419 445.5 457 c 128,-1,25
 411 495 411 495 346 495 c 0,26,27
 289 495 289 495 240 458 c 128,-1,28
 191 421 191 421 161 358.5 c 128,-1,29
 131 296 131 296 131 219 c 0,16,17
EndSplineSet
Substitution2: "Single Substitution lookup 2 subtable" ordmasculine
EndChar

StartChar: P
Encoding: 80 80 50
Width: 475
GlyphClass: 1
Flags: W
LayerCount: 2
Fore
SplineSet
133 203 m 1,0,-1
 99 9 l 2,1,2
 98 0 98 0 89 0 c 2,3,-1
 32 0 l 2,4,5
 26 0 26 0 26 4 c 2,6,-1
 26 9 l 1,7,-1
 120 547 l 2,8,9
 122 556 122 556 130 556 c 2,10,-1
 310 556 l 2,11,12
 380 556 380 556 427.5 518 c 128,-1,13
 475 480 475 480 475 407 c 0,14,15
 475 345 475 345 448 299 c 128,-1,16
 421 253 421 253 372.5 228 c 128,-1,17
 324 203 324 203 259 203 c 2,18,-1
 133 203 l 1,0,-1
145 273 m 1,19,-1
 267 273 l 2,20,21
 328 273 328 273 363.5 305.5 c 128,-1,22
 399 338 399 338 399 398 c 0,23,24
 399 439 399 439 374 462 c 128,-1,25
 349 485 349 485 308 485 c 2,26,-1
 183 485 l 1,27,-1
 145 273 l 1,19,-1
EndSplineSet
EndChar

StartChar: Q
Encoding: 81 81 51
Width: 591
GlyphClass: 1
Flags: W
LayerCount: 2
Fore
SplineSet
219 -7 m 1,0,1
 142 5 142 5 98 63 c 128,-1,2
 54 121 54 121 54 219 c 0,3,4
 54 290 54 290 78 353 c 128,-1,5
 102 416 102 416 144.5 464 c 128,-1,6
 187 512 187 512 241.5 539.5 c 128,-1,7
 296 567 296 567 356 567 c 0,8,9
 449 567 449 567 503 508 c 128,-1,10
 557 449 557 449 557 347 c 0,11,12
 557 286 557 286 540 227 c 128,-1,13
 523 168 523 168 491 119.5 c 128,-1,14
 459 71 459 71 413 38 c 128,-1,15
 367 5 367 5 308 -6 c 1,16,17
 326 -45 326 -45 371 -45 c 0,18,19
 405 -45 405 -45 427.5 -31 c 128,-1,20
 450 -17 450 -17 462 -7 c 0,21,22
 468 -2 468 -2 473 -2 c 0,23,24
 480 -2 480 -2 481 -7 c 128,-1,25
 482 -12 482 -12 482 -17 c 0,26,27
 482 -41 482 -41 462 -62.5 c 128,-1,28
 442 -84 442 -84 411 -97.5 c 128,-1,29
 380 -111 380 -111 346 -111 c 0,30,31
 294 -111 294 -111 261.5 -83.5 c 128,-1,32
 229 -56 229 -56 219 -7 c 1,0,1
263 62 m 256,33,34
 327 62 327 62 375.5 99 c 128,-1,35
 424 136 424 136 452 200.5 c 128,-1,36
 480 265 480 265 480 347 c 0,37,38
 480 419 480 419 445.5 457 c 128,-1,39
 411 495 411 495 346 495 c 0,40,41
 289 495 289 495 240 458 c 128,-1,42
 191 421 191 421 161.5 358.5 c 128,-1,43
 132 296 132 296 132 219 c 0,44,45
 132 143 132 143 165.5 102.5 c 128,-1,46
 199 62 199 62 263 62 c 256,33,34
EndSplineSet
EndChar

StartChar: R
Encoding: 82 82 52
Width: 484
GlyphClass: 1
Flags: W
LayerCount: 2
Fore
SplineSet
133 203 m 1,0,-1
 99 9 l 2,1,2
 98 0 98 0 89 0 c 2,3,-1
 32 0 l 2,4,5
 26 0 26 0 26 4 c 2,6,-1
 26 9 l 1,7,-1
 120 547 l 2,8,9
 122 556 122 556 130 556 c 2,10,-1
 313 556 l 2,11,12
 390 556 390 556 432.5 513.5 c 128,-1,13
 475 471 475 471 475 403 c 0,14,15
 475 332 475 332 437.5 282 c 128,-1,16
 400 232 400 232 332 212 c 1,17,-1
 409 6 l 2,18,19
 411 0 411 0 404 0 c 2,20,-1
 347 0 l 2,21,22
 334 0 334 0 330 11 c 2,23,-1
 258 203 l 1,24,-1
 133 203 l 1,0,-1
145 273 m 1,25,-1
 267 273 l 2,26,27
 327 273 327 273 363.5 304.5 c 128,-1,28
 400 336 400 336 400 397 c 0,29,30
 400 436 400 436 376.5 460.5 c 128,-1,31
 353 485 353 485 309 485 c 2,32,-1
 183 485 l 1,33,-1
 145 273 l 1,25,-1
EndSplineSet
EndChar

StartChar: S
Encoding: 83 83 53
Width: 431
GlyphClass: 1
Flags: W
LayerCount: 2
Fore
SplineSet
2 121 m 0,0,1
 0 154 0 154 19 154 c 0,2,3
 26 154 26 154 30 147 c 0,4,5
 53 110 53 110 88 84.5 c 128,-1,6
 123 59 123 59 183 59 c 0,7,8
 250 59 250 59 284 88.5 c 128,-1,9
 318 118 318 118 318 163 c 0,10,11
 318 189 318 189 300 205.5 c 128,-1,12
 282 222 282 222 253 235 c 128,-1,13
 224 248 224 248 192 260.5 c 128,-1,14
 160 273 160 273 131 289.5 c 128,-1,15
 102 306 102 306 84 331 c 128,-1,16
 66 356 66 356 66 394 c 0,17,18
 66 446 66 446 93 485 c 128,-1,19
 120 524 120 524 167.5 545.5 c 128,-1,20
 215 567 215 567 275 567 c 0,21,22
 314 567 314 567 346 558.5 c 128,-1,23
 378 550 378 550 403 538 c 0,24,25
 424 528 424 528 430.5 514 c 128,-1,26
 437 500 437 500 429 477 c 2,27,-1
 423 459 l 2,28,29
 418 449 418 449 413 449 c 256,30,31
 408 449 408 449 400 455 c 0,32,33
 373 475 373 475 338.5 486.5 c 128,-1,34
 304 498 304 498 264 498 c 0,35,36
 212 498 212 498 177 472.5 c 128,-1,37
 142 447 142 447 142 411 c 0,38,39
 142 384 142 384 160.5 366 c 128,-1,40
 179 348 179 348 207.5 334.5 c 128,-1,41
 236 321 236 321 268.5 308 c 128,-1,42
 301 295 301 295 329.5 279 c 128,-1,43
 358 263 358 263 376.5 240 c 128,-1,44
 395 217 395 217 395 182 c 0,45,46
 395 97 395 97 338 43 c 128,-1,47
 281 -11 281 -11 180 -11 c 0,48,49
 120 -11 120 -11 80.5 11 c 128,-1,50
 41 33 41 33 21.5 63.5 c 128,-1,51
 2 94 2 94 2 121 c 0,0,1
EndSplineSet
EndChar

StartChar: T
Encoding: 84 84 54
Width: 413
GlyphClass: 1
Flags: W
LayerCount: 2
Fore
SplineSet
220 485 m 1,0,-1
 72 485 l 2,1,2
 66 485 66 485 67 494 c 2,3,-1
 76 547 l 2,4,5
 78 556 78 556 85 556 c 2,6,-1
 418 556 l 2,7,8
 461 556 461 556 455 513 c 2,9,-1
 452 496 l 2,10,11
 449 485 449 485 439 485 c 2,12,-1
 294 485 l 1,13,-1
 210 9 l 2,14,15
 209 0 209 0 200 0 c 2,16,-1
 144 0 l 2,17,18
 134 0 134 0 137 9 c 2,19,-1
 220 485 l 1,0,-1
EndSplineSet
EndChar

StartChar: U
Encoding: 85 85 55
Width: 517
GlyphClass: 1
Flags: W
LayerCount: 2
Fore
SplineSet
249 -10 m 0,0,1
 188 -10 188 -10 147 19.5 c 128,-1,2
 106 49 106 49 89 101.5 c 128,-1,3
 72 154 72 154 84 223 c 2,4,-1
 141 547 l 2,5,6
 143 556 143 556 151 556 c 2,7,-1
 157 556 l 2,8,9
 216 556 216 556 204 485 c 2,10,-1
 157 221 l 2,11,12
 144 145 144 145 169.5 103 c 128,-1,13
 195 61 195 61 254 61 c 256,14,15
 313 61 313 61 348 97.5 c 128,-1,16
 383 134 383 134 397 213 c 2,17,-1
 456 547 l 2,18,19
 458 556 458 556 465 556 c 2,20,-1
 472 556 l 2,21,22
 530 556 530 556 518 485 c 2,23,-1
 468 201 l 2,24,25
 450 101 450 101 393.5 45.5 c 128,-1,26
 337 -10 337 -10 249 -10 c 0,0,1
EndSplineSet
EndChar

StartChar: V
Encoding: 86 86 56
Width: 467
GlyphClass: 1
Flags: W
LayerCount: 2
Fore
SplineSet
216 89 m 1,0,-1
 438 544 l 2,1,2
 443 556 443 556 458 556 c 2,3,-1
 513 556 l 2,4,5
 517 556 517 556 518.5 553.5 c 128,-1,6
 520 551 520 551 517 547 c 2,7,-1
 246 9 l 2,8,9
 241 0 241 0 234 0 c 2,10,-1
 168 0 l 2,11,12
 160 0 160 0 158 9 c 2,13,-1
 76 546 l 2,14,15
 74 556 74 556 83 556 c 2,16,-1
 106 556 l 2,17,18
 129 556 129 556 142 546 c 128,-1,19
 155 536 155 536 159 503 c 2,20,-1
 216 89 l 1,0,-1
EndSplineSet
EndChar

StartChar: W
Encoding: 87 87 57
Width: 731
GlyphClass: 1
Flags: W
LayerCount: 2
Fore
SplineSet
193 99 m 1,0,-1
 384 544 l 2,1,2
 390 556 390 556 402 556 c 2,3,-1
 421 556 l 2,4,5
 444 556 444 556 455.5 546 c 128,-1,6
 467 536 467 536 470 503 c 2,7,-1
 509 99 l 1,8,-1
 691 544 l 2,9,10
 697 556 697 556 710 556 c 2,11,-1
 765 556 l 2,12,13
 772 556 772 556 769 547 c 2,14,-1
 537 9 l 2,15,16
 533 0 533 0 525 0 c 2,17,-1
 463 0 l 2,18,19
 454 0 454 0 454 9 c 2,20,-1
 410 454 l 1,21,-1
 213 9 l 2,22,23
 210 0 210 0 201 0 c 2,24,-1
 139 0 l 2,25,26
 129 0 129 0 129 9 c 2,27,-1
 92 546 l 2,28,29
 92 556 92 556 101 556 c 2,30,-1
 115 556 l 2,31,32
 138 556 138 556 152 546 c 128,-1,33
 166 536 166 536 168 503 c 2,34,-1
 193 99 l 1,0,-1
EndSplineSet
EndChar

StartChar: X
Encoding: 88 88 58
Width: 460
GlyphClass: 1
Flags: W
LayerCount: 2
Fore
SplineSet
230 236 m 1,0,-1
 53 12 l 2,1,2
 44 0 44 0 35 0 c 2,3,-1
 -25 0 l 2,4,5
 -34 0 -34 0 -27 9 c 2,6,-1
 201 301 l 1,7,-1
 89 546 l 2,8,9
 88 548 88 548 90 552 c 128,-1,10
 92 556 92 556 96 556 c 2,11,-1
 119 556 l 2,12,13
 144 556 144 556 155.5 547.5 c 128,-1,14
 167 539 167 539 180 510 c 2,15,-1
 254 345 l 1,16,-1
 408 544 l 2,17,18
 419 556 419 556 429 556 c 2,19,-1
 487 556 l 2,20,21
 490 556 490 556 491 553.5 c 128,-1,22
 492 551 492 551 488 547 c 2,23,-1
 286 282 l 1,24,-1
 410 9 l 2,25,26
 414 0 414 0 403 0 c 2,27,-1
 350 0 l 2,28,29
 338 0 338 0 332 12 c 2,30,-1
 230 236 l 1,0,-1
EndSplineSet
EndChar

StartChar: Y
Encoding: 89 89 59
Width: 432
GlyphClass: 1
Flags: W
LayerCount: 2
Fore
SplineSet
185 213 m 1,0,-1
 67 547 l 2,1,2
 65 556 65 556 75 556 c 2,3,-1
 95 556 l 2,4,5
 121 556 121 556 134.5 544.5 c 128,-1,6
 148 533 148 533 158 506 c 2,7,-1
 234 286 l 1,8,-1
 411 544 l 2,9,10
 419 556 419 556 430 556 c 2,11,-1
 487 556 l 2,12,13
 497 556 497 556 490 544 c 2,14,-1
 257 213 l 1,15,-1
 221 9 l 2,16,17
 220 0 220 0 212 0 c 2,18,-1
 155 0 l 2,19,20
 148 0 148 0 149 9 c 2,21,-1
 185 213 l 1,0,-1
EndSplineSet
EndChar

StartChar: Z
Encoding: 90 90 60
Width: 432
GlyphClass: 1
Flags: W
LayerCount: 2
Fore
SplineSet
94 71 m 1,0,-1
 331 71 l 2,1,2
 353 71 353 71 361.5 59 c 128,-1,3
 370 47 370 47 366 27 c 2,4,-1
 364 11 l 2,5,6
 361 0 361 0 351 0 c 2,7,-1
 0 0 l 2,8,9
 -7 0 -7 0 -6 9 c 2,10,-1
 1 51 l 2,11,12
 3 62 3 62 7.5 69.5 c 128,-1,13
 12 77 12 77 21 88 c 2,14,-1
 364 485 l 1,15,-1
 92 485 l 2,16,17
 85 485 85 485 86 494 c 2,18,-1
 96 547 l 2,19,20
 98 556 98 556 105 556 c 2,21,-1
 404 556 l 2,22,23
 428 556 428 556 441.5 545 c 128,-1,24
 455 534 455 534 450 505 c 2,25,-1
 447 492 l 2,26,27
 446 482 446 482 441.5 474 c 128,-1,28
 437 466 437 466 427 455 c 2,29,-1
 94 71 l 1,0,-1
EndSplineSet
EndChar

StartChar: bracketleft
Encoding: 91 91 61
Width: 356
GlyphClass: 1
Flags: W
LayerCount: 2
Fore
SplineSet
316 -144 m 2,0,-1
 210 -144 l 2,1,2
 181 -144 181 -144 160.5 -127 c 128,-1,3
 140 -110 140 -110 135 -82 c 2,4,-1
 9 633 l 2,5,6
 4 662 4 662 18.5 679 c 128,-1,7
 33 696 33 696 61 696 c 2,8,-1
 168 696 l 2,9,10
 181 696 181 696 183 683 c 2,11,-1
 184 678 l 2,12,13
 188 656 188 656 176.5 644 c 128,-1,14
 165 632 165 632 141 632 c 2,15,-1
 95 632 l 2,16,17
 77 632 77 632 81 614 c 2,18,-1
 200 -62 l 2,19,20
 204 -80 204 -80 221 -80 c 2,21,-1
 267 -80 l 2,22,23
 291 -80 291 -80 306.5 -92.5 c 128,-1,24
 322 -105 322 -105 326 -126 c 2,25,-1
 327 -131 l 2,26,27
 329 -144 329 -144 316 -144 c 2,0,-1
EndSplineSet
EndChar

StartChar: backslash
Encoding: 92 92 62
Width: 254
GlyphClass: 1
Flags: W
LayerCount: 2
Fore
SplineSet
243 9 m 2,0,-1
 -78 547 l 2,1,2
 -82 556 -82 556 -74 556 c 2,3,-1
 -59 556 l 2,4,5
 -27 556 -27 556 -9.5 543 c 128,-1,6
 8 530 8 530 25 502 c 2,7,-1
 321 9 l 2,8,9
 325 0 325 0 317 0 c 2,10,-1
 258 0 l 2,11,12
 248 0 248 0 243 9 c 2,0,-1
EndSplineSet
EndChar

StartChar: bracketright
Encoding: 93 93 63
Width: 319
GlyphClass: 1
Flags: W
LayerCount: 2
Fore
SplineSet
261 -144 m 2,0,-1
 155 -144 l 2,1,2
 142 -144 142 -144 140 -131 c 2,3,-1
 138 -126 l 1,4,5
 134 -105 134 -105 146 -92.5 c 128,-1,6
 158 -80 158 -80 181 -80 c 2,7,-1
 227 -80 l 2,8,9
 244 -80 244 -80 242 -62 c 2,10,-1
 122 614 l 2,11,12
 120 632 120 632 102 632 c 2,13,-1
 56 632 l 2,14,15
 7 632 7 632 -3 678 c 2,16,-1
 -4 683 l 2,17,18
 -7 696 -7 696 7 696 c 2,19,-1
 113 696 l 2,20,21
 142 696 142 696 163 679 c 128,-1,22
 184 662 184 662 188 633 c 2,23,-1
 315 -82 l 2,24,25
 320 -110 320 -110 305 -127 c 128,-1,26
 290 -144 290 -144 261 -144 c 2,0,-1
EndSplineSet
PairPos2: "'kern' Horizontal Kerning lookup 4 per glyph data 1" uni0698 dx=-33 dy=0 dh=-33 dv=0 dx=0 dy=0 dh=0 dv=0
PairPos2: "'kern' Horizontal Kerning lookup 4 per glyph data 1" uni0694 dx=-33 dy=0 dh=-33 dv=0 dx=0 dy=0 dh=0 dv=0
PairPos2: "'kern' Horizontal Kerning lookup 4 per glyph data 1" uni0691 dx=-33 dy=0 dh=-33 dv=0 dx=0 dy=0 dh=0 dv=0
PairPos2: "'kern' Horizontal Kerning lookup 4 per glyph data 1" uni0671 dx=44 dy=0 dh=44 dv=0 dx=0 dy=0 dh=0 dv=0
PairPos2: "'kern' Horizontal Kerning lookup 4 per glyph data 1" uni0632 dx=-33 dy=0 dh=-33 dv=0 dx=0 dy=0 dh=0 dv=0
PairPos2: "'kern' Horizontal Kerning lookup 4 per glyph data 1" uni0631 dx=-33 dy=0 dh=-33 dv=0 dx=0 dy=0 dh=0 dv=0
PairPos2: "'kern' Horizontal Kerning lookup 4 per glyph data 1" uni0625 dx=17 dy=0 dh=17 dv=0 dx=0 dy=0 dh=0 dv=0
PairPos2: "'kern' Horizontal Kerning lookup 4 per glyph data 1" uni0623 dx=39 dy=0 dh=39 dv=0 dx=0 dy=0 dh=0 dv=0
PairPos2: "'kern' Horizontal Kerning lookup 4 per glyph data 1" uni0622 dx=44 dy=0 dh=44 dv=0 dx=0 dy=0 dh=0 dv=0
EndChar

StartChar: asciicircum
Encoding: 94 94 64
Width: 407
GlyphClass: 1
Flags: W
LayerCount: 2
Fore
SplineSet
205 477 m 1,0,-1
 102 282 l 2,1,2
 97 271 97 271 84 271 c 2,3,-1
 34 271 l 2,4,5
 30 271 30 271 28.5 274 c 128,-1,6
 27 277 27 277 28 279 c 2,7,-1
 169 544 l 2,8,9
 174 556 174 556 188 556 c 0,10,11
 211 556 211 556 227.5 546 c 128,-1,12
 244 536 244 536 257 512 c 2,13,-1
 382 279 l 2,14,15
 384 277 384 277 381.5 274 c 128,-1,16
 379 271 379 271 375 271 c 2,17,-1
 325 271 l 2,18,19
 313 271 313 271 307 282 c 2,20,-1
 205 477 l 1,0,-1
EndSplineSet
EndChar

StartChar: underscore
Encoding: 95 95 65
Width: 418
GlyphClass: 1
Flags: W
LayerCount: 2
Fore
SplineSet
-78 -188 m 2,0,1
 -86 -188 -86 -188 -85 -180 c 2,2,-1
 -76 -131 l 2,3,4
 -74 -122 -74 -122 -67 -122 c 2,5,-1
 351 -122 l 2,6,7
 359 -122 359 -122 357 -131 c 2,8,-1
 348 -180 l 2,9,10
 347 -188 347 -188 340 -188 c 2,11,-1
 -78 -188 l 2,0,1
EndSplineSet
EndChar

StartChar: grave
Encoding: 96 96 66
Width: 154
GlyphClass: 1
Flags: W
LayerCount: 2
Fore
SplineSet
154 439 m 2,0,1
 157 437 157 437 155.5 434 c 128,-1,2
 154 431 154 431 149 431 c 2,3,-1
 98 431 l 2,4,5
 81 431 81 431 72 441 c 2,6,-1
 4 507 l 2,7,8
 2 509 2 509 4 512.5 c 128,-1,9
 6 516 6 516 10 516 c 2,10,-1
 73 516 l 2,11,12
 81 516 81 516 85.5 513.5 c 128,-1,13
 90 511 90 511 95 506 c 2,14,-1
 154 439 l 2,0,1
EndSplineSet
EndChar

StartChar: a
Encoding: 97 97 67
Width: 449
GlyphClass: 1
Flags: W
LayerCount: 2
Fore
SplineSet
294 52 m 1,0,1
 268 21 268 21 234.5 6 c 128,-1,2
 201 -9 201 -9 165 -9 c 0,3,4
 104 -9 104 -9 66 34.5 c 128,-1,5
 28 78 28 78 28 148 c 0,6,7
 28 213 28 213 56.5 264.5 c 128,-1,8
 85 316 85 316 132.5 346.5 c 128,-1,9
 180 377 180 377 235 377 c 0,10,11
 276 377 276 377 304 361 c 128,-1,12
 332 345 332 345 345 319 c 1,13,14
 354 345 354 345 370.5 356.5 c 128,-1,15
 387 368 387 368 409 368 c 2,16,-1
 414 368 l 2,17,18
 421 368 421 368 420 360 c 2,19,-1
 359 9 l 2,20,21
 358 0 358 0 349 0 c 2,22,-1
 293 0 l 2,23,24
 285 0 285 0 286 9 c 2,25,-1
 294 52 l 1,0,1
103 152 m 0,26,27
 103 110 103 110 123.5 84.5 c 128,-1,28
 144 59 144 59 184 59 c 0,29,30
 230 59 230 59 260 82.5 c 128,-1,31
 290 106 290 106 305 142.5 c 128,-1,32
 320 179 320 179 320 218 c 0,33,34
 320 259 320 259 298.5 283.5 c 128,-1,35
 277 308 277 308 235 308 c 256,36,37
 193 308 193 308 163.5 284.5 c 128,-1,38
 134 261 134 261 118.5 225 c 128,-1,39
 103 189 103 189 103 152 c 0,26,27
EndSplineSet
Substitution2: "Single Substitution lookup 2 subtable" ordfeminine
EndChar

StartChar: b
Encoding: 98 98 68
Width: 450
GlyphClass: 1
Flags: W
LayerCount: 2
Fore
SplineSet
94 49 m 1,0,-1
 87 9 l 2,1,2
 86 0 86 0 77 0 c 2,3,-1
 20 0 l 2,4,5
 13 0 13 0 14 9 c 2,6,-1
 109 547 l 2,7,8
 111 556 111 556 119 556 c 2,9,-1
 124 556 l 2,10,11
 182 556 182 556 170 487 c 2,12,-1
 140 316 l 1,13,14
 164 344 164 344 195.5 360.5 c 128,-1,15
 227 377 227 377 269 377 c 0,16,17
 332 377 332 377 369.5 336.5 c 128,-1,18
 407 296 407 296 407 232 c 0,19,20
 407 164 407 164 380.5 109.5 c 128,-1,21
 354 55 354 55 309 23 c 128,-1,22
 264 -9 264 -9 208 -9 c 0,23,24
 171 -9 171 -9 139.5 5.5 c 128,-1,25
 108 20 108 20 94 49 c 1,0,-1
202 59 m 0,26,27
 239 59 239 59 268.5 80 c 128,-1,28
 298 101 298 101 315 136.5 c 128,-1,29
 332 172 332 172 332 214 c 0,30,31
 332 308 332 308 247 308 c 0,32,33
 189 308 189 308 152 263.5 c 128,-1,34
 115 219 115 219 115 151 c 0,35,36
 115 111 115 111 139 85 c 128,-1,37
 163 59 163 59 202 59 c 0,26,27
EndSplineSet
EndChar

StartChar: c
Encoding: 99 99 69
Width: 355
GlyphClass: 1
Flags: W
LayerCount: 2
Fore
SplineSet
169 -10 m 0,0,1
 100 -10 100 -10 63.5 34.5 c 128,-1,2
 27 79 27 79 27 147 c 0,3,4
 27 208 27 208 54.5 260 c 128,-1,5
 82 312 82 312 132 344.5 c 128,-1,6
 182 377 182 377 247 377 c 0,7,8
 288 377 288 377 321 362 c 0,9,10
 355 347 355 347 338 307 c 2,11,-1
 330 289 l 2,12,13
 327 281 327 281 323 281 c 0,14,15
 320 281 320 281 315 284 c 0,16,17
 296 296 296 296 277.5 302 c 128,-1,18
 259 308 259 308 233 308 c 0,19,20
 196 308 196 308 166.5 287.5 c 128,-1,21
 137 267 137 267 120 231.5 c 128,-1,22
 103 196 103 196 103 151 c 0,23,24
 103 107 103 107 123.5 80.5 c 128,-1,25
 144 54 144 54 190 54 c 0,26,27
 248 54 248 54 288 91 c 0,28,29
 293 96 293 96 296.5 98.5 c 128,-1,30
 300 101 300 101 304 101 c 0,31,32
 313 101 313 101 313 91 c 0,33,34
 313 70 313 70 295.5 46.5 c 128,-1,35
 278 23 278 23 246 6.5 c 128,-1,36
 214 -10 214 -10 169 -10 c 0,0,1
EndSplineSet
EndChar

StartChar: d
Encoding: 100 100 70
Width: 446
GlyphClass: 1
Flags: W
LayerCount: 2
Fore
SplineSet
340 318 m 1,0,-1
 380 547 l 2,1,2
 382 556 382 556 390 556 c 2,3,-1
 395 556 l 2,4,5
 422 556 422 556 435 539 c 128,-1,6
 448 522 448 522 441 487 c 2,7,-1
 358 9 l 2,8,9
 357 0 357 0 348 0 c 2,10,-1
 291 0 l 2,11,12
 285 0 285 0 285 9 c 2,13,-1
 293 52 l 1,14,15
 268 21 268 21 235 6 c 128,-1,16
 202 -9 202 -9 163 -9 c 0,17,18
 102 -9 102 -9 64.5 33.5 c 128,-1,19
 27 76 27 76 27 148 c 0,20,21
 27 211 27 211 55.5 263 c 128,-1,22
 84 315 84 315 131 346 c 128,-1,23
 178 377 178 377 235 377 c 0,24,25
 279 377 279 377 305 359 c 128,-1,26
 331 341 331 341 340 318 c 1,0,-1
183 59 m 0,27,28
 227 59 227 59 257.5 82.5 c 128,-1,29
 288 106 288 106 303.5 142.5 c 128,-1,30
 319 179 319 179 319 217 c 0,31,32
 319 260 319 260 297.5 284 c 128,-1,33
 276 308 276 308 235 308 c 0,34,35
 199 308 199 308 169 287 c 128,-1,36
 139 266 139 266 121 231.5 c 128,-1,37
 103 197 103 197 103 154 c 0,38,39
 103 108 103 108 124.5 83.5 c 128,-1,40
 146 59 146 59 183 59 c 0,27,28
EndSplineSet
EndChar

StartChar: e
Encoding: 101 101 71
Width: 403
GlyphClass: 1
Flags: W
LayerCount: 2
Fore
SplineSet
99 159 m 1,0,1
 95 106 95 106 122 80 c 128,-1,2
 149 54 149 54 198 54 c 0,3,4
 239 54 239 54 265.5 66 c 128,-1,5
 292 78 292 78 315 93 c 0,6,7
 319 96 319 96 323 98.5 c 128,-1,8
 327 101 327 101 330 101 c 0,9,10
 338 101 338 101 338 92 c 0,11,12
 338 69 338 69 317.5 45.5 c 128,-1,13
 297 22 297 22 261.5 6.5 c 128,-1,14
 226 -9 226 -9 180 -9 c 0,15,16
 113 -9 113 -9 70 32 c 128,-1,17
 27 73 27 73 28 154 c 0,18,19
 29 219 29 219 57.5 269.5 c 128,-1,20
 86 320 86 320 133.5 348.5 c 128,-1,21
 181 377 181 377 237 377 c 0,22,23
 299 377 299 377 333.5 341.5 c 128,-1,24
 368 306 368 306 368 249 c 0,25,26
 367 227 367 227 364 209.5 c 128,-1,27
 361 192 361 192 355 171 c 0,28,29
 352 159 352 159 339 159 c 2,30,-1
 99 159 l 1,0,1
110 214 m 1,31,-1
 294 214 l 1,32,33
 296 222 296 222 296.5 228.5 c 128,-1,34
 297 235 297 235 298 239 c 0,35,36
 298 313 298 313 225 313 c 0,37,38
 182 313 182 313 152.5 287 c 128,-1,39
 123 261 123 261 110 214 c 1,31,-1
EndSplineSet
EndChar

StartChar: f
Encoding: 102 102 72
Width: 279
GlyphClass: 1
Flags: W
LayerCount: 2
Fore
SplineSet
95 302 m 1,0,-1
 36 302 l 2,1,2
 30 302 30 302 31 310 c 2,3,-1
 39 360 l 2,4,5
 42 368 42 368 48 368 c 2,6,-1
 107 368 l 1,7,-1
 119 442 l 2,8,9
 130 504 130 504 162.5 533 c 128,-1,10
 195 562 195 562 237 562 c 0,11,12
 269 562 269 562 289 542 c 128,-1,13
 309 522 309 522 310 490 c 0,14,15
 311 488 311 488 308.5 479.5 c 128,-1,16
 306 471 306 471 298 471 c 0,17,18
 293 471 293 471 287 477 c 0,19,20
 266 498 266 498 243 498 c 0,21,22
 224 498 224 498 210.5 484 c 128,-1,23
 197 470 197 470 192 438 c 2,24,-1
 179 368 l 1,25,-1
 267 368 l 2,26,27
 273 368 273 368 272 360 c 2,28,-1
 263 310 l 2,29,30
 262 302 262 302 255 302 c 2,31,-1
 168 302 l 1,32,-1
 116 9 l 2,33,34
 115 0 115 0 107 0 c 2,35,-1
 49 0 l 2,36,37
 42 0 42 0 43 9 c 2,38,-1
 95 302 l 1,0,-1
EndSplineSet
EndChar

StartChar: g
Encoding: 103 103 73
Width: 446
GlyphClass: 1
Flags: W
LayerCount: 2
Fore
SplineSet
291 54 m 1,0,1
 269 26 269 26 236.5 10 c 128,-1,2
 204 -6 204 -6 162 -6 c 0,3,4
 93 -6 93 -6 59 37.5 c 128,-1,5
 25 81 25 81 25 146 c 256,6,7
 25 211 25 211 54.5 263.5 c 128,-1,8
 84 316 84 316 132.5 346.5 c 128,-1,9
 181 377 181 377 238 377 c 0,10,11
 274 377 274 377 301.5 361.5 c 128,-1,12
 329 346 329 346 343 319 c 1,13,14
 351 345 351 345 367 356.5 c 128,-1,15
 383 368 383 368 405 368 c 2,16,-1
 410 368 l 2,17,18
 418 368 418 368 417 360 c 2,19,-1
 355 12 l 2,20,21
 340 -76 340 -76 288.5 -123.5 c 128,-1,22
 237 -171 237 -171 148 -171 c 0,23,24
 101 -171 101 -171 68.5 -156 c 128,-1,25
 36 -141 36 -141 19 -118 c 128,-1,26
 2 -95 2 -95 2 -72 c 0,27,28
 2 -64 2 -64 5.5 -54.5 c 128,-1,29
 9 -45 9 -45 16 -45 c 0,30,31
 21 -45 21 -45 28 -52 c 0,32,33
 48 -71 48 -71 72 -86 c 128,-1,34
 96 -101 96 -101 142 -101 c 0,35,36
 207 -101 207 -101 240 -69.5 c 128,-1,37
 273 -38 273 -38 284 20 c 2,38,-1
 291 54 l 1,0,1
181 59 m 0,39,40
 220 59 220 59 250.5 79 c 128,-1,41
 281 99 281 99 299 134 c 128,-1,42
 317 169 317 169 317 213 c 0,43,44
 317 266 317 266 292 287 c 128,-1,45
 267 308 267 308 231 308 c 256,46,47
 195 308 195 308 165.5 287 c 128,-1,48
 136 266 136 266 118 231 c 128,-1,49
 100 196 100 196 100 153 c 0,50,51
 100 59 100 59 181 59 c 0,39,40
EndSplineSet
EndChar

StartChar: h
Encoding: 104 104 74
Width: 433
GlyphClass: 1
Flags: W
LayerCount: 2
Fore
SplineSet
141 323 m 1,0,1
 161 346 161 346 192.5 361.5 c 128,-1,2
 224 377 224 377 266 377 c 0,3,4
 320 377 320 377 351 343.5 c 128,-1,5
 382 310 382 310 382 261 c 0,6,7
 382 250 382 250 381 238 c 128,-1,8
 380 226 380 226 378 216 c 2,9,-1
 342 9 l 2,10,11
 341 0 341 0 332 0 c 2,12,-1
 276 0 l 2,13,14
 269 0 269 0 270 9 c 2,15,-1
 304 204 l 2,16,17
 305 212 305 212 306 221.5 c 128,-1,18
 307 231 307 231 307 238 c 0,19,20
 307 310 307 310 236 310 c 0,21,22
 193 310 193 310 162 282.5 c 128,-1,23
 131 255 131 255 120 199 c 2,24,-1
 87 9 l 2,25,26
 86 0 86 0 77 0 c 2,27,-1
 20 0 l 2,28,29
 13 0 13 0 14 9 c 2,30,-1
 109 547 l 2,31,32
 111 556 111 556 119 556 c 2,33,-1
 124 556 l 2,34,35
 182 556 182 556 170 487 c 2,36,-1
 141 323 l 1,0,1
EndSplineSet
EndChar

StartChar: i
Encoding: 105 105 75
Width: 176
GlyphClass: 1
Flags: W
LayerCount: 2
Fore
SplineSet
81 460 m 0,0,1
 81 483 81 483 97 498 c 128,-1,2
 113 513 113 513 132 513 c 0,3,4
 149 513 149 513 160 503 c 128,-1,5
 171 493 171 493 171 476 c 0,6,7
 170 454 170 454 155 438 c 128,-1,8
 140 422 140 422 118 422 c 0,9,10
 102 422 102 422 91.5 432.5 c 128,-1,11
 81 443 81 443 81 460 c 0,0,1
20 0 m 2,12,13
 13 0 13 0 14 9 c 2,14,-1
 76 360 l 2,15,16
 77 368 77 368 85 368 c 2,17,-1
 90 368 l 2,18,19
 118 368 118 368 131 351 c 128,-1,20
 144 334 144 334 137 299 c 2,21,-1
 86 9 l 2,22,23
 85 0 85 0 77 0 c 2,24,-1
 20 0 l 2,12,13
EndSplineSet
EndChar

StartChar: j
Encoding: 106 106 76
Width: 163
GlyphClass: 1
Flags: W
LayerCount: 2
Fore
SplineSet
104 422 m 0,0,1
 88 422 88 422 78 432.5 c 128,-1,2
 68 443 68 443 68 460 c 0,3,4
 68 483 68 483 83.5 498 c 128,-1,5
 99 513 99 513 118 513 c 0,6,7
 136 513 136 513 146.5 503 c 128,-1,8
 157 493 157 493 157 476 c 0,9,10
 157 454 157 454 141.5 438 c 128,-1,11
 126 422 126 422 104 422 c 0,0,1
-125 -101 m 0,12,13
 -125 -96 -125 -96 -123 -87 c 128,-1,14
 -121 -78 -121 -78 -114 -78 c 0,15,16
 -109 -78 -109 -78 -106 -82 c 0,17,18
 -95 -91 -95 -91 -85 -98.5 c 128,-1,19
 -75 -106 -75 -106 -59 -106 c 0,20,21
 -35 -106 -35 -106 -24.5 -89.5 c 128,-1,22
 -14 -73 -14 -73 -8 -42 c 2,23,-1
 63 360 l 2,24,25
 63 368 63 368 72 368 c 2,26,-1
 77 368 l 2,27,28
 136 368 136 368 124 299 c 2,29,-1
 63 -48 l 2,30,31
 42 -171 42 -171 -49 -171 c 0,32,33
 -77 -171 -77 -171 -94 -159.5 c 128,-1,34
 -111 -148 -111 -148 -118 -131.5 c 128,-1,35
 -125 -115 -125 -115 -125 -101 c 0,12,13
EndSplineSet
EndChar

StartChar: k
Encoding: 107 107 77
Width: 366
GlyphClass: 1
Flags: W
LayerCount: 2
Fore
SplineSet
109 135 m 1,0,-1
 87 9 l 2,1,2
 86 0 86 0 77 0 c 2,3,-1
 20 0 l 2,4,5
 13 0 13 0 14 9 c 2,6,-1
 109 547 l 2,7,8
 111 556 111 556 119 556 c 2,9,-1
 124 556 l 2,10,11
 182 556 182 556 170 487 c 2,12,-1
 125 229 l 1,13,-1
 269 358 l 2,14,15
 277 365 277 365 281 366.5 c 128,-1,16
 285 368 285 368 292 368 c 2,17,-1
 358 368 l 2,18,19
 363 368 363 368 363 365 c 128,-1,20
 363 362 363 362 361 360 c 2,21,-1
 220 234 l 1,22,-1
 315 9 l 2,23,24
 317 0 317 0 309 0 c 2,25,-1
 254 0 l 2,26,27
 241 0 241 0 237 11 c 2,28,-1
 165 185 l 1,29,-1
 109 135 l 1,0,-1
EndSplineSet
EndChar

StartChar: l
Encoding: 108 108 78
Width: 231
GlyphClass: 1
Flags: W
LayerCount: 2
Fore
SplineSet
28 74 m 0,0,1
 28 83 28 83 30 94 c 128,-1,2
 32 105 32 105 34 117 c 2,3,-1
 109 547 l 2,4,5
 111 556 111 556 119 556 c 2,6,-1
 124 556 l 2,7,8
 183 556 183 556 171 487 c 2,9,-1
 105 111 l 2,10,11
 104 107 104 107 103 102 c 128,-1,12
 102 97 102 97 102 93 c 0,13,14
 102 59 102 59 136 59 c 0,15,16
 150 59 150 59 160.5 65.5 c 128,-1,17
 171 72 171 72 184 83 c 0,18,19
 189 89 189 89 195 89 c 0,20,21
 202 89 202 89 202 81 c 0,22,23
 201 47 201 47 174.5 19 c 128,-1,24
 148 -9 148 -9 105 -9 c 0,25,26
 71 -9 71 -9 50 12 c 128,-1,27
 29 33 29 33 28 74 c 0,0,1
EndSplineSet
EndChar

StartChar: m
Encoding: 109 109 79
Width: 679
GlyphClass: 1
Flags: W
LayerCount: 2
Fore
SplineSet
139 319 m 1,0,1
 158 342 158 342 188 359 c 128,-1,2
 218 376 218 376 257 376 c 0,3,4
 301 376 301 376 328.5 356.5 c 128,-1,5
 356 337 356 337 366 305 c 1,6,7
 390 334 390 334 424 355 c 128,-1,8
 458 376 458 376 506 376 c 0,9,10
 565 376 565 376 596 343.5 c 128,-1,11
 627 311 627 311 627 257 c 0,12,13
 627 247 627 247 626 236.5 c 128,-1,14
 625 226 625 226 624 216 c 2,15,-1
 587 9 l 2,16,17
 586 0 586 0 577 0 c 2,18,-1
 521 0 l 2,19,20
 514 0 514 0 515 9 c 2,21,-1
 549 203 l 2,22,23
 551 211 551 211 552 221 c 128,-1,24
 553 231 553 231 553 238 c 0,25,26
 553 309 553 309 484 309 c 0,27,28
 441 309 441 309 410.5 281.5 c 128,-1,29
 380 254 380 254 370 199 c 2,30,-1
 337 9 l 2,31,32
 336 0 336 0 328 0 c 2,33,-1
 270 0 l 2,34,35
 264 0 264 0 265 9 c 2,36,-1
 299 203 l 2,37,38
 300 211 300 211 301 220.5 c 128,-1,39
 302 230 302 230 302 237 c 0,40,41
 302 271 302 271 284 290 c 128,-1,42
 266 309 266 309 232 309 c 0,43,44
 189 309 189 309 159 281.5 c 128,-1,45
 129 254 129 254 120 199 c 2,46,-1
 87 9 l 2,47,48
 86 0 86 0 77 0 c 2,49,-1
 20 0 l 2,50,51
 13 0 13 0 14 9 c 2,52,-1
 76 360 l 2,53,54
 77 368 77 368 85 368 c 2,55,-1
 90 368 l 2,56,57
 136 368 136 368 139 319 c 1,0,1
EndSplineSet
EndChar

StartChar: n
Encoding: 110 110 80
Width: 432
GlyphClass: 1
Flags: W
LayerCount: 2
Fore
SplineSet
138 318 m 1,0,1
 158 341 158 341 190.5 359 c 128,-1,2
 223 377 223 377 265 377 c 0,3,4
 319 377 319 377 350 343.5 c 128,-1,5
 381 310 381 310 381 261 c 0,6,7
 381 250 381 250 380 238 c 128,-1,8
 379 226 379 226 377 216 c 2,9,-1
 341 9 l 2,10,11
 340 0 340 0 331 0 c 2,12,-1
 275 0 l 2,13,14
 266 0 266 0 269 9 c 2,15,-1
 302 204 l 2,16,17
 304 212 304 212 305 221.5 c 128,-1,18
 306 231 306 231 306 238 c 0,19,20
 306 310 306 310 235 310 c 0,21,22
 192 310 192 310 160.5 282.5 c 128,-1,23
 129 255 129 255 119 199 c 2,24,-1
 86 9 l 2,25,26
 86 0 86 0 77 0 c 2,27,-1
 20 0 l 2,28,29
 13 0 13 0 14 9 c 2,30,-1
 76 360 l 2,31,32
 77 368 77 368 85 368 c 2,33,-1
 90 368 l 2,34,35
 138 368 138 368 138 318 c 1,0,1
EndSplineSet
EndChar

StartChar: o
Encoding: 111 111 81
Width: 440
GlyphClass: 1
Flags: W
LayerCount: 2
Fore
SplineSet
28 158 m 0,0,1
 28 220 28 220 57.5 269.5 c 128,-1,2
 87 319 87 319 136.5 348 c 128,-1,3
 186 377 186 377 244 377 c 0,4,5
 314 377 314 377 354.5 334 c 128,-1,6
 395 291 395 291 395 222 c 0,7,8
 395 160 395 160 369.5 107 c 128,-1,9
 344 54 344 54 295.5 22.5 c 128,-1,10
 247 -9 247 -9 179 -9 c 256,11,12
 111 -9 111 -9 69.5 36.5 c 128,-1,13
 28 82 28 82 28 158 c 0,0,1
103 156 m 0,14,15
 103 112 103 112 125 85.5 c 128,-1,16
 147 59 147 59 189 59 c 256,17,18
 231 59 231 59 260.5 82 c 128,-1,19
 290 105 290 105 305 140.5 c 128,-1,20
 320 176 320 176 320 214 c 0,21,22
 319 258 319 258 297 283 c 128,-1,23
 275 308 275 308 232 308 c 0,24,25
 191 308 191 308 162 285 c 128,-1,26
 133 262 133 262 118 227 c 128,-1,27
 103 192 103 192 103 156 c 0,14,15
EndSplineSet
Substitution2: "Single Substitution lookup 2 subtable" ordmasculine
EndChar

StartChar: p
Encoding: 112 112 82
Width: 447
GlyphClass: 1
Flags: W
LayerCount: 2
Fore
SplineSet
91 49 m 1,0,-1
 55 -151 l 2,1,2
 55 -160 55 -160 46 -160 c 2,3,-1
 -10 -160 l 2,4,5
 -18 -160 -18 -160 -17 -151 c 2,6,-1
 74 360 l 2,7,8
 74 368 74 368 83 368 c 2,9,-1
 88 368 l 2,10,11
 114 368 114 368 124 352.5 c 128,-1,12
 134 337 134 337 135 316 c 1,13,14
 157 342 157 342 190.5 359.5 c 128,-1,15
 224 377 224 377 264 377 c 0,16,17
 327 377 327 377 365.5 336.5 c 128,-1,18
 404 296 404 296 404 228 c 0,19,20
 404 161 404 161 378 107 c 128,-1,21
 352 53 352 53 307 22 c 128,-1,22
 262 -9 262 -9 205 -9 c 0,23,24
 124 -9 124 -9 91 49 c 1,0,-1
201 59 m 0,25,26
 239 59 239 59 268 80 c 128,-1,27
 297 101 297 101 313.5 136.5 c 128,-1,28
 330 172 330 172 330 213 c 0,29,30
 330 308 330 308 240 308 c 0,31,32
 204 308 204 308 175 288 c 128,-1,33
 146 268 146 268 129 234.5 c 128,-1,34
 112 201 112 201 112 159 c 0,35,36
 112 113 112 113 135 86 c 128,-1,37
 158 59 158 59 201 59 c 0,25,26
EndSplineSet
EndChar

StartChar: q
Encoding: 113 113 83
Width: 448
GlyphClass: 1
Flags: W
LayerCount: 2
Fore
SplineSet
293 52 m 1,0,1
 244 -9 244 -9 170 -9 c 0,2,3
 106 -9 106 -9 66.5 31.5 c 128,-1,4
 27 72 27 72 27 151 c 0,5,6
 27 214 27 214 56 265.5 c 128,-1,7
 85 317 85 317 133.5 347 c 128,-1,8
 182 377 182 377 239 377 c 0,9,10
 315 377 315 377 345 319 c 1,11,12
 353 345 353 345 369.5 356.5 c 128,-1,13
 386 368 386 368 408 368 c 2,14,-1
 413 368 l 2,15,16
 421 368 421 368 420 360 c 2,17,-1
 329 -151 l 2,18,19
 328 -160 328 -160 320 -160 c 2,20,-1
 264 -160 l 2,21,22
 256 -160 256 -160 257 -151 c 2,23,-1
 293 52 l 1,0,1
188 59 m 0,24,25
 246 59 246 59 282.5 104 c 128,-1,26
 319 149 319 149 319 217 c 0,27,28
 319 258 319 258 297 283 c 128,-1,29
 275 308 275 308 232 308 c 0,30,31
 195 308 195 308 166 287.5 c 128,-1,32
 137 267 137 267 120 232.5 c 128,-1,33
 103 198 103 198 103 155 c 0,34,35
 103 111 103 111 123.5 85 c 128,-1,36
 144 59 144 59 188 59 c 0,24,25
EndSplineSet
EndChar

StartChar: r
Encoding: 114 114 84
Width: 271
GlyphClass: 1
Flags: W
LayerCount: 2
Fore
SplineSet
139 315 m 1,0,1
 162 346 162 346 188 357 c 128,-1,2
 214 368 214 368 252 368 c 2,3,-1
 262 368 l 2,4,5
 270 368 270 368 269 360 c 2,6,-1
 259 305 l 2,7,8
 256 296 256 296 251 296 c 2,9,-1
 227 296 l 2,10,11
 176 296 176 296 152 269 c 128,-1,12
 128 242 128 242 117 184 c 2,13,-1
 87 9 l 2,14,15
 86 0 86 0 77 0 c 2,16,-1
 20 0 l 2,17,18
 13 0 13 0 14 9 c 2,19,-1
 76 360 l 2,20,21
 77 368 77 368 85 368 c 2,22,-1
 90 368 l 2,23,24
 113 368 113 368 126.5 354.5 c 128,-1,25
 140 341 140 341 139 315 c 1,0,1
EndSplineSet
EndChar

StartChar: s
Encoding: 115 115 85
Width: 307
GlyphClass: 1
Flags: W
LayerCount: 2
Fore
SplineSet
261 288 m 0,0,1
 240 301 240 301 220 308 c 128,-1,2
 200 315 200 315 175 315 c 0,3,4
 144 315 144 315 125.5 302 c 128,-1,5
 107 289 107 289 107 268 c 0,6,7
 107 252 107 252 123 241 c 128,-1,8
 139 230 139 230 163 221 c 128,-1,9
 187 212 187 212 211 200.5 c 128,-1,10
 235 189 235 189 251 171 c 128,-1,11
 267 153 267 153 267 125 c 0,12,13
 267 68 267 68 228.5 28.5 c 128,-1,14
 190 -11 190 -11 118 -11 c 0,15,16
 58 -11 58 -11 26.5 18 c 128,-1,17
 -5 47 -5 47 -5 78 c 0,18,19
 -6 85 -6 85 -3.5 95.5 c 128,-1,20
 -1 106 -1 106 9 106 c 0,21,22
 12 106 12 106 14 104 c 128,-1,23
 16 102 16 102 17 101 c 0,24,25
 32 82 32 82 54.5 66.5 c 128,-1,26
 77 51 77 51 117 51 c 0,27,28
 153 51 153 51 174 66.5 c 128,-1,29
 195 82 195 82 193 107 c 0,30,31
 193 125 193 125 177 136 c 128,-1,32
 161 147 161 147 137.5 156.5 c 128,-1,33
 114 166 114 166 90 177.5 c 128,-1,34
 66 189 66 189 50 207.5 c 128,-1,35
 34 226 34 226 34 257 c 0,36,37
 33 310 33 310 75 343.5 c 128,-1,38
 117 377 117 377 180 377 c 0,39,40
 204 377 204 377 227 372 c 128,-1,41
 250 367 250 367 266 359 c 0,42,43
 284 350 284 350 287.5 338 c 128,-1,44
 291 326 291 326 282 304 c 2,45,-1
 277 292 l 2,46,47
 274 285 274 285 269 285 c 0,48,49
 267 285 267 285 265 286 c 128,-1,50
 263 287 263 287 261 288 c 0,0,1
EndSplineSet
EndChar

StartChar: t
Encoding: 116 116 86
Width: 271
GlyphClass: 1
Flags: W
LayerCount: 2
Fore
SplineSet
106 302 m 1,0,-1
 40 302 l 2,1,2
 33 302 33 302 34 310 c 2,3,-1
 43 360 l 2,4,5
 44 368 44 368 51 368 c 2,6,-1
 116 368 l 1,7,-1
 139 492 l 2,8,9
 141 501 141 501 149 501 c 2,10,-1
 153 501 l 2,11,12
 213 501 213 501 201 431 c 2,13,-1
 189 368 l 1,14,-1
 264 368 l 2,15,16
 271 368 271 368 270 360 c 2,17,-1
 261 310 l 2,18,19
 260 302 260 302 252 302 c 2,20,-1
 178 302 l 1,21,-1
 126 9 l 2,22,23
 125 0 125 0 116 0 c 2,24,-1
 60 0 l 2,25,26
 53 0 53 0 54 9 c 2,27,-1
 106 302 l 1,0,-1
EndSplineSet
EndChar

StartChar: u
Encoding: 117 117 87
Width: 419
GlyphClass: 1
Flags: W
LayerCount: 2
Fore
SplineSet
37 131 m 0,0,1
 37 143 37 143 38.5 156 c 128,-1,2
 40 169 40 169 42 182 c 2,3,-1
 73 360 l 2,4,5
 74 368 74 368 83 368 c 2,6,-1
 87 368 l 2,7,8
 116 368 116 368 129 351 c 128,-1,9
 142 334 142 334 136 299 c 2,10,-1
 113 168 l 2,11,12
 112 160 112 160 110.5 151 c 128,-1,13
 109 142 109 142 109 133 c 0,14,15
 109 57 109 57 182 57 c 0,16,17
 225 57 225 57 250.5 84 c 128,-1,18
 276 111 276 111 285 161 c 2,19,-1
 320 360 l 2,20,21
 321 368 321 368 329 368 c 2,22,-1
 334 368 l 2,23,24
 394 368 394 368 382 299 c 2,25,-1
 358 161 l 2,26,27
 343 80 343 80 297 35 c 128,-1,28
 251 -10 251 -10 180 -10 c 0,29,30
 113 -10 113 -10 75.5 27 c 128,-1,31
 38 64 38 64 37 131 c 0,0,1
EndSplineSet
EndChar

StartChar: v
Encoding: 118 118 88
Width: 353
GlyphClass: 1
Flags: W
LayerCount: 2
Fore
SplineSet
151 82 m 1,0,-1
 285 357 l 2,1,2
 291 368 291 368 302 368 c 2,3,-1
 359 368 l 2,4,5
 367 368 367 368 363 360 c 2,6,-1
 179 8 l 2,7,8
 175 0 175 0 169 0 c 2,9,-1
 104 0 l 2,10,11
 97 0 97 0 94 8 c 2,12,-1
 41 360 l 2,13,14
 39 368 39 368 46 368 c 2,15,-1
 62 368 l 2,16,17
 91 368 91 368 104.5 355.5 c 128,-1,18
 118 343 118 343 122 306 c 2,19,-1
 151 82 l 1,0,-1
EndSplineSet
EndChar

StartChar: w
Encoding: 119 119 89
Width: 559
GlyphClass: 1
Flags: W
LayerCount: 2
Fore
SplineSet
138 96 m 1,0,-1
 266 359 l 2,1,2
 270 368 270 368 280 368 c 2,3,-1
 290 368 l 2,4,5
 319 368 319 368 331.5 355 c 128,-1,6
 344 342 344 342 348 306 c 2,7,-1
 369 96 l 1,8,-1
 493 357 l 2,9,10
 497 368 497 368 510 368 c 2,11,-1
 558 368 l 2,12,13
 568 368 568 368 563 360 c 2,14,-1
 391 8 l 2,15,16
 388 0 388 0 379 0 c 2,17,-1
 325 0 l 2,18,19
 317 0 317 0 315 8 c 2,20,-1
 286 269 l 1,21,-1
 156 8 l 2,22,23
 153 0 153 0 145 0 c 2,24,-1
 91 0 l 2,25,26
 82 0 82 0 80 8 c 2,27,-1
 42 360 l 2,28,29
 42 368 42 368 49 368 c 2,30,-1
 59 368 l 2,31,32
 88 368 88 368 102.5 355 c 128,-1,33
 117 342 117 342 120 306 c 2,34,-1
 138 96 l 1,0,-1
EndSplineSet
EndChar

StartChar: x
Encoding: 120 120 90
Width: 349
GlyphClass: 1
Flags: W
LayerCount: 2
Fore
SplineSet
153 140 m 1,0,-1
 50 11 l 2,1,2
 40 0 40 0 31 0 c 2,3,-1
 -26 0 l 2,4,5
 -29 0 -29 0 -29.5 3 c 128,-1,6
 -30 6 -30 6 -27 9 c 2,7,-1
 126 198 l 1,8,-1
 50 360 l 2,9,10
 44 368 44 368 55 368 c 2,11,-1
 75 368 l 2,12,13
 104 368 104 368 116.5 356.5 c 128,-1,14
 129 345 129 345 144 313 c 2,15,-1
 177 244 l 1,16,-1
 265 357 l 2,17,18
 273 368 273 368 287 368 c 2,19,-1
 338 368 l 2,20,21
 342 368 342 368 343 365.5 c 128,-1,22
 344 363 344 363 342 360 c 2,23,-1
 206 187 l 1,24,-1
 289 9 l 2,25,26
 291 6 291 6 288.5 3 c 128,-1,27
 286 0 286 0 283 0 c 2,28,-1
 231 0 l 2,29,30
 219 0 219 0 215 11 c 2,31,-1
 153 140 l 1,0,-1
EndSplineSet
EndChar

StartChar: y
Encoding: 121 121 91
Width: 341
GlyphClass: 1
Flags: W
LayerCount: 2
Fore
SplineSet
84 -7 m 1,0,-1
 27 360 l 2,1,2
 27 368 27 368 34 368 c 2,3,-1
 47 368 l 2,4,5
 77 368 77 368 90.5 355 c 128,-1,6
 104 342 104 342 108 306 c 2,7,-1
 138 84 l 1,8,-1
 275 357 l 2,9,10
 281 368 281 368 293 368 c 2,11,-1
 346 368 l 2,12,13
 353 368 353 368 349 360 c 2,14,-1
 155 -9 l 2,15,16
 129 -58 129 -58 106 -94.5 c 128,-1,17
 83 -131 83 -131 57 -151 c 128,-1,18
 31 -171 31 -171 -6 -171 c 0,19,20
 -40 -171 -40 -171 -59.5 -150 c 128,-1,21
 -79 -129 -79 -129 -78 -99 c 0,22,23
 -79 -94 -79 -94 -76 -85 c 128,-1,24
 -73 -76 -73 -76 -65 -76 c 0,25,26
 -59 -76 -59 -76 -56 -81 c 0,27,28
 -45 -94 -45 -94 -35 -100 c 128,-1,29
 -25 -106 -25 -106 -11 -106 c 0,30,31
 15 -106 15 -106 34 -85.5 c 128,-1,32
 53 -65 53 -65 84 -7 c 1,0,-1
EndSplineSet
EndChar

StartChar: z
Encoding: 122 122 92
Width: 327
GlyphClass: 1
Flags: W
LayerCount: 2
Fore
SplineSet
92 66 m 1,0,-1
 259 66 l 2,1,2
 268 66 268 66 265 57 c 2,3,-1
 257 9 l 2,4,5
 256 0 256 0 248 0 c 2,6,-1
 -2 0 l 2,7,8
 -9 0 -9 0 -8 9 c 2,9,-1
 -2 46 l 2,10,11
 0 55 0 55 3.5 60.5 c 128,-1,12
 7 66 7 66 16 76 c 2,13,-1
 230 302 l 1,14,-1
 56 302 l 2,15,16
 49 302 49 302 50 310 c 2,17,-1
 59 360 l 2,18,19
 60 368 60 368 68 368 c 2,20,-1
 268 368 l 2,21,22
 297 368 297 368 306.5 356 c 128,-1,23
 316 344 316 344 310 313 c 0,24,25
 309 300 309 300 304 292 c 128,-1,26
 299 284 299 284 290 276 c 2,27,-1
 92 66 l 1,0,-1
EndSplineSet
EndChar

StartChar: braceleft
Encoding: 123 123 93
Width: 399
GlyphClass: 1
Flags: W
LayerCount: 2
Fore
SplineSet
359 -144 m 2,0,-1
 253 -144 l 2,1,2
 224 -144 224 -144 203 -127 c 128,-1,3
 182 -110 182 -110 177 -82 c 2,4,-1
 128 196 l 2,5,6
 124 224 124 224 109.5 234 c 128,-1,7
 95 244 95 244 81 245 c 0,8,9
 69 247 69 247 67 258 c 2,10,-1
 60 294 l 2,11,12
 58 305 58 305 70 307 c 0,13,14
 83 309 83 309 94 319 c 128,-1,15
 105 329 105 329 100 357 c 2,16,-1
 52 633 l 2,17,18
 47 662 47 662 61.5 679 c 128,-1,19
 76 696 76 696 105 696 c 2,20,-1
 211 696 l 2,21,22
 225 696 225 696 227 683 c 2,23,-1
 227 678 l 1,24,25
 233 632 233 632 184 632 c 2,26,-1
 138 632 l 2,27,28
 122 632 122 632 124 614 c 2,29,-1
 171 352 l 2,30,31
 176 319 176 319 169.5 302 c 128,-1,32
 163 285 163 285 154 276 c 1,33,34
 167 267 167 267 179 250 c 128,-1,35
 191 233 191 233 197 199 c 2,36,-1
 243 -62 l 2,37,38
 247 -80 247 -80 264 -80 c 2,39,-1
 310 -80 l 2,40,41
 333 -80 333 -80 350 -92.5 c 128,-1,42
 367 -105 367 -105 369 -126 c 2,43,-1
 370 -131 l 2,44,45
 372 -144 372 -144 359 -144 c 2,0,-1
EndSplineSet
EndChar

StartChar: bar
Encoding: 124 124 94
Width: 190
GlyphClass: 1
Flags: W
LayerCount: 2
Fore
SplineSet
70 -149 m 2,0,1
 62 -149 62 -149 62 -140 c 2,2,-1
 62 558 l 2,3,4
 62 567 62 567 70 567 c 0,5,6
 97 567 97 567 113 550 c 128,-1,7
 129 533 129 533 129 498 c 2,8,-1
 129 -140 l 2,9,10
 129 -149 129 -149 120 -149 c 2,11,-1
 70 -149 l 2,0,1
EndSplineSet
EndChar

StartChar: braceright
Encoding: 125 125 95
Width: 356
GlyphClass: 1
Flags: W
LayerCount: 2
Fore
SplineSet
261 -144 m 2,0,-1
 155 -144 l 2,1,2
 142 -144 142 -144 140 -131 c 2,3,-1
 138 -126 l 1,4,5
 134 -105 134 -105 146 -92.5 c 128,-1,6
 158 -80 158 -80 181 -80 c 2,7,-1
 227 -80 l 2,8,9
 244 -80 244 -80 242 -62 c 2,10,-1
 196 199 l 2,11,12
 190 233 190 233 196.5 250 c 128,-1,13
 203 267 203 267 211 276 c 1,14,15
 199 285 199 285 186.5 302 c 128,-1,16
 174 319 174 319 168 352 c 2,17,-1
 122 614 l 2,18,19
 120 632 120 632 102 632 c 2,20,-1
 56 632 l 2,21,22
 7 632 7 632 -3 678 c 2,23,-1
 -4 683 l 2,24,25
 -7 696 -7 696 7 696 c 2,26,-1
 113 696 l 2,27,28
 142 696 142 696 163 679 c 128,-1,29
 184 662 184 662 188 633 c 2,30,-1
 237 357 l 2,31,32
 242 329 242 329 257 319 c 128,-1,33
 272 309 272 309 285 307 c 0,34,35
 297 305 297 305 300 294 c 2,36,-1
 306 258 l 2,37,38
 308 247 308 247 296 245 c 0,39,40
 283 244 283 244 272 234 c 128,-1,41
 261 224 261 224 266 196 c 2,42,-1
 315 -82 l 2,43,44
 320 -110 320 -110 305 -127 c 128,-1,45
 290 -144 290 -144 261 -144 c 2,0,-1
EndSplineSet
PairPos2: "'kern' Horizontal Kerning lookup 4 per glyph data 1" uni0698 dx=-33 dy=0 dh=-33 dv=0 dx=0 dy=0 dh=0 dv=0
PairPos2: "'kern' Horizontal Kerning lookup 4 per glyph data 1" uni0694 dx=-33 dy=0 dh=-33 dv=0 dx=0 dy=0 dh=0 dv=0
PairPos2: "'kern' Horizontal Kerning lookup 4 per glyph data 1" uni0691 dx=-33 dy=0 dh=-33 dv=0 dx=0 dy=0 dh=0 dv=0
PairPos2: "'kern' Horizontal Kerning lookup 4 per glyph data 1" uni0671 dx=44 dy=0 dh=44 dv=0 dx=0 dy=0 dh=0 dv=0
PairPos2: "'kern' Horizontal Kerning lookup 4 per glyph data 1" uni0632 dx=-33 dy=0 dh=-33 dv=0 dx=0 dy=0 dh=0 dv=0
PairPos2: "'kern' Horizontal Kerning lookup 4 per glyph data 1" uni0631 dx=-33 dy=0 dh=-33 dv=0 dx=0 dy=0 dh=0 dv=0
PairPos2: "'kern' Horizontal Kerning lookup 4 per glyph data 1" uni0625 dx=17 dy=0 dh=17 dv=0 dx=0 dy=0 dh=0 dv=0
PairPos2: "'kern' Horizontal Kerning lookup 4 per glyph data 1" uni0623 dx=39 dy=0 dh=39 dv=0 dx=0 dy=0 dh=0 dv=0
PairPos2: "'kern' Horizontal Kerning lookup 4 per glyph data 1" uni0622 dx=44 dy=0 dh=44 dv=0 dx=0 dy=0 dh=0 dv=0
EndChar

StartChar: asciitilde
Encoding: 126 126 96
Width: 398
GlyphClass: 1
Flags: W
LayerCount: 2
Fore
SplineSet
347 315 m 0,0,1
 355 321 355 321 355 312 c 2,2,-1
 355 271 l 2,3,4
 355 261 355 261 354 255 c 128,-1,5
 353 249 353 249 346 243 c 0,6,7
 330 229 330 229 313 222.5 c 128,-1,8
 296 216 296 216 271 216 c 0,9,10
 243 216 243 216 219.5 224 c 128,-1,11
 196 232 196 232 174.5 240 c 128,-1,12
 153 248 153 248 129 248 c 256,13,14
 105 248 105 248 88.5 242 c 128,-1,15
 72 236 72 236 52 217 c 0,16,17
 50 215 50 215 46.5 215 c 128,-1,18
 43 215 43 215 43 219 c 2,19,-1
 43 261 l 2,20,21
 43 280 43 280 52 288 c 0,22,23
 87 316 87 316 129 316 c 0,24,25
 156 316 156 316 179 308 c 128,-1,26
 202 300 202 300 224.5 291.5 c 128,-1,27
 247 283 247 283 271 283 c 0,28,29
 294 283 294 283 310.5 289.5 c 128,-1,30
 327 296 327 296 347 315 c 0,0,1
EndSplineSet
EndChar

StartChar: exclamdown
Encoding: 161 161 97
Width: 157
GlyphClass: 1
Flags: W
LayerCount: 2
Fore
SplineSet
86 276 m 0,0,1
 66 276 66 276 54.5 288.5 c 128,-1,2
 43 301 43 301 43 320 c 0,3,4
 43 343 43 343 59.5 360 c 128,-1,5
 76 377 76 377 99 377 c 0,6,7
 119 377 119 377 130 365 c 128,-1,8
 141 353 141 353 141 335 c 0,9,10
 141 313 141 313 126.5 294.5 c 128,-1,11
 112 276 112 276 86 276 c 0,0,1
-29 -189 m 2,12,13
 -36 -189 -36 -189 -35 -180 c 2,14,-1
 41 213 l 2,15,16
 43 221 43 221 49 221 c 0,17,18
 75 221 75 221 86.5 203.5 c 128,-1,19
 98 186 98 186 93 151 c 2,20,-1
 40 -180 l 2,21,22
 37 -189 37 -189 30 -189 c 2,23,-1
 -29 -189 l 2,12,13
EndSplineSet
EndChar

StartChar: cent
Encoding: 162 162 98
Width: 363
GlyphClass: 1
Flags: W
LayerCount: 2
Fore
SplineSet
283 -7 m 1,0,-1
 293 -59 l 2,1,2
 294 -68 294 -68 286 -68 c 2,3,-1
 252 -68 l 2,4,5
 242 -68 242 -68 242 -59 c 2,6,-1
 233 -9 l 1,7,8
 173 -2 173 -2 129.5 28 c 128,-1,9
 86 58 86 58 63 105.5 c 128,-1,10
 40 153 40 153 40 209 c 0,11,12
 40 276 40 276 73.5 319.5 c 128,-1,13
 107 363 107 363 165 374 c 1,14,-1
 155 429 l 2,15,16
 154 438 154 438 162 438 c 2,17,-1
 197 438 l 2,18,19
 206 438 206 438 207 429 c 2,20,-1
 216 376 l 1,21,22
 233 375 233 375 247.5 371 c 128,-1,23
 262 367 262 367 277 362 c 0,24,25
 300 354 300 354 308 340.5 c 128,-1,26
 316 327 316 327 315 307 c 2,27,-1
 314 289 l 2,28,29
 314 282 314 282 308 282 c 0,30,31
 305 282 305 282 301 284 c 0,32,33
 281 294 281 294 264.5 299.5 c 128,-1,34
 248 305 248 305 228 307 c 1,35,-1
 272 57 l 1,36,37
 299 59 299 59 316.5 69.5 c 128,-1,38
 334 80 334 80 344 92 c 0,39,40
 349 99 349 99 354 99 c 0,41,42
 362 99 362 99 365 90 c 128,-1,43
 368 81 368 81 368 74 c 0,44,45
 368 50 368 50 347.5 25.5 c 128,-1,46
 327 1 327 1 283 -7 c 1,0,-1
219 61 m 1,47,-1
 177 304 l 1,48,49
 149 297 149 297 132.5 272.5 c 128,-1,50
 116 248 116 248 116 209 c 0,51,52
 116 159 116 159 141.5 116.5 c 128,-1,53
 167 74 167 74 219 61 c 1,47,-1
EndSplineSet
EndChar

StartChar: sterling
Encoding: 163 163 99
Width: 475
GlyphClass: 1
Flags: W
LayerCount: 2
Fore
SplineSet
241 69 m 1,0,-1
 417 69 l 2,1,2
 461 69 461 69 469 26 c 2,3,-1
 472 11 l 2,4,5
 474 0 474 0 464 0 c 2,6,-1
 97 0 l 2,7,8
 89 0 89 0 87 9 c 2,9,-1
 78 61 l 2,10,11
 78 69 78 69 86 69 c 2,12,-1
 169 69 l 1,13,14
 174 84 174 84 177.5 105.5 c 128,-1,15
 181 127 181 127 181 151 c 0,16,17
 181 183 181 183 173.5 205 c 128,-1,18
 166 227 166 227 151 249 c 1,19,-1
 54 249 l 2,20,21
 46 249 46 249 44 258 c 2,22,-1
 35 310 l 2,23,24
 34 319 34 319 41 319 c 2,25,-1
 106 319 l 1,26,27
 85 348 85 348 73.5 374 c 128,-1,28
 62 400 62 400 62 432 c 0,29,30
 62 494 62 494 102.5 530.5 c 128,-1,31
 143 567 143 567 213 567 c 0,32,33
 253 567 253 567 282.5 559.5 c 128,-1,34
 312 552 312 552 337 539 c 0,35,36
 364 526 364 526 376.5 513.5 c 128,-1,37
 389 501 389 501 385 480 c 2,38,-1
 381 459 l 2,39,40
 380 450 380 450 373 450 c 0,41,42
 367 450 367 450 358 456 c 0,43,44
 324 476 324 476 292 487 c 128,-1,45
 260 498 260 498 225 498 c 0,46,47
 138 498 138 498 138 427 c 0,48,49
 138 399 138 399 154 370.5 c 128,-1,50
 170 342 170 342 186 319 c 1,51,-1
 323 319 l 2,52,53
 368 319 368 319 376 276 c 2,54,-1
 379 261 l 2,55,56
 381 249 381 249 370 249 c 2,57,-1
 228 249 l 1,58,59
 241 224 241 224 247 203 c 128,-1,60
 253 182 253 182 253 153 c 0,61,62
 253 129 253 129 249.5 108 c 128,-1,63
 246 87 246 87 241 69 c 1,0,-1
EndSplineSet
EndChar

StartChar: yen
Encoding: 165 165 100
Width: 472
GlyphClass: 1
Flags: W
LayerCount: 2
Fore
SplineSet
224 128 m 1,0,-1
 75 128 l 2,1,2
 69 128 69 128 67 137 c 2,3,-1
 59 178 l 2,4,5
 58 187 58 187 65 187 c 2,6,-1
 214 187 l 1,7,-1
 207 213 l 1,8,-1
 182 251 l 1,9,-1
 55 251 l 2,10,11
 46 251 46 251 45 259 c 2,12,-1
 38 301 l 2,13,14
 37 309 37 309 44 309 c 2,15,-1
 139 309 l 1,16,-1
 -31 547 l 2,17,18
 -33 550 -33 550 -32.5 553 c 128,-1,19
 -32 556 -32 556 -27 556 c 2,20,-1
 -1 556 l 2,21,22
 25 556 25 556 44 544.5 c 128,-1,23
 63 533 63 533 82 506 c 2,24,-1
 234 291 l 1,25,-1
 325 544 l 2,26,27
 327 550 327 550 330.5 553 c 128,-1,28
 334 556 334 556 341 556 c 2,29,-1
 389 556 l 2,30,31
 402 556 402 556 399 544 c 2,32,-1
 311 309 l 1,33,-1
 405 309 l 2,34,35
 414 309 414 309 415 301 c 2,36,-1
 422 259 l 2,37,38
 423 251 423 251 417 251 c 2,39,-1
 291 251 l 1,40,-1
 280 214 l 1,41,-1
 283 187 l 1,42,-1
 427 187 l 2,43,44
 434 187 434 187 437 178 c 2,45,-1
 444 137 l 2,46,47
 446 128 446 128 437 128 c 2,48,-1
 293 128 l 1,49,-1
 314 9 l 2,50,51
 316 0 316 0 308 0 c 2,52,-1
 255 0 l 2,53,54
 246 0 246 0 244 9 c 2,55,-1
 224 128 l 1,0,-1
EndSplineSet
EndChar

StartChar: brokenbar
Encoding: 166 166 101
Width: 190
GlyphClass: 1
Flags: W
LayerCount: 2
Fore
SplineSet
70 263 m 2,0,1
 62 263 62 263 62 272 c 2,2,-1
 62 558 l 2,3,4
 62 567 62 567 70 567 c 0,5,6
 97 567 97 567 113 550 c 128,-1,7
 129 533 129 533 129 498 c 2,8,-1
 129 272 l 2,9,10
 129 263 129 263 120 263 c 2,11,-1
 70 263 l 2,0,1
70 -149 m 2,12,13
 62 -149 62 -149 62 -140 c 2,14,-1
 62 145 l 2,15,16
 62 154 62 154 70 154 c 2,17,-1
 120 154 l 2,18,19
 129 154 129 154 129 145 c 2,20,-1
 129 -140 l 2,21,22
 129 -149 129 -149 120 -149 c 2,23,-1
 70 -149 l 2,12,13
EndSplineSet
EndChar

StartChar: section
Encoding: 167 167 102
Width: 421
GlyphClass: 1
Flags: W
LayerCount: 2
Fore
SplineSet
267 123 m 1,0,1
 301 103 301 103 324 78 c 128,-1,2
 347 53 347 53 347 11 c 0,3,4
 347 -34 347 -34 313 -66 c 128,-1,5
 279 -98 279 -98 213 -98 c 0,6,7
 177 -98 177 -98 147.5 -87.5 c 128,-1,8
 118 -77 118 -77 96 -62 c 0,9,10
 75 -48 75 -48 65.5 -33.5 c 128,-1,11
 56 -19 56 -19 61 -1 c 2,12,-1
 63 11 l 2,13,14
 65 22 65 22 74 15 c 0,15,16
 99 -5 99 -5 131 -21.5 c 128,-1,17
 163 -38 163 -38 203 -38 c 0,18,19
 240 -38 240 -38 255.5 -23.5 c 128,-1,20
 271 -9 271 -9 271 15 c 0,21,22
 271 38 271 38 252 55 c 128,-1,23
 233 72 233 72 203 87.5 c 128,-1,24
 173 103 173 103 139 119.5 c 128,-1,25
 105 136 105 136 75 156 c 128,-1,26
 45 176 45 176 26 203.5 c 128,-1,27
 7 231 7 231 7 268 c 0,28,29
 7 304 7 304 28.5 328.5 c 128,-1,30
 50 353 50 353 72 368 c 1,31,32
 42 389 42 389 21 411.5 c 128,-1,33
 0 434 0 434 0 472 c 0,34,35
 0 514 0 514 33 540.5 c 128,-1,36
 66 567 66 567 118 567 c 0,37,38
 149 567 149 567 173 561.5 c 128,-1,39
 197 556 197 556 213 548 c 0,40,41
 236 537 236 537 243 524.5 c 128,-1,42
 250 512 250 512 247 494 c 2,43,-1
 244 482 l 2,44,45
 243 475 243 475 241 475 c 0,46,47
 235 475 235 475 231 479 c 0,48,49
 206 493 206 493 180.5 500 c 128,-1,50
 155 507 155 507 132 507 c 0,51,52
 103 507 103 507 90 496.5 c 128,-1,53
 77 486 77 486 77 469 c 0,54,55
 77 448 77 448 95 431.5 c 128,-1,56
 113 415 113 415 141 401 c 128,-1,57
 169 387 169 387 201 372 c 128,-1,58
 233 357 233 357 261 338.5 c 128,-1,59
 289 320 289 320 307 294.5 c 128,-1,60
 325 269 325 269 325 234 c 0,61,62
 325 197 325 197 307 168 c 128,-1,63
 289 139 289 139 267 123 c 1,0,1
213 154 m 1,64,65
 227 168 227 168 240 186 c 128,-1,66
 253 204 253 204 253 229 c 0,67,68
 253 252 253 252 239 268.5 c 128,-1,69
 225 285 225 285 204.5 298 c 128,-1,70
 184 311 184 311 162 320.5 c 128,-1,71
 140 330 140 330 123 338 c 1,72,73
 107 326 107 326 92.5 308.5 c 128,-1,74
 78 291 78 291 78 268 c 256,75,76
 78 245 78 245 92.5 227 c 128,-1,77
 107 209 107 209 128.5 195.5 c 128,-1,78
 150 182 150 182 173 172 c 128,-1,79
 196 162 196 162 213 154 c 1,64,65
EndSplineSet
EndChar

StartChar: dieresis
Encoding: 168 168 103
Width: 223
GlyphClass: 1
Flags: W
LayerCount: 2
Fore
SplineSet
1 460 m 0,0,1
 1 481 1 481 16 497 c 128,-1,2
 31 513 31 513 53 513 c 0,3,4
 71 513 71 513 81 503 c 128,-1,5
 91 493 91 493 91 476 c 0,6,7
 90 454 90 454 75 438 c 128,-1,8
 60 422 60 422 38 422 c 0,9,10
 3 422 3 422 1 460 c 0,0,1
133 460 m 0,11,12
 133 481 133 481 148 497 c 128,-1,13
 163 513 163 513 185 513 c 0,14,15
 203 513 203 513 213 503 c 128,-1,16
 223 493 223 493 223 476 c 0,17,18
 222 454 222 454 207 438 c 128,-1,19
 192 422 192 422 170 422 c 0,20,21
 135 422 135 422 133 460 c 0,11,12
EndSplineSet
EndChar

StartChar: copyright
Encoding: 169 169 104
Width: 505
GlyphClass: 1
Flags: W
LayerCount: 2
Fore
SplineSet
252 116 m 256,0,1
 185 116 185 116 135 144 c 128,-1,2
 85 172 85 172 57.5 222.5 c 128,-1,3
 30 273 30 273 30 340 c 256,4,5
 30 407 30 407 57.5 457 c 128,-1,6
 85 507 85 507 135 535 c 128,-1,7
 185 563 185 563 252 563 c 256,8,9
 319 563 319 563 369 535 c 128,-1,10
 419 507 419 507 447 457 c 128,-1,11
 475 407 475 407 475 340 c 256,12,13
 475 273 475 273 447 222.5 c 128,-1,14
 419 172 419 172 369 144 c 128,-1,15
 319 116 319 116 252 116 c 256,0,1
252 159 m 0,16,17
 334 159 334 159 382.5 208.5 c 128,-1,18
 431 258 431 258 431 340 c 0,19,20
 431 421 431 421 382.5 471 c 128,-1,21
 334 521 334 521 252 521 c 0,22,23
 171 521 171 521 122 471 c 128,-1,24
 73 421 73 421 73 340 c 0,25,26
 73 258 73 258 122 208.5 c 128,-1,27
 171 159 171 159 252 159 c 0,16,17
320 406 m 0,28,29
 294 423 294 423 262 423 c 256,30,31
 230 423 230 423 210.5 401.5 c 128,-1,32
 191 380 191 380 191 339 c 0,33,34
 191 299 191 299 210.5 278 c 128,-1,35
 230 257 230 257 262 257 c 0,36,37
 301 257 301 257 327 289 c 0,38,39
 330 293 330 293 334 293 c 0,40,41
 340 293 340 293 340 285 c 0,42,43
 339 264 339 264 316.5 241.5 c 128,-1,44
 294 219 294 219 256 219 c 0,45,46
 207 219 207 219 176.5 252 c 128,-1,47
 146 285 146 285 146 340 c 0,48,49
 146 397 146 397 180 430 c 128,-1,50
 214 463 214 463 261 463 c 0,51,52
 278 463 278 463 291 459.5 c 128,-1,53
 304 456 304 456 316 451 c 0,54,55
 335 443 335 443 333 431 c 2,56,-1
 331 412 l 2,57,58
 330 401 330 401 320 406 c 0,28,29
EndSplineSet
EndChar

StartChar: ordfeminine
Encoding: 170 170 105
Width: 334
GlyphClass: 1
Flags: W
LayerCount: 2
Fore
SplineSet
260 266 m 2,0,-1
 266 300 l 1,1,2
 246 276 246 276 218.5 264.5 c 128,-1,3
 191 253 191 253 162 253 c 0,4,5
 112 253 112 253 80.5 288 c 128,-1,6
 49 323 49 323 49 379 c 0,7,8
 49 427 49 427 72.5 468 c 128,-1,9
 96 509 96 509 135 533.5 c 128,-1,10
 174 558 174 558 219 558 c 0,11,12
 253 558 253 558 275 545.5 c 128,-1,13
 297 533 297 533 308 513 c 1,14,15
 321 551 321 551 360 551 c 2,16,-1
 365 551 l 2,17,18
 371 551 371 551 369 544 c 2,19,-1
 321 266 l 2,20,21
 320 261 320 261 315 261 c 2,22,-1
 264 261 l 2,23,24
 260 261 260 261 260 266 c 2,0,-1
178 310 m 0,25,26
 213 310 213 310 237 327.5 c 128,-1,27
 261 345 261 345 273.5 372.5 c 128,-1,28
 286 400 286 400 286 431 c 0,29,30
 286 472 286 472 263 486 c 128,-1,31
 240 500 240 500 217 500 c 0,32,33
 174 500 174 500 144 465.5 c 128,-1,34
 114 431 114 431 114 382 c 0,35,36
 114 348 114 348 130.5 329 c 128,-1,37
 147 310 147 310 178 310 c 0,25,26
EndSplineSet
EndChar

StartChar: guillemotleft
Encoding: 171 171 106
Width: 389
GlyphClass: 1
Flags: W
LayerCount: 2
Fore
SplineSet
261 191 m 1,0,-1
 396 48 l 2,1,2
 403 39 403 39 392 39 c 2,3,-1
 334 39 l 2,4,5
 322 39 322 39 313 49 c 2,6,-1
 197 173 l 2,7,8
 194 177 194 177 191.5 181 c 128,-1,9
 189 185 189 185 189 189 c 0,10,11
 189 195 189 195 194 203 c 2,12,-1
 270 328 l 2,13,14
 275 335 275 335 278 336.5 c 128,-1,15
 281 338 281 338 288 338 c 2,16,-1
 339 338 l 2,17,18
 351 338 351 338 347 329 c 2,19,-1
 261 191 l 1,0,-1
108 191 m 1,20,-1
 243 48 l 2,21,22
 247 44 247 44 245.5 41.5 c 128,-1,23
 244 39 244 39 239 39 c 2,24,-1
 182 39 l 2,25,26
 170 39 170 39 159 49 c 2,27,-1
 44 173 l 2,28,29
 41 177 41 177 38.5 181 c 128,-1,30
 36 185 36 185 36 189 c 0,31,32
 36 195 36 195 41 203 c 2,33,-1
 117 328 l 2,34,35
 122 335 122 335 125 336.5 c 128,-1,36
 128 338 128 338 135 338 c 2,37,-1
 187 338 l 2,38,39
 191 338 191 338 193 335.5 c 128,-1,40
 195 333 195 333 193 329 c 2,41,-1
 108 191 l 1,20,-1
EndSplineSet
EndChar

StartChar: uni00AD
Encoding: 173 173 107
Width: 305
GlyphClass: 1
Flags: W
LayerCount: 2
Fore
SplineSet
276 177 m 2,0,1
 276 168 276 168 269 168 c 2,2,-1
 57 168 l 2,3,4
 50 168 50 168 48 177 c 2,5,-1
 38 229 l 2,6,7
 37 238 37 238 45 238 c 2,8,-1
 257 238 l 2,9,10
 265 238 265 238 266 229 c 2,11,-1
 276 177 l 2,0,1
EndSplineSet
EndChar

StartChar: registered
Encoding: 174 174 108
Width: 505
GlyphClass: 1
Flags: W
LayerCount: 2
Fore
SplineSet
252 116 m 256,0,1
 185 116 185 116 135 144 c 128,-1,2
 85 172 85 172 57.5 222.5 c 128,-1,3
 30 273 30 273 30 340 c 256,4,5
 30 407 30 407 57.5 457 c 128,-1,6
 85 507 85 507 135 535 c 128,-1,7
 185 563 185 563 252 563 c 256,8,9
 319 563 319 563 369 535 c 128,-1,10
 419 507 419 507 447 457 c 128,-1,11
 475 407 475 407 475 340 c 256,12,13
 475 273 475 273 447 222.5 c 128,-1,14
 419 172 419 172 369 144 c 128,-1,15
 319 116 319 116 252 116 c 256,0,1
252 159 m 0,16,17
 334 159 334 159 382.5 208.5 c 128,-1,18
 431 258 431 258 431 340 c 0,19,20
 431 421 431 421 382.5 471 c 128,-1,21
 334 521 334 521 252 521 c 0,22,23
 171 521 171 521 122 471 c 128,-1,24
 73 421 73 421 73 340 c 0,25,26
 73 258 73 258 122 208.5 c 128,-1,27
 171 159 171 159 252 159 c 0,16,17
209 306 m 1,28,-1
 209 228 l 2,29,30
 209 224 209 224 206 224 c 2,31,-1
 171 224 l 2,32,33
 168 224 168 224 168 228 c 2,34,-1
 168 453 l 2,35,36
 168 458 168 458 171 458 c 2,37,-1
 258 458 l 2,38,39
 304 458 304 458 326.5 438.5 c 128,-1,40
 349 419 349 419 349 384 c 0,41,42
 349 329 349 329 298 310 c 1,43,-1
 352 228 l 2,44,45
 354 227 354 227 352.5 225.5 c 128,-1,46
 351 224 351 224 349 224 c 2,47,-1
 315 224 l 2,48,49
 307 224 307 224 304 229 c 2,50,-1
 257 306 l 1,51,-1
 209 306 l 1,28,-1
209 343 m 1,52,-1
 253 343 l 2,53,54
 278 343 278 343 292.5 352.5 c 128,-1,55
 307 362 307 362 307 384 c 256,56,57
 307 406 307 406 293 413.5 c 128,-1,58
 279 421 279 421 256 421 c 2,59,-1
 209 421 l 1,60,-1
 209 343 l 1,52,-1
EndSplineSet
EndChar

StartChar: macron
Encoding: 175 175 109
Width: 233
GlyphClass: 1
Flags: W
LayerCount: 2
Fore
SplineSet
8 431 m 2,0,1
 1 431 1 431 2 439 c 2,2,-1
 9 478 l 2,3,4
 10 486 10 486 18 486 c 2,5,-1
 225 486 l 2,6,7
 234 486 234 486 233 478 c 2,8,-1
 225 439 l 2,9,10
 225 431 225 431 215 431 c 2,11,-1
 8 431 l 2,0,1
EndSplineSet
EndChar

StartChar: degree
Encoding: 176 176 110
Width: 257
GlyphClass: 1
Flags: W
LayerCount: 2
Fore
SplineSet
129 369 m 256,0,1
 82 369 82 369 52.5 399 c 128,-1,2
 23 429 23 429 23 475 c 0,3,4
 23 522 23 522 52.5 551.5 c 128,-1,5
 82 581 82 581 129 581 c 256,6,7
 176 581 176 581 205 551.5 c 128,-1,8
 234 522 234 522 234 475 c 0,9,10
 234 429 234 429 205 399 c 128,-1,11
 176 369 176 369 129 369 c 256,0,1
129 414 m 0,12,13
 153 414 153 414 168 432 c 128,-1,14
 183 450 183 450 183 475 c 256,15,16
 183 500 183 500 168 517 c 128,-1,17
 153 534 153 534 129 534 c 0,18,19
 104 534 104 534 89 517 c 128,-1,20
 74 500 74 500 74 475 c 256,21,22
 74 450 74 450 89 432 c 128,-1,23
 104 414 104 414 129 414 c 0,12,13
EndSplineSet
EndChar

StartChar: plusminus
Encoding: 177 177 111
Width: 403
GlyphClass: 1
Flags: W
LayerCount: 2
Fore
SplineSet
168 267 m 1,0,-1
 45 267 l 2,1,2
 37 267 37 267 37 276 c 2,3,-1
 37 324 l 2,4,5
 37 333 37 333 45 333 c 2,6,-1
 168 333 l 1,7,-1
 168 470 l 2,8,9
 168 479 168 479 176 479 c 0,10,11
 208 479 208 479 221.5 464.5 c 128,-1,12
 235 450 235 450 235 418 c 2,13,-1
 235 333 l 1,14,-1
 358 333 l 2,15,16
 366 333 366 333 366 324 c 2,17,-1
 366 276 l 2,18,19
 366 267 366 267 358 267 c 2,20,-1
 235 267 l 1,21,-1
 235 130 l 2,22,23
 235 122 235 122 227 122 c 2,24,-1
 176 122 l 2,25,26
 168 122 168 122 168 130 c 2,27,-1
 168 267 l 1,0,-1
45 0 m 2,28,29
 37 0 37 0 37 9 c 2,30,-1
 37 57 l 2,31,32
 37 66 37 66 45 66 c 2,33,-1
 315 66 l 2,34,35
 340 66 340 66 353 53 c 128,-1,36
 366 40 366 40 366 18 c 2,37,-1
 366 9 l 2,38,39
 366 0 366 0 358 0 c 2,40,-1
 45 0 l 2,28,29
EndSplineSet
EndChar

StartChar: twosuperior
Encoding: 178 178 112
Width: 297
GlyphClass: 1
Flags: W
LayerCount: 2
Fore
SplineSet
99 286 m 1,0,-1
 222 286 l 2,1,2
 239 286 239 286 250.5 280 c 128,-1,3
 262 274 262 274 265 254 c 2,4,-1
 269 238 l 2,5,6
 269 233 269 233 262 233 c 2,7,-1
 40 233 l 2,8,9
 34 233 34 233 34 238 c 0,10,11
 31 255 31 255 31 269 c 0,12,13
 31 304 31 304 44.5 326.5 c 128,-1,14
 58 349 58 349 78 364.5 c 128,-1,15
 98 380 98 380 117.5 392.5 c 128,-1,16
 137 405 137 405 150.5 419.5 c 128,-1,17
 164 434 164 434 164 454 c 0,18,19
 164 510 164 510 94 510 c 0,20,21
 63 510 63 510 41.5 499 c 128,-1,22
 20 488 20 488 15 483 c 0,23,24
 9 479 9 479 3 486 c 2,25,-1
 -7 502 l 2,26,27
 -14 515 -14 515 -12 523.5 c 128,-1,28
 -10 532 -10 532 5 542 c 0,29,30
 40 563 40 563 92 563 c 0,31,32
 156 563 156 563 191.5 535 c 128,-1,33
 227 507 227 507 227 458 c 0,34,35
 227 429 227 429 213.5 408 c 128,-1,36
 200 387 200 387 180.5 371.5 c 128,-1,37
 161 356 161 356 141.5 342.5 c 128,-1,38
 122 329 122 329 110 315.5 c 128,-1,39
 98 302 98 302 99 286 c 1,0,-1
EndSplineSet
EndChar

StartChar: threesuperior
Encoding: 179 179 113
Width: 309
GlyphClass: 1
Flags: W
LayerCount: 2
Fore
SplineSet
58 419 m 2,0,1
 56 426 56 426 62 426 c 2,2,-1
 115 426 l 2,3,4
 169 426 169 426 169 466 c 0,5,6
 169 512 169 512 100 512 c 0,7,8
 75 512 75 512 56.5 504 c 128,-1,9
 38 496 38 496 23 485 c 0,10,11
 15 479 15 479 8 490 c 2,12,-1
 -2 506 l 2,13,14
 -16 529 -16 529 12 544 c 0,15,16
 30 553 30 553 52 558 c 128,-1,17
 74 563 74 563 100 563 c 0,18,19
 160 563 160 563 194 537.5 c 128,-1,20
 228 512 228 512 228 471 c 0,21,22
 228 451 228 451 217 432.5 c 128,-1,23
 206 414 206 414 184 404 c 1,24,25
 219 400 219 400 242.5 378.5 c 128,-1,26
 266 357 266 357 266 320 c 0,27,28
 266 277 266 277 237 252 c 128,-1,29
 208 227 208 227 152 227 c 0,30,31
 108 227 108 227 80 244.5 c 128,-1,32
 52 262 52 262 38.5 283 c 128,-1,33
 25 304 25 304 25 316 c 0,34,35
 25 325 25 325 31 325 c 0,36,37
 35 325 35 325 41 319 c 0,38,39
 82 278 82 278 139 278 c 0,40,41
 174 278 174 278 189.5 291 c 128,-1,42
 205 304 205 304 205 326 c 0,43,44
 205 355 205 355 181.5 364.5 c 128,-1,45
 158 374 158 374 129 374 c 2,46,-1
 96 374 l 2,47,48
 83 374 83 374 73.5 379 c 128,-1,49
 64 384 64 384 61 398 c 2,50,-1
 58 419 l 2,0,1
EndSplineSet
EndChar

StartChar: acute
Encoding: 180 180 114
Width: 181
GlyphClass: 1
Flags: W
LayerCount: 2
Fore
SplineSet
4 439 m 2,0,-1
 87 506 l 2,1,2
 100 516 100 516 112 516 c 2,3,-1
 176 516 l 2,4,5
 181 516 181 516 181.5 512.5 c 128,-1,6
 182 509 182 509 178 507 c 2,7,-1
 88 441 l 2,8,9
 74 431 74 431 58 431 c 2,10,-1
 7 431 l 2,11,12
 3 431 3 431 2 434 c 128,-1,13
 1 437 1 437 4 439 c 2,0,-1
EndSplineSet
EndChar

StartChar: paragraph
Encoding: 182 182 115
Width: 434
GlyphClass: 1
Flags: W
LayerCount: 2
Fore
SplineSet
212 221 m 1,0,-1
 203 221 l 2,1,2
 114 221 114 221 58.5 270.5 c 128,-1,3
 3 320 3 320 3 407 c 0,4,5
 3 445 3 445 20 479 c 128,-1,6
 37 513 37 513 73.5 534.5 c 128,-1,7
 110 556 110 556 168 556 c 2,8,-1
 239 556 l 2,9,10
 277 556 277 556 298.5 538 c 128,-1,11
 320 520 320 520 327 478 c 2,12,-1
 411 8 l 2,13,14
 413 0 413 0 404 0 c 2,15,-1
 370 0 l 2,16,17
 364 0 364 0 362 8 c 2,18,-1
 275 504 l 1,19,-1
 211 504 l 1,20,-1
 299 8 l 2,21,22
 301 0 301 0 291 0 c 2,23,-1
 257 0 l 2,24,25
 252 0 252 0 250 8 c 2,26,-1
 212 221 l 1,0,-1
EndSplineSet
EndChar

StartChar: periodcentered
Encoding: 183 183 116
Width: 146
GlyphClass: 1
Flags: W
LayerCount: 2
Fore
SplineSet
78 229 m 0,0,1
 58 229 58 229 46.5 241.5 c 128,-1,2
 35 254 35 254 35 273 c 0,3,4
 35 296 35 296 51 313 c 128,-1,5
 67 330 67 330 91 330 c 0,6,7
 111 330 111 330 121.5 318 c 128,-1,8
 132 306 132 306 132 288 c 0,9,10
 132 266 132 266 117.5 247.5 c 128,-1,11
 103 229 103 229 78 229 c 0,0,1
EndSplineSet
EndChar

StartChar: cedilla
Encoding: 184 184 117
Width: 134
GlyphClass: 1
Flags: W
LayerCount: 2
Fore
SplineSet
6 -98 m 2,0,1
 2 -98 2 -98 1.5 -95 c 128,-1,2
 1 -92 1 -92 3 -89 c 2,3,-1
 69 -6 l 2,4,5
 76 2 76 2 83 3.5 c 128,-1,6
 90 5 90 5 97 5 c 2,7,-1
 131 5 l 2,8,9
 139 5 139 5 133 -3 c 2,10,-1
 79 -87 l 2,11,12
 75 -94 75 -94 69 -96 c 128,-1,13
 63 -98 63 -98 54 -98 c 2,14,-1
 6 -98 l 2,0,1
EndSplineSet
EndChar

StartChar: onesuperior
Encoding: 185 185 118
Width: 214
GlyphClass: 1
Flags: W
LayerCount: 2
Fore
SplineSet
53 500 m 1,0,-1
 -2 479 l 2,1,2
 -7 477 -7 477 -9 484 c 2,3,-1
 -18 526 l 2,4,5
 -20 535 -20 535 -13 538 c 2,6,-1
 21 551 l 2,7,8
 38 556 38 556 50 556 c 2,9,-1
 74 556 l 2,10,11
 106 556 106 556 112 523 c 2,12,-1
 161 241 l 2,13,14
 163 233 163 233 155 233 c 2,15,-1
 107 233 l 2,16,17
 100 233 100 233 98 241 c 2,18,-1
 53 500 l 1,0,-1
EndSplineSet
EndChar

StartChar: ordmasculine
Encoding: 186 186 119
Width: 329
GlyphClass: 1
Flags: W
LayerCount: 2
Fore
SplineSet
171 253 m 0,0,1
 115 253 115 253 82 288 c 128,-1,2
 49 323 49 323 49 378 c 0,3,4
 49 428 49 428 72.5 469 c 128,-1,5
 96 510 96 510 136 534 c 128,-1,6
 176 558 176 558 224 558 c 0,7,8
 281 558 281 558 314 527 c 128,-1,9
 347 496 347 496 347 442 c 0,10,11
 347 392 347 392 325.5 349 c 128,-1,12
 304 306 304 306 264.5 279.5 c 128,-1,13
 225 253 225 253 171 253 c 0,0,1
177 312 m 0,14,15
 211 312 211 312 234.5 329.5 c 128,-1,16
 258 347 258 347 270.5 374 c 128,-1,17
 283 401 283 401 283 431 c 0,18,19
 283 500 283 500 215 500 c 0,20,21
 172 500 172 500 143 466 c 128,-1,22
 114 432 114 432 114 382 c 0,23,24
 114 312 114 312 177 312 c 0,14,15
EndSplineSet
EndChar

StartChar: guillemotright
Encoding: 187 187 120
Width: 389
GlyphClass: 1
Flags: W
LayerCount: 2
Fore
SplineSet
150 186 m 1,0,-1
 15 329 l 2,1,2
 8 338 8 338 19 338 c 2,3,-1
 77 338 l 2,4,5
 88 338 88 338 99 328 c 2,6,-1
 214 204 l 2,7,8
 217 200 217 200 219.5 196.5 c 128,-1,9
 222 193 222 193 222 188 c 0,10,11
 222 182 222 182 217 174 c 2,12,-1
 141 49 l 2,13,14
 137 42 137 42 133.5 40.5 c 128,-1,15
 130 39 130 39 123 39 c 2,16,-1
 72 39 l 2,17,18
 60 39 60 39 65 48 c 2,19,-1
 150 186 l 1,0,-1
303 186 m 1,20,-1
 168 329 l 2,21,22
 164 333 164 333 166 335.5 c 128,-1,23
 168 338 168 338 172 338 c 2,24,-1
 230 338 l 2,25,26
 242 338 242 338 252 328 c 2,27,-1
 367 204 l 2,28,29
 370 200 370 200 372.5 196.5 c 128,-1,30
 375 193 375 193 375 188 c 0,31,32
 375 182 375 182 370 174 c 2,33,-1
 294 49 l 2,34,35
 290 42 290 42 286.5 40.5 c 128,-1,36
 283 39 283 39 277 39 c 2,37,-1
 225 39 l 2,38,39
 221 39 221 39 218.5 41.5 c 128,-1,40
 216 44 216 44 218 48 c 2,41,-1
 303 186 l 1,20,-1
EndSplineSet
EndChar

StartChar: onequarter
Encoding: 188 188 121
Width: 660
GlyphClass: 1
Flags: W
LayerCount: 2
Fore
SplineSet
229 9 m 2,0,1
 228 0 228 0 220 0 c 2,2,-1
 172 0 l 2,3,4
 162 0 162 0 166 9 c 2,5,-1
 367 547 l 2,6,7
 369 552 369 552 370.5 554 c 128,-1,8
 372 556 372 556 378 556 c 0,9,10
 401 556 401 556 410.5 539 c 128,-1,11
 420 522 420 522 410 496 c 2,12,-1
 229 9 l 2,0,1
53 500 m 1,13,-1
 -2 479 l 2,14,15
 -7 477 -7 477 -9 484 c 2,16,-1
 -18 526 l 2,17,18
 -20 535 -20 535 -13 538 c 2,19,-1
 21 551 l 2,20,21
 38 556 38 556 50 556 c 2,22,-1
 74 556 l 2,23,24
 104 556 104 556 112 523 c 2,25,-1
 161 241 l 2,26,27
 163 233 163 233 155 233 c 2,28,-1
 107 233 l 2,29,30
 98 233 98 233 98 241 c 2,31,-1
 53 500 l 1,13,-1
535 73 m 1,32,-1
 377 73 l 2,33,34
 370 73 370 73 370 79 c 2,35,-1
 365 106 l 2,36,37
 363 115 363 115 368 123 c 2,38,-1
 467 312 l 2,39,40
 470 317 470 317 474 320 c 128,-1,41
 478 323 478 323 486 323 c 2,42,-1
 522 323 l 2,43,44
 551 323 551 323 557 295 c 2,45,-1
 587 124 l 1,46,-1
 608 124 l 2,47,48
 637 124 637 124 641 98 c 2,49,-1
 644 79 l 2,50,51
 646 73 646 73 638 73 c 2,52,-1
 595 73 l 1,53,-1
 607 6 l 2,54,55
 609 0 609 0 602 0 c 2,56,-1
 554 0 l 2,57,58
 547 0 547 0 547 6 c 2,59,-1
 535 73 l 1,32,-1
425 124 m 1,60,-1
 526 124 l 1,61,-1
 501 267 l 1,62,-1
 425 124 l 1,60,-1
EndSplineSet
Ligature2: "'frac' Diagonal Fractions lookup 4 subtable" one fraction four
Ligature2: "'frac' Diagonal Fractions lookup 4 subtable" one slash four
EndChar

StartChar: onehalf
Encoding: 189 189 122
Width: 707
GlyphClass: 1
Flags: W
LayerCount: 2
Fore
SplineSet
229 9 m 2,0,1
 228 0 228 0 220 0 c 2,2,-1
 172 0 l 2,3,4
 162 0 162 0 166 9 c 2,5,-1
 367 547 l 2,6,7
 369 552 369 552 370.5 554 c 128,-1,8
 372 556 372 556 378 556 c 0,9,10
 401 556 401 556 410.5 539 c 128,-1,11
 420 522 420 522 410 496 c 2,12,-1
 229 9 l 2,0,1
53 500 m 1,13,-1
 -2 479 l 2,14,15
 -7 477 -7 477 -9 484 c 2,16,-1
 -18 526 l 2,17,18
 -20 535 -20 535 -13 538 c 2,19,-1
 21 551 l 2,20,21
 38 556 38 556 50 556 c 2,22,-1
 74 556 l 2,23,24
 104 556 104 556 112 523 c 2,25,-1
 161 241 l 2,26,27
 163 233 163 233 155 233 c 2,28,-1
 107 233 l 2,29,30
 98 233 98 233 98 241 c 2,31,-1
 53 500 l 1,13,-1
520 54 m 1,32,-1
 643 54 l 2,33,34
 660 54 660 54 671.5 48 c 128,-1,35
 683 42 683 42 687 22 c 2,36,-1
 690 6 l 2,37,38
 690 0 690 0 684 0 c 2,39,-1
 461 0 l 2,40,41
 457 0 457 0 455 6 c 0,42,43
 454 14 454 14 453 22 c 128,-1,44
 452 30 452 30 452 37 c 0,45,46
 452 71 452 71 465.5 93.5 c 128,-1,47
 479 116 479 116 499 131.5 c 128,-1,48
 519 147 519 147 538.5 160 c 128,-1,49
 558 173 558 173 571.5 187 c 128,-1,50
 585 201 585 201 585 222 c 0,51,52
 585 277 585 277 515 277 c 0,53,54
 484 277 484 277 463 266.5 c 128,-1,55
 442 256 442 256 437 251 c 0,56,57
 430 245 430 245 424 253 c 2,58,-1
 414 269 l 2,59,60
 407 282 407 282 409.5 291 c 128,-1,61
 412 300 412 300 427 309 c 0,62,63
 462 331 462 331 514 331 c 0,64,65
 577 331 577 331 612.5 302.5 c 128,-1,66
 648 274 648 274 648 226 c 0,67,68
 648 197 648 197 634.5 176 c 128,-1,69
 621 155 621 155 601.5 139 c 128,-1,70
 582 123 582 123 562.5 109.5 c 128,-1,71
 543 96 543 96 531 83 c 128,-1,72
 519 70 519 70 520 54 c 1,32,-1
EndSplineSet
Ligature2: "'frac' Diagonal Fractions lookup 4 subtable" one fraction two
Ligature2: "'frac' Diagonal Fractions lookup 4 subtable" one slash two
EndChar

StartChar: threequarters
Encoding: 190 190 123
Width: 733
GlyphClass: 1
Flags: W
LayerCount: 2
Fore
SplineSet
58 419 m 2,0,1
 56 426 56 426 62 426 c 2,2,-1
 115 426 l 2,3,4
 169 426 169 426 169 466 c 0,5,6
 169 512 169 512 100 512 c 0,7,8
 75 512 75 512 56.5 504 c 128,-1,9
 38 496 38 496 23 485 c 0,10,11
 15 479 15 479 8 490 c 2,12,-1
 -2 506 l 2,13,14
 -17 530 -17 530 12 544 c 0,15,16
 48 563 48 563 100 563 c 0,17,18
 160 563 160 563 194 537.5 c 128,-1,19
 228 512 228 512 228 471 c 0,20,21
 228 451 228 451 217 432.5 c 128,-1,22
 206 414 206 414 184 404 c 1,23,24
 219 400 219 400 242.5 378.5 c 128,-1,25
 266 357 266 357 266 320 c 0,26,27
 266 277 266 277 237 252 c 128,-1,28
 208 227 208 227 152 227 c 0,29,30
 108 227 108 227 80 244.5 c 128,-1,31
 52 262 52 262 38.5 283 c 128,-1,32
 25 304 25 304 25 316 c 0,33,34
 25 325 25 325 31 325 c 0,35,36
 35 325 35 325 41 319 c 0,37,38
 82 278 82 278 139 278 c 0,39,40
 174 278 174 278 189.5 291 c 128,-1,41
 205 304 205 304 205 326 c 0,42,43
 205 355 205 355 181.5 364.5 c 128,-1,44
 158 374 158 374 129 374 c 2,45,-1
 96 374 l 2,46,47
 83 374 83 374 73 379 c 128,-1,48
 63 384 63 384 61 398 c 2,49,-1
 58 419 l 2,0,1
444 547 m 2,50,51
 446 556 446 556 454 556 c 0,52,53
 478 556 478 556 487.5 539 c 128,-1,54
 497 522 497 522 487 496 c 2,55,-1
 306 9 l 2,56,57
 303 0 303 0 296 0 c 2,58,-1
 249 0 l 2,59,60
 240 0 240 0 242 9 c 2,61,-1
 444 547 l 2,50,51
611 73 m 1,62,-1
 454 73 l 2,63,64
 448 73 448 73 446 79 c 2,65,-1
 441 106 l 2,66,67
 439 115 439 115 444 123 c 2,68,-1
 544 312 l 2,69,70
 547 317 547 317 551 320 c 128,-1,71
 555 323 555 323 562 323 c 2,72,-1
 599 323 l 2,73,74
 627 323 627 323 633 295 c 2,75,-1
 663 124 l 1,76,-1
 685 124 l 2,77,78
 714 124 714 124 717 98 c 2,79,-1
 721 79 l 2,80,81
 723 73 723 73 715 73 c 2,82,-1
 672 73 l 1,83,-1
 684 6 l 2,84,85
 686 0 686 0 679 0 c 2,86,-1
 630 0 l 2,87,88
 625 0 625 0 623 6 c 2,89,-1
 611 73 l 1,62,-1
502 124 m 1,90,-1
 602 124 l 1,91,-1
 577 267 l 1,92,-1
 502 124 l 1,90,-1
EndSplineSet
Ligature2: "'frac' Diagonal Fractions lookup 4 subtable" three fraction four
Ligature2: "'frac' Diagonal Fractions lookup 4 subtable" three slash four
EndChar

StartChar: questiondown
Encoding: 191 191 124
Width: 325
GlyphClass: 1
Flags: W
LayerCount: 2
Fore
SplineSet
200 276 m 0,0,1
 181 276 181 276 169.5 288.5 c 128,-1,2
 158 301 158 301 158 320 c 0,3,4
 158 343 158 343 174.5 360 c 128,-1,5
 191 377 191 377 214 377 c 0,6,7
 234 377 234 377 244.5 365 c 128,-1,8
 255 353 255 353 255 335 c 0,9,10
 255 313 255 313 240.5 294.5 c 128,-1,11
 226 276 226 276 200 276 c 0,0,1
-44 -64 m 0,12,13
 -44 -14 -44 -14 -17.5 22 c 128,-1,14
 9 58 9 58 48 86.5 c 128,-1,15
 87 115 87 115 124 141 c 0,16,17
 137 150 137 150 142.5 159.5 c 128,-1,18
 148 169 148 169 150 184 c 2,19,-1
 155 213 l 2,20,21
 157 221 157 221 164 221 c 2,22,-1
 176 221 l 2,23,24
 212 221 212 221 212 184 c 0,25,26
 212 153 212 153 194 130 c 128,-1,27
 176 107 176 107 149.5 88 c 128,-1,28
 123 69 123 69 96 49 c 128,-1,29
 69 29 69 29 51 3.5 c 128,-1,30
 33 -22 33 -22 33 -59 c 0,31,32
 33 -93 33 -93 55 -111.5 c 128,-1,33
 77 -130 77 -130 118 -130 c 0,34,35
 156 -130 156 -130 188 -120 c 128,-1,36
 220 -110 220 -110 252 -91 c 0,37,38
 261 -84 261 -84 265 -84 c 0,39,40
 271 -84 271 -84 272 -93 c 2,41,-1
 278 -137 l 2,42,43
 279 -146 279 -146 270 -151 c 0,44,45
 230 -175 230 -175 192 -187.5 c 128,-1,46
 154 -200 154 -200 110 -200 c 0,47,48
 43 -200 43 -200 -0.5 -165 c 128,-1,49
 -44 -130 -44 -130 -44 -64 c 0,12,13
EndSplineSet
EndChar

StartChar: Agrave
Encoding: 192 192 125
Width: 495
GlyphClass: 1
Flags: W
LayerCount: 2
Fore
SplineSet
356 617 m 2,0,1
 358 615 358 615 356.5 611.5 c 128,-1,2
 355 608 355 608 350 608 c 2,3,-1
 299 608 l 2,4,5
 284 608 284 608 273 619 c 2,6,-1
 206 684 l 2,7,8
 203 687 203 687 205 690 c 128,-1,9
 207 693 207 693 211 693 c 2,10,-1
 274 693 l 2,11,12
 288 693 288 693 296 684 c 2,13,-1
 356 617 l 2,0,1
121 153 m 1,14,-1
 47 12 l 2,15,16
 42 0 42 0 31 0 c 2,17,-1
 -29 0 l 2,18,19
 -38 0 -38 0 -33 9 c 2,20,-1
 257 548 l 2,21,22
 263 556 263 556 270 556 c 2,23,-1
 289 556 l 2,24,25
 317 556 317 556 330.5 544.5 c 128,-1,26
 344 533 344 533 350 500 c 2,27,-1
 442 9 l 2,28,29
 444 0 444 0 434 0 c 2,30,-1
 379 0 l 2,31,32
 371 0 371 0 368.5 3 c 128,-1,33
 366 6 366 6 365 12 c 2,34,-1
 340 153 l 1,35,-1
 121 153 l 1,14,-1
157 221 m 1,36,-1
 328 221 l 1,37,-1
 285 463 l 1,38,-1
 157 221 l 1,36,-1
EndSplineSet
EndChar

StartChar: Aacute
Encoding: 193 193 126
Width: 495
GlyphClass: 1
Flags: W
LayerCount: 2
Fore
SplineSet
207 617 m 2,0,-1
 290 684 l 2,1,2
 300 693 300 693 315 693 c 2,3,-1
 378 693 l 2,4,5
 383 693 383 693 383.5 690 c 128,-1,6
 384 687 384 687 381 684 c 2,7,-1
 290 619 l 2,8,9
 276 608 276 608 260 608 c 2,10,-1
 209 608 l 2,11,12
 205 608 205 608 204 611.5 c 128,-1,13
 203 615 203 615 207 617 c 2,0,-1
121 153 m 1,14,-1
 47 12 l 2,15,16
 42 0 42 0 31 0 c 2,17,-1
 -29 0 l 2,18,19
 -38 0 -38 0 -33 9 c 2,20,-1
 257 548 l 2,21,22
 263 556 263 556 270 556 c 2,23,-1
 289 556 l 2,24,25
 317 556 317 556 330.5 544.5 c 128,-1,26
 344 533 344 533 350 500 c 2,27,-1
 442 9 l 2,28,29
 444 0 444 0 434 0 c 2,30,-1
 379 0 l 2,31,32
 371 0 371 0 368.5 3 c 128,-1,33
 366 6 366 6 365 12 c 2,34,-1
 340 153 l 1,35,-1
 121 153 l 1,14,-1
157 221 m 1,36,-1
 328 221 l 1,37,-1
 285 463 l 1,38,-1
 157 221 l 1,36,-1
EndSplineSet
EndChar

StartChar: Acircumflex
Encoding: 194 194 127
Width: 495
GlyphClass: 1
Flags: W
LayerCount: 2
Fore
SplineSet
292 663 m 1,0,-1
 245 620 l 2,1,2
 233 608 233 608 215 608 c 2,3,-1
 167 608 l 2,4,5
 163 608 163 608 162.5 611.5 c 128,-1,6
 162 615 162 615 165 617 c 2,7,-1
 243 684 l 2,8,9
 250 690 250 690 255.5 691.5 c 128,-1,10
 261 693 261 693 270 693 c 2,11,-1
 321 693 l 2,12,13
 335 693 335 693 343 684 c 2,14,-1
 398 617 l 2,15,16
 400 615 400 615 399 611.5 c 128,-1,17
 398 608 398 608 393 608 c 2,18,-1
 350 608 l 2,19,20
 333 608 333 608 324 620 c 2,21,-1
 292 663 l 1,0,-1
121 153 m 1,22,-1
 47 12 l 2,23,24
 42 0 42 0 31 0 c 2,25,-1
 -29 0 l 2,26,27
 -38 0 -38 0 -33 9 c 2,28,-1
 257 548 l 2,29,30
 263 556 263 556 270 556 c 2,31,-1
 289 556 l 2,32,33
 317 556 317 556 330.5 544.5 c 128,-1,34
 344 533 344 533 350 500 c 2,35,-1
 442 9 l 2,36,37
 444 0 444 0 434 0 c 2,38,-1
 379 0 l 2,39,40
 371 0 371 0 368.5 3 c 128,-1,41
 366 6 366 6 365 12 c 2,42,-1
 340 153 l 1,43,-1
 121 153 l 1,22,-1
157 221 m 1,44,-1
 328 221 l 1,45,-1
 285 463 l 1,46,-1
 157 221 l 1,44,-1
EndSplineSet
EndChar

StartChar: Atilde
Encoding: 195 195 128
Width: 495
GlyphClass: 1
Flags: W
LayerCount: 2
Fore
SplineSet
406 681 m 0,0,1
 386 608 386 608 327 608 c 0,2,3
 310 608 310 608 294 615 c 128,-1,4
 278 622 278 622 264 629 c 128,-1,5
 250 636 250 636 238 636 c 0,6,7
 222 636 222 636 216 617 c 0,8,9
 212 607 212 607 205 607 c 2,10,-1
 171 607 l 2,11,12
 164 607 164 607 165 616 c 0,13,14
 182 691 182 691 238 691 c 0,15,16
 257 691 257 691 273.5 684 c 128,-1,17
 290 677 290 677 304 669.5 c 128,-1,18
 318 662 318 662 331 662 c 0,19,20
 346 662 346 662 354 679 c 0,21,22
 358 689 358 689 366 689 c 2,23,-1
 400 689 l 2,24,25
 408 689 408 689 406 681 c 0,0,1
121 153 m 1,26,-1
 47 12 l 2,27,28
 42 0 42 0 31 0 c 2,29,-1
 -29 0 l 2,30,31
 -38 0 -38 0 -33 9 c 2,32,-1
 257 548 l 2,33,34
 263 556 263 556 270 556 c 2,35,-1
 289 556 l 2,36,37
 317 556 317 556 330.5 544.5 c 128,-1,38
 344 533 344 533 350 500 c 2,39,-1
 442 9 l 2,40,41
 444 0 444 0 434 0 c 2,42,-1
 379 0 l 2,43,44
 371 0 371 0 368.5 3 c 128,-1,45
 366 6 366 6 365 12 c 2,46,-1
 340 153 l 1,47,-1
 121 153 l 1,26,-1
157 221 m 1,48,-1
 328 221 l 1,49,-1
 285 463 l 1,50,-1
 157 221 l 1,48,-1
EndSplineSet
EndChar

StartChar: Adieresis
Encoding: 196 196 129
Width: 495
GlyphClass: 1
Flags: W
LayerCount: 2
Fore
SplineSet
174 638 m 0,0,1
 174 659 174 659 189 675 c 128,-1,2
 204 691 204 691 226 691 c 0,3,4
 244 691 244 691 254 681 c 128,-1,5
 264 671 264 671 264 654 c 0,6,7
 263 632 263 632 248 616 c 128,-1,8
 233 600 233 600 211 600 c 0,9,10
 176 600 176 600 174 638 c 0,0,1
306 638 m 0,11,12
 306 659 306 659 321 675 c 128,-1,13
 336 691 336 691 358 691 c 0,14,15
 376 691 376 691 386 681 c 128,-1,16
 396 671 396 671 396 654 c 0,17,18
 395 632 395 632 380 616 c 128,-1,19
 365 600 365 600 343 600 c 0,20,21
 308 600 308 600 306 638 c 0,11,12
121 153 m 1,22,-1
 47 12 l 2,23,24
 42 0 42 0 31 0 c 2,25,-1
 -29 0 l 2,26,27
 -38 0 -38 0 -33 9 c 2,28,-1
 257 548 l 2,29,30
 263 556 263 556 270 556 c 2,31,-1
 289 556 l 2,32,33
 317 556 317 556 330.5 544.5 c 128,-1,34
 344 533 344 533 350 500 c 2,35,-1
 442 9 l 2,36,37
 444 0 444 0 434 0 c 2,38,-1
 379 0 l 2,39,40
 371 0 371 0 368.5 3 c 128,-1,41
 366 6 366 6 365 12 c 2,42,-1
 340 153 l 1,43,-1
 121 153 l 1,22,-1
157 221 m 1,44,-1
 328 221 l 1,45,-1
 285 463 l 1,46,-1
 157 221 l 1,44,-1
EndSplineSet
EndChar

StartChar: Aring
Encoding: 197 197 130
Width: 495
GlyphClass: 1
Flags: W
LayerCount: 2
Fore
SplineSet
222 659 m 0,0,1
 223 692 223 692 247 714.5 c 128,-1,2
 271 737 271 737 302 737 c 0,3,4
 328 737 328 737 345 720.5 c 128,-1,5
 362 704 362 704 362 679 c 0,6,7
 361 645 361 645 338.5 621 c 128,-1,8
 316 597 316 597 283 597 c 0,9,10
 255 597 255 597 238.5 614.5 c 128,-1,11
 222 632 222 632 222 659 c 0,0,1
260 661 m 0,12,13
 260 633 260 633 286 633 c 0,14,15
 306 633 306 633 315.5 645.5 c 128,-1,16
 325 658 325 658 324 674 c 0,17,18
 324 702 324 702 298 702 c 0,19,20
 281 702 281 702 270.5 689.5 c 128,-1,21
 260 677 260 677 260 661 c 0,12,13
121 153 m 1,22,-1
 47 12 l 2,23,24
 42 0 42 0 31 0 c 2,25,-1
 -29 0 l 2,26,27
 -38 0 -38 0 -33 9 c 2,28,-1
 257 548 l 2,29,30
 263 556 263 556 270 556 c 2,31,-1
 289 556 l 2,32,33
 317 556 317 556 330.5 544.5 c 128,-1,34
 344 533 344 533 350 500 c 2,35,-1
 442 9 l 2,36,37
 444 0 444 0 434 0 c 2,38,-1
 379 0 l 2,39,40
 371 0 371 0 368.5 3 c 128,-1,41
 366 6 366 6 365 12 c 2,42,-1
 340 153 l 1,43,-1
 121 153 l 1,22,-1
157 221 m 1,44,-1
 328 221 l 1,45,-1
 285 463 l 1,46,-1
 157 221 l 1,44,-1
EndSplineSet
EndChar

StartChar: AE
Encoding: 198 198 131
Width: 661
GlyphClass: 1
Flags: W
LayerCount: 2
Fore
SplineSet
142 153 m 1,0,-1
 46 12 l 2,1,2
 38 0 38 0 26 0 c 2,3,-1
 -34 0 l 2,4,5
 -44 0 -44 0 -37 9 c 2,6,-1
 340 547 l 2,7,8
 342 552 342 552 347.5 554 c 128,-1,9
 353 556 353 556 357 556 c 2,10,-1
 642 556 l 2,11,12
 684 556 684 556 676 513 c 2,13,-1
 673 496 l 2,14,15
 671 485 671 485 662 485 c 2,16,-1
 446 485 l 1,17,-1
 415 312 l 1,18,-1
 577 312 l 2,19,20
 623 312 623 312 615 268 c 2,21,-1
 612 252 l 2,22,23
 610 242 610 242 598 242 c 2,24,-1
 403 242 l 1,25,-1
 372 71 l 1,26,-1
 562 71 l 2,27,28
 585 71 585 71 594 59 c 128,-1,29
 603 47 603 47 599 27 c 2,30,-1
 596 11 l 2,31,32
 594 0 594 0 582 0 c 2,33,-1
 294 0 l 2,34,35
 287 0 287 0 288 9 c 2,36,-1
 314 153 l 1,37,-1
 142 153 l 1,0,-1
188 221 m 1,38,-1
 326 221 l 1,39,-1
 372 486 l 1,40,-1
 188 221 l 1,38,-1
EndSplineSet
EndChar

StartChar: Ccedilla
Encoding: 199 199 132
Width: 500
GlyphClass: 1
Flags: W
LayerCount: 2
Fore
SplineSet
285 -10 m 1,0,-1
 231 -92 l 2,1,2
 226 -99 226 -99 220 -101.5 c 128,-1,3
 214 -104 214 -104 205 -104 c 2,4,-1
 157 -104 l 2,5,6
 153 -104 153 -104 153 -101 c 128,-1,7
 153 -98 153 -98 155 -96 c 2,8,-1
 224 -9 l 1,9,10
 145 2 145 2 99.5 62 c 128,-1,11
 54 122 54 122 54 222 c 0,12,13
 54 292 54 292 77.5 354.5 c 128,-1,14
 101 417 101 417 142.5 464.5 c 128,-1,15
 184 512 184 512 240 539.5 c 128,-1,16
 296 567 296 567 361 567 c 0,17,18
 401 567 401 567 430.5 558 c 128,-1,19
 460 549 460 549 485 538 c 0,20,21
 508 527 508 527 514 513 c 128,-1,22
 520 499 520 499 511 477 c 2,23,-1
 502 456 l 2,24,25
 499 446 499 446 491 446 c 0,26,27
 486 446 486 446 478 452 c 0,28,29
 453 472 453 472 422.5 483.5 c 128,-1,30
 392 495 392 495 351 495 c 0,31,32
 288 495 288 495 238 458.5 c 128,-1,33
 188 422 188 422 159.5 360.5 c 128,-1,34
 131 299 131 299 131 224 c 0,35,36
 131 145 131 145 165.5 103 c 128,-1,37
 200 61 200 61 272 61 c 0,38,39
 331 61 331 61 370 83 c 128,-1,40
 409 105 409 105 435 132 c 0,41,42
 445 142 445 142 452 142 c 0,43,44
 463 142 463 142 463 128 c 0,45,46
 463 115 463 115 452 93.5 c 128,-1,47
 441 72 441 72 418.5 50 c 128,-1,48
 396 28 396 28 362.5 11.5 c 128,-1,49
 329 -5 329 -5 285 -10 c 1,0,-1
EndSplineSet
EndChar

StartChar: Egrave
Encoding: 200 200 133
Width: 399
GlyphClass: 1
Flags: W
LayerCount: 2
Fore
SplineSet
315 617 m 2,0,1
 318 615 318 615 316.5 611.5 c 128,-1,2
 315 608 315 608 310 608 c 2,3,-1
 259 608 l 2,4,5
 243 608 243 608 233 619 c 2,6,-1
 165 684 l 2,7,8
 163 687 163 687 165 690 c 128,-1,9
 167 693 167 693 171 693 c 2,10,-1
 234 693 l 2,11,12
 247 693 247 693 256 684 c 2,13,-1
 315 617 l 2,0,1
112 71 m 1,14,-1
 303 71 l 2,15,16
 325 71 325 71 333.5 59 c 128,-1,17
 342 47 342 47 339 27 c 2,18,-1
 336 11 l 2,19,20
 333 0 333 0 323 0 c 2,21,-1
 33 0 l 2,22,23
 26 0 26 0 27 9 c 2,24,-1
 122 547 l 2,25,26
 124 556 124 556 131 556 c 2,27,-1
 380 556 l 2,28,29
 423 556 423 556 415 513 c 2,30,-1
 413 496 l 2,31,32
 411 485 411 485 400 485 c 2,33,-1
 185 485 l 1,34,-1
 154 312 l 1,35,-1
 318 312 l 2,36,37
 362 312 362 312 354 268 c 2,38,-1
 352 252 l 2,39,40
 349 242 349 242 339 242 c 2,41,-1
 142 242 l 1,42,-1
 112 71 l 1,14,-1
EndSplineSet
EndChar

StartChar: Eacute
Encoding: 201 201 134
Width: 399
GlyphClass: 1
Flags: W
LayerCount: 2
Fore
SplineSet
187 617 m 2,0,-1
 269 684 l 2,1,2
 281 693 281 693 294 693 c 2,3,-1
 358 693 l 2,4,5
 363 693 363 693 363.5 690 c 128,-1,6
 364 687 364 687 360 684 c 2,7,-1
 270 619 l 2,8,9
 255 608 255 608 240 608 c 2,10,-1
 189 608 l 2,11,12
 185 608 185 608 184 611.5 c 128,-1,13
 183 615 183 615 187 617 c 2,0,-1
112 71 m 1,14,-1
 303 71 l 2,15,16
 325 71 325 71 333.5 59 c 128,-1,17
 342 47 342 47 339 27 c 2,18,-1
 336 11 l 2,19,20
 333 0 333 0 323 0 c 2,21,-1
 33 0 l 2,22,23
 26 0 26 0 27 9 c 2,24,-1
 122 547 l 2,25,26
 124 556 124 556 131 556 c 2,27,-1
 380 556 l 2,28,29
 423 556 423 556 415 513 c 2,30,-1
 413 496 l 2,31,32
 411 485 411 485 400 485 c 2,33,-1
 185 485 l 1,34,-1
 154 312 l 1,35,-1
 318 312 l 2,36,37
 362 312 362 312 354 268 c 2,38,-1
 352 252 l 2,39,40
 349 242 349 242 339 242 c 2,41,-1
 142 242 l 1,42,-1
 112 71 l 1,14,-1
EndSplineSet
EndChar

StartChar: Ecircumflex
Encoding: 202 202 135
Width: 399
GlyphClass: 1
Flags: W
LayerCount: 2
Fore
SplineSet
260 663 m 1,0,-1
 213 620 l 2,1,2
 201 608 201 608 183 608 c 2,3,-1
 135 608 l 2,4,5
 131 608 131 608 130.5 611.5 c 128,-1,6
 130 615 130 615 133 617 c 2,7,-1
 212 684 l 2,8,9
 218 690 218 690 223.5 691.5 c 128,-1,10
 229 693 229 693 238 693 c 2,11,-1
 289 693 l 2,12,13
 303 693 303 693 311 684 c 2,14,-1
 367 617 l 2,15,16
 369 615 369 615 367.5 611.5 c 128,-1,17
 366 608 366 608 361 608 c 2,18,-1
 318 608 l 2,19,20
 301 608 301 608 292 620 c 2,21,-1
 260 663 l 1,0,-1
112 71 m 1,22,-1
 303 71 l 2,23,24
 325 71 325 71 333.5 59 c 128,-1,25
 342 47 342 47 339 27 c 2,26,-1
 336 11 l 2,27,28
 333 0 333 0 323 0 c 2,29,-1
 33 0 l 2,30,31
 26 0 26 0 27 9 c 2,32,-1
 122 547 l 2,33,34
 124 556 124 556 131 556 c 2,35,-1
 380 556 l 2,36,37
 423 556 423 556 415 513 c 2,38,-1
 413 496 l 2,39,40
 411 485 411 485 400 485 c 2,41,-1
 185 485 l 1,42,-1
 154 312 l 1,43,-1
 318 312 l 2,44,45
 362 312 362 312 354 268 c 2,46,-1
 352 252 l 2,47,48
 349 242 349 242 339 242 c 2,49,-1
 142 242 l 1,50,-1
 112 71 l 1,22,-1
EndSplineSet
EndChar

StartChar: Edieresis
Encoding: 203 203 136
Width: 399
GlyphClass: 1
Flags: W
LayerCount: 2
Fore
SplineSet
147 638 m 0,0,1
 147 659 147 659 162 675 c 128,-1,2
 177 691 177 691 199 691 c 0,3,4
 217 691 217 691 227 681 c 128,-1,5
 237 671 237 671 237 654 c 0,6,7
 237 632 237 632 221.5 616 c 128,-1,8
 206 600 206 600 184 600 c 0,9,10
 149 600 149 600 147 638 c 0,0,1
279 638 m 0,11,12
 279 659 279 659 294 675 c 128,-1,13
 309 691 309 691 331 691 c 0,14,15
 349 691 349 691 359 681 c 128,-1,16
 369 671 369 671 369 654 c 0,17,18
 368 632 368 632 353 616 c 128,-1,19
 338 600 338 600 316 600 c 0,20,21
 281 600 281 600 279 638 c 0,11,12
112 71 m 1,22,-1
 303 71 l 2,23,24
 325 71 325 71 333.5 59 c 128,-1,25
 342 47 342 47 339 27 c 2,26,-1
 336 11 l 2,27,28
 333 0 333 0 323 0 c 2,29,-1
 33 0 l 2,30,31
 26 0 26 0 27 9 c 2,32,-1
 122 547 l 2,33,34
 124 556 124 556 131 556 c 2,35,-1
 380 556 l 2,36,37
 423 556 423 556 415 513 c 2,38,-1
 413 496 l 2,39,40
 411 485 411 485 400 485 c 2,41,-1
 185 485 l 1,42,-1
 154 312 l 1,43,-1
 318 312 l 2,44,45
 362 312 362 312 354 268 c 2,46,-1
 352 252 l 2,47,48
 349 242 349 242 339 242 c 2,49,-1
 142 242 l 1,50,-1
 112 71 l 1,22,-1
EndSplineSet
EndChar

StartChar: Igrave
Encoding: 204 204 137
Width: 202
GlyphClass: 1
Flags: W
LayerCount: 2
Fore
SplineSet
214 617 m 2,0,1
 217 615 217 615 215.5 611.5 c 128,-1,2
 214 608 214 608 209 608 c 2,3,-1
 158 608 l 2,4,5
 142 608 142 608 132 619 c 2,6,-1
 64 684 l 2,7,8
 62 687 62 687 64 690 c 128,-1,9
 66 693 66 693 70 693 c 2,10,-1
 133 693 l 2,11,12
 146 693 146 693 155 684 c 2,13,-1
 214 617 l 2,0,1
33 0 m 2,14,15
 26 0 26 0 27 9 c 2,16,-1
 122 547 l 2,17,18
 124 556 124 556 131 556 c 2,19,-1
 138 556 l 2,20,21
 166 556 166 556 178.5 538.5 c 128,-1,22
 191 521 191 521 184 485 c 2,23,-1
 100 9 l 2,24,25
 99 0 99 0 91 0 c 2,26,-1
 33 0 l 2,14,15
EndSplineSet
EndChar

StartChar: Iacute
Encoding: 205 205 138
Width: 202
GlyphClass: 1
Flags: W
LayerCount: 2
Fore
SplineSet
85 617 m 2,0,-1
 168 684 l 2,1,2
 180 693 180 693 193 693 c 2,3,-1
 257 693 l 2,4,5
 261 693 261 693 261.5 690 c 128,-1,6
 262 687 262 687 259 684 c 2,7,-1
 168 619 l 2,8,9
 154 608 154 608 138 608 c 2,10,-1
 87 608 l 2,11,12
 83 608 83 608 82 611.5 c 128,-1,13
 81 615 81 615 85 617 c 2,0,-1
33 0 m 2,14,15
 26 0 26 0 27 9 c 2,16,-1
 122 547 l 2,17,18
 124 556 124 556 131 556 c 2,19,-1
 138 556 l 2,20,21
 166 556 166 556 178.5 538.5 c 128,-1,22
 191 521 191 521 184 485 c 2,23,-1
 100 9 l 2,24,25
 99 0 99 0 91 0 c 2,26,-1
 33 0 l 2,14,15
EndSplineSet
EndChar

StartChar: Icircumflex
Encoding: 206 206 139
Width: 202
GlyphClass: 1
Flags: W
LayerCount: 2
Fore
SplineSet
178 663 m 1,0,-1
 130 620 l 2,1,2
 118 608 118 608 100 608 c 2,3,-1
 53 608 l 2,4,5
 49 608 49 608 48 611.5 c 128,-1,6
 47 615 47 615 51 617 c 2,7,-1
 129 684 l 2,8,9
 136 690 136 690 141.5 691.5 c 128,-1,10
 147 693 147 693 155 693 c 2,11,-1
 207 693 l 2,12,13
 221 693 221 693 229 684 c 2,14,-1
 284 617 l 2,15,16
 286 615 286 615 285 611.5 c 128,-1,17
 284 608 284 608 279 608 c 2,18,-1
 235 608 l 2,19,20
 218 608 218 608 210 620 c 2,21,-1
 178 663 l 1,0,-1
44 0 m 2,22,23
 37 0 37 0 38 9 c 2,24,-1
 133 547 l 2,25,26
 135 556 135 556 142 556 c 2,27,-1
 149 556 l 2,28,29
 177 556 177 556 189.5 538.5 c 128,-1,30
 202 521 202 521 195 485 c 2,31,-1
 111 9 l 2,32,33
 110 0 110 0 102 0 c 2,34,-1
 44 0 l 2,22,23
EndSplineSet
EndChar

StartChar: Idieresis
Encoding: 207 207 140
Width: 202
GlyphClass: 1
Flags: W
LayerCount: 2
Fore
SplineSet
53 638 m 0,0,1
 53 659 53 659 67.5 675 c 128,-1,2
 82 691 82 691 104 691 c 0,3,4
 123 691 123 691 133 681 c 128,-1,5
 143 671 143 671 143 654 c 0,6,7
 142 632 142 632 126.5 616 c 128,-1,8
 111 600 111 600 89 600 c 0,9,10
 53 600 53 600 53 638 c 0,0,1
185 638 m 0,11,12
 185 659 185 659 200 675 c 128,-1,13
 215 691 215 691 237 691 c 0,14,15
 254 691 254 691 264 681 c 128,-1,16
 274 671 274 671 274 654 c 0,17,18
 274 632 274 632 258.5 616 c 128,-1,19
 243 600 243 600 222 600 c 0,20,21
 185 600 185 600 185 638 c 0,11,12
33 0 m 2,22,23
 26 0 26 0 27 9 c 2,24,-1
 122 547 l 2,25,26
 124 556 124 556 131 556 c 2,27,-1
 138 556 l 2,28,29
 166 556 166 556 178.5 538.5 c 128,-1,30
 191 521 191 521 184 485 c 2,31,-1
 100 9 l 2,32,33
 99 0 99 0 91 0 c 2,34,-1
 33 0 l 2,22,23
EndSplineSet
EndChar

StartChar: Eth
Encoding: 208 208 141
Width: 558
GlyphClass: 1
Flags: W
LayerCount: 2
Fore
SplineSet
82 244 m 1,0,-1
 31 244 l 2,1,2
 24 244 24 244 25 253 c 2,3,-1
 34 307 l 2,4,5
 35 315 35 315 44 315 c 2,6,-1
 95 315 l 1,7,-1
 135 547 l 2,8,9
 137 556 137 556 145 556 c 2,10,-1
 296 556 l 2,11,12
 402 556 402 556 463 498 c 128,-1,13
 524 440 524 440 524 339 c 0,14,15
 524 242 524 242 487.5 165 c 128,-1,16
 451 88 451 88 381 44 c 128,-1,17
 311 0 311 0 210 0 c 2,18,-1
 47 0 l 2,19,20
 39 0 39 0 41 9 c 2,21,-1
 82 244 l 1,0,-1
125 71 m 1,22,-1
 219 71 l 2,23,24
 324 71 324 71 385 140.5 c 128,-1,25
 446 210 446 210 446 330 c 0,26,27
 446 485 446 485 280 485 c 2,28,-1
 198 485 l 1,29,-1
 168 315 l 1,30,-1
 292 315 l 2,31,32
 336 315 336 315 328 272 c 2,33,-1
 325 256 l 2,34,35
 324 244 324 244 312 244 c 2,36,-1
 156 244 l 1,37,-1
 125 71 l 1,22,-1
EndSplineSet
EndChar

StartChar: Ntilde
Encoding: 209 209 142
Width: 516
GlyphClass: 1
Flags: W
LayerCount: 2
Fore
SplineSet
424 681 m 0,0,1
 403 608 403 608 344 608 c 0,2,3
 327 608 327 608 311 615 c 128,-1,4
 295 622 295 622 281 629 c 128,-1,5
 267 636 267 636 255 636 c 0,6,7
 239 636 239 636 233 617 c 0,8,9
 230 607 230 607 223 607 c 2,10,-1
 189 607 l 2,11,12
 182 607 182 607 183 616 c 0,13,14
 200 691 200 691 255 691 c 0,15,16
 274 691 274 691 290.5 684 c 128,-1,17
 307 677 307 677 321.5 669.5 c 128,-1,18
 336 662 336 662 349 662 c 0,19,20
 364 662 364 662 372 679 c 0,21,22
 375 689 375 689 384 689 c 2,23,-1
 418 689 l 2,24,25
 424 689 424 689 424 681 c 0,0,1
365 138 m 1,26,-1
 437 547 l 2,27,28
 439 556 439 556 446 556 c 2,29,-1
 452 556 l 2,30,31
 511 556 511 556 498 485 c 2,32,-1
 414 9 l 2,33,34
 413 0 413 0 405 0 c 2,35,-1
 357 0 l 2,36,37
 343 0 343 0 338 13 c 2,38,-1
 171 412 l 1,39,-1
 100 9 l 2,40,41
 99 0 99 0 91 0 c 2,42,-1
 33 0 l 2,43,44
 26 0 26 0 27 9 c 2,45,-1
 122 547 l 2,46,47
 124 556 124 556 131 556 c 2,48,-1
 148 556 l 2,49,50
 176 556 176 556 187 545 c 128,-1,51
 198 534 198 534 208 511 c 2,52,-1
 365 138 l 1,26,-1
EndSplineSet
EndChar

StartChar: Ograve
Encoding: 210 210 143
Width: 592
GlyphClass: 1
Flags: W
LayerCount: 2
Fore
SplineSet
417 617 m 2,0,1
 420 615 420 615 418.5 611.5 c 128,-1,2
 417 608 417 608 412 608 c 2,3,-1
 361 608 l 2,4,5
 345 608 345 608 335 619 c 2,6,-1
 267 684 l 2,7,8
 265 687 265 687 267 690 c 128,-1,9
 269 693 269 693 273 693 c 2,10,-1
 336 693 l 2,11,12
 349 693 349 693 358 684 c 2,13,-1
 417 617 l 2,0,1
54 219 m 0,14,15
 54 290 54 290 78.5 353 c 128,-1,16
 103 416 103 416 145 464 c 128,-1,17
 187 512 187 512 242 539.5 c 128,-1,18
 297 567 297 567 357 567 c 0,19,20
 449 567 449 567 503 508 c 128,-1,21
 557 449 557 449 557 347 c 0,22,23
 557 279 557 279 536.5 215 c 128,-1,24
 516 151 516 151 477.5 100.5 c 128,-1,25
 439 50 439 50 384 20 c 128,-1,26
 329 -10 329 -10 259 -10 c 0,27,28
 164 -10 164 -10 109.5 50 c 128,-1,29
 55 110 55 110 54 219 c 0,14,15
131 219 m 0,30,31
 132 143 132 143 165.5 102.5 c 128,-1,32
 199 62 199 62 263 62 c 256,33,34
 327 62 327 62 375.5 99 c 128,-1,35
 424 136 424 136 452 200.5 c 128,-1,36
 480 265 480 265 480 347 c 0,37,38
 480 419 480 419 445.5 457 c 128,-1,39
 411 495 411 495 346 495 c 0,40,41
 289 495 289 495 240 458 c 128,-1,42
 191 421 191 421 161 358.5 c 128,-1,43
 131 296 131 296 131 219 c 0,30,31
EndSplineSet
EndChar

StartChar: Oacute
Encoding: 211 211 144
Width: 592
GlyphClass: 1
Flags: W
LayerCount: 2
Fore
SplineSet
262 617 m 2,0,-1
 345 684 l 2,1,2
 357 693 357 693 370 693 c 2,3,-1
 434 693 l 2,4,5
 439 693 439 693 439.5 690 c 128,-1,6
 440 687 440 687 436 684 c 2,7,-1
 346 619 l 2,8,9
 331 608 331 608 316 608 c 2,10,-1
 265 608 l 2,11,12
 260 608 260 608 259.5 611.5 c 128,-1,13
 259 615 259 615 262 617 c 2,0,-1
54 219 m 0,14,15
 54 290 54 290 78.5 353 c 128,-1,16
 103 416 103 416 145 464 c 128,-1,17
 187 512 187 512 242 539.5 c 128,-1,18
 297 567 297 567 357 567 c 0,19,20
 449 567 449 567 503 508 c 128,-1,21
 557 449 557 449 557 347 c 0,22,23
 557 279 557 279 536.5 215 c 128,-1,24
 516 151 516 151 477.5 100.5 c 128,-1,25
 439 50 439 50 384 20 c 128,-1,26
 329 -10 329 -10 259 -10 c 0,27,28
 164 -10 164 -10 109.5 50 c 128,-1,29
 55 110 55 110 54 219 c 0,14,15
131 219 m 0,30,31
 132 143 132 143 165.5 102.5 c 128,-1,32
 199 62 199 62 263 62 c 256,33,34
 327 62 327 62 375.5 99 c 128,-1,35
 424 136 424 136 452 200.5 c 128,-1,36
 480 265 480 265 480 347 c 0,37,38
 480 419 480 419 445.5 457 c 128,-1,39
 411 495 411 495 346 495 c 0,40,41
 289 495 289 495 240 458 c 128,-1,42
 191 421 191 421 161 358.5 c 128,-1,43
 131 296 131 296 131 219 c 0,30,31
EndSplineSet
EndChar

StartChar: Ocircumflex
Encoding: 212 212 145
Width: 592
GlyphClass: 1
Flags: W
LayerCount: 2
Fore
SplineSet
347 663 m 1,0,-1
 300 620 l 2,1,2
 288 608 288 608 270 608 c 2,3,-1
 223 608 l 2,4,5
 219 608 219 608 218 611.5 c 128,-1,6
 217 615 217 615 221 617 c 2,7,-1
 299 684 l 2,8,9
 306 690 306 690 311 691.5 c 128,-1,10
 316 693 316 693 325 693 c 2,11,-1
 377 693 l 2,12,13
 391 693 391 693 398 684 c 2,14,-1
 454 617 l 2,15,16
 456 615 456 615 454.5 611.5 c 128,-1,17
 453 608 453 608 448 608 c 2,18,-1
 405 608 l 2,19,20
 388 608 388 608 380 620 c 2,21,-1
 347 663 l 1,0,-1
54 219 m 0,22,23
 54 290 54 290 78.5 353 c 128,-1,24
 103 416 103 416 145 464 c 128,-1,25
 187 512 187 512 242 539.5 c 128,-1,26
 297 567 297 567 357 567 c 0,27,28
 449 567 449 567 503 508 c 128,-1,29
 557 449 557 449 557 347 c 0,30,31
 557 279 557 279 536.5 215 c 128,-1,32
 516 151 516 151 477.5 100.5 c 128,-1,33
 439 50 439 50 384 20 c 128,-1,34
 329 -10 329 -10 259 -10 c 0,35,36
 164 -10 164 -10 109.5 50 c 128,-1,37
 55 110 55 110 54 219 c 0,22,23
131 219 m 0,38,39
 132 143 132 143 165.5 102.5 c 128,-1,40
 199 62 199 62 263 62 c 256,41,42
 327 62 327 62 375.5 99 c 128,-1,43
 424 136 424 136 452 200.5 c 128,-1,44
 480 265 480 265 480 347 c 0,45,46
 480 419 480 419 445.5 457 c 128,-1,47
 411 495 411 495 346 495 c 0,48,49
 289 495 289 495 240 458 c 128,-1,50
 191 421 191 421 161 358.5 c 128,-1,51
 131 296 131 296 131 219 c 0,38,39
EndSplineSet
EndChar

StartChar: Otilde
Encoding: 213 213 146
Width: 592
GlyphClass: 1
Flags: W
LayerCount: 2
Fore
SplineSet
464 681 m 0,0,1
 444 608 444 608 385 608 c 0,2,3
 368 608 368 608 352 615 c 128,-1,4
 336 622 336 622 322 629 c 128,-1,5
 308 636 308 636 296 636 c 0,6,7
 279 636 279 636 273 617 c 0,8,9
 270 607 270 607 263 607 c 2,10,-1
 229 607 l 2,11,12
 222 607 222 607 223 616 c 0,13,14
 240 691 240 691 296 691 c 0,15,16
 315 691 315 691 331 684 c 128,-1,17
 347 677 347 677 361.5 669.5 c 128,-1,18
 376 662 376 662 389 662 c 0,19,20
 404 662 404 662 412 679 c 0,21,22
 416 689 416 689 424 689 c 2,23,-1
 458 689 l 2,24,25
 466 689 466 689 464 681 c 0,0,1
54 219 m 0,26,27
 54 290 54 290 78.5 353 c 128,-1,28
 103 416 103 416 145 464 c 128,-1,29
 187 512 187 512 242 539.5 c 128,-1,30
 297 567 297 567 357 567 c 0,31,32
 449 567 449 567 503 508 c 128,-1,33
 557 449 557 449 557 347 c 0,34,35
 557 279 557 279 536.5 215 c 128,-1,36
 516 151 516 151 477.5 100.5 c 128,-1,37
 439 50 439 50 384 20 c 128,-1,38
 329 -10 329 -10 259 -10 c 0,39,40
 164 -10 164 -10 109.5 50 c 128,-1,41
 55 110 55 110 54 219 c 0,26,27
131 219 m 0,42,43
 132 143 132 143 165.5 102.5 c 128,-1,44
 199 62 199 62 263 62 c 256,45,46
 327 62 327 62 375.5 99 c 128,-1,47
 424 136 424 136 452 200.5 c 128,-1,48
 480 265 480 265 480 347 c 0,49,50
 480 419 480 419 445.5 457 c 128,-1,51
 411 495 411 495 346 495 c 0,52,53
 289 495 289 495 240 458 c 128,-1,54
 191 421 191 421 161 358.5 c 128,-1,55
 131 296 131 296 131 219 c 0,42,43
EndSplineSet
EndChar

StartChar: Odieresis
Encoding: 214 214 147
Width: 592
GlyphClass: 1
Flags: W
LayerCount: 2
Fore
SplineSet
233 638 m 0,0,1
 233 659 233 659 248 675 c 128,-1,2
 263 691 263 691 285 691 c 0,3,4
 304 691 304 691 313.5 681 c 128,-1,5
 323 671 323 671 323 654 c 0,6,7
 323 632 323 632 307.5 616 c 128,-1,8
 292 600 292 600 270 600 c 0,9,10
 235 600 235 600 233 638 c 0,0,1
366 638 m 0,11,12
 366 659 366 659 380.5 675 c 128,-1,13
 395 691 395 691 417 691 c 0,14,15
 435 691 435 691 445 681 c 128,-1,16
 455 671 455 671 455 654 c 0,17,18
 455 632 455 632 439.5 616 c 128,-1,19
 424 600 424 600 402 600 c 0,20,21
 366 600 366 600 366 638 c 0,11,12
54 219 m 0,22,23
 54 290 54 290 78.5 353 c 128,-1,24
 103 416 103 416 145 464 c 128,-1,25
 187 512 187 512 242 539.5 c 128,-1,26
 297 567 297 567 357 567 c 0,27,28
 449 567 449 567 503 508 c 128,-1,29
 557 449 557 449 557 347 c 0,30,31
 557 279 557 279 536.5 215 c 128,-1,32
 516 151 516 151 477.5 100.5 c 128,-1,33
 439 50 439 50 384 20 c 128,-1,34
 329 -10 329 -10 259 -10 c 0,35,36
 164 -10 164 -10 109.5 50 c 128,-1,37
 55 110 55 110 54 219 c 0,22,23
131 219 m 0,38,39
 132 143 132 143 165.5 102.5 c 128,-1,40
 199 62 199 62 263 62 c 256,41,42
 327 62 327 62 375.5 99 c 128,-1,43
 424 136 424 136 452 200.5 c 128,-1,44
 480 265 480 265 480 347 c 0,45,46
 480 419 480 419 445.5 457 c 128,-1,47
 411 495 411 495 346 495 c 0,48,49
 289 495 289 495 240 458 c 128,-1,50
 191 421 191 421 161 358.5 c 128,-1,51
 131 296 131 296 131 219 c 0,38,39
EndSplineSet
EndChar

StartChar: multiply
Encoding: 215 215 148
Width: 403
GlyphClass: 1
Flags: W
LayerCount: 2
Fore
SplineSet
160 274 m 1,0,-1
 48 386 l 2,1,2
 41 391 41 391 47 398 c 0,3,4
 69 419 69 419 86.5 417 c 128,-1,5
 104 415 104 415 126 393 c 2,6,-1
 203 317 l 1,7,-1
 309 422 l 2,8,9
 313 428 313 428 319 422 c 2,10,-1
 350 392 l 2,11,12
 357 386 357 386 350 379 c 2,13,-1
 246 274 l 1,14,-1
 357 162 l 2,15,16
 363 156 363 156 357 150 c 0,17,18
 336 128 336 128 318.5 130.5 c 128,-1,19
 301 133 301 133 277 155 c 2,20,-1
 202 232 l 1,21,-1
 97 126 l 2,22,23
 91 120 91 120 85 126 c 2,24,-1
 54 156 l 2,25,26
 47 161 47 161 54 168 c 2,27,-1
 160 274 l 1,0,-1
EndSplineSet
EndChar

StartChar: Oslash
Encoding: 216 216 149
Width: 591
GlyphClass: 1
Flags: W
LayerCount: 2
Fore
SplineSet
259 -10 m 0,0,1
 164 -10 164 -10 109 50 c 128,-1,2
 54 110 54 110 54 219 c 0,3,4
 54 290 54 290 78 353 c 128,-1,5
 102 416 102 416 144.5 464 c 128,-1,6
 187 512 187 512 241.5 539.5 c 128,-1,7
 296 567 296 567 356 567 c 0,8,9
 449 567 449 567 503 508 c 128,-1,10
 557 449 557 449 557 347 c 0,11,12
 557 279 557 279 536.5 215 c 128,-1,13
 516 151 516 151 477.5 100.5 c 128,-1,14
 439 50 439 50 384 20 c 128,-1,15
 329 -10 329 -10 259 -10 c 0,0,1
150 127 m 1,16,-1
 425 474 l 1,17,18
 394 495 394 495 346 495 c 0,19,20
 289 495 289 495 240 458 c 128,-1,21
 191 421 191 421 161.5 358.5 c 128,-1,22
 132 296 132 296 132 219 c 0,23,24
 132 163 132 163 150 127 c 1,16,-1
463 429 m 1,25,-1
 188 82 l 1,26,27
 217 62 217 62 263 62 c 0,28,29
 327 62 327 62 375.5 99 c 128,-1,30
 424 136 424 136 452 200.5 c 128,-1,31
 480 265 480 265 480 347 c 0,32,33
 480 371 480 371 476 392 c 128,-1,34
 472 413 472 413 463 429 c 1,25,-1
EndSplineSet
EndChar

StartChar: Ugrave
Encoding: 217 217 150
Width: 517
GlyphClass: 1
Flags: W
LayerCount: 2
Fore
SplineSet
380 617 m 2,0,1
 382 615 382 615 381 611.5 c 128,-1,2
 380 608 380 608 375 608 c 2,3,-1
 323 608 l 2,4,5
 308 608 308 608 298 619 c 2,6,-1
 230 684 l 2,7,8
 228 687 228 687 230 690 c 128,-1,9
 232 693 232 693 236 693 c 2,10,-1
 298 693 l 2,11,12
 307 693 307 693 311.5 691 c 128,-1,13
 316 689 316 689 321 684 c 2,14,-1
 380 617 l 2,0,1
248 -10 m 0,15,16
 187 -10 187 -10 146 19.5 c 128,-1,17
 105 49 105 49 88 101.5 c 128,-1,18
 71 154 71 154 83 223 c 2,19,-1
 140 547 l 2,20,21
 142 556 142 556 150 556 c 2,22,-1
 156 556 l 2,23,24
 215 556 215 556 203 485 c 2,25,-1
 156 221 l 2,26,27
 143 145 143 145 168.5 103 c 128,-1,28
 194 61 194 61 253 61 c 256,29,30
 312 61 312 61 347 97.5 c 128,-1,31
 382 134 382 134 396 213 c 2,32,-1
 455 547 l 2,33,34
 457 556 457 556 464 556 c 2,35,-1
 471 556 l 2,36,37
 529 556 529 556 517 485 c 2,38,-1
 467 201 l 2,39,40
 449 101 449 101 392.5 45.5 c 128,-1,41
 336 -10 336 -10 248 -10 c 0,15,16
EndSplineSet
EndChar

StartChar: Uacute
Encoding: 218 218 151
Width: 517
GlyphClass: 1
Flags: W
LayerCount: 2
Fore
SplineSet
237 617 m 2,0,-1
 320 684 l 2,1,2
 330 693 330 693 345 693 c 2,3,-1
 408 693 l 2,4,5
 413 693 413 693 413.5 690 c 128,-1,6
 414 687 414 687 411 684 c 2,7,-1
 320 619 l 2,8,9
 306 608 306 608 290 608 c 2,10,-1
 239 608 l 2,11,12
 235 608 235 608 234 611.5 c 128,-1,13
 233 615 233 615 237 617 c 2,0,-1
248 -10 m 0,14,15
 187 -10 187 -10 146 19.5 c 128,-1,16
 105 49 105 49 88 101.5 c 128,-1,17
 71 154 71 154 83 223 c 2,18,-1
 140 547 l 2,19,20
 142 556 142 556 150 556 c 2,21,-1
 156 556 l 2,22,23
 215 556 215 556 203 485 c 2,24,-1
 156 221 l 2,25,26
 143 145 143 145 168.5 103 c 128,-1,27
 194 61 194 61 253 61 c 256,28,29
 312 61 312 61 347 97.5 c 128,-1,30
 382 134 382 134 396 213 c 2,31,-1
 455 547 l 2,32,33
 457 556 457 556 464 556 c 2,34,-1
 471 556 l 2,35,36
 529 556 529 556 517 485 c 2,37,-1
 467 201 l 2,38,39
 449 101 449 101 392.5 45.5 c 128,-1,40
 336 -10 336 -10 248 -10 c 0,14,15
EndSplineSet
EndChar

StartChar: Ucircumflex
Encoding: 219 219 152
Width: 517
GlyphClass: 1
Flags: W
LayerCount: 2
Fore
SplineSet
326 663 m 1,0,-1
 278 620 l 2,1,2
 267 608 267 608 248 608 c 2,3,-1
 201 608 l 2,4,5
 197 608 197 608 196.5 611.5 c 128,-1,6
 196 615 196 615 199 617 c 2,7,-1
 277 684 l 2,8,9
 284 690 284 690 289.5 691.5 c 128,-1,10
 295 693 295 693 303 693 c 2,11,-1
 355 693 l 2,12,13
 369 693 369 693 377 684 c 2,14,-1
 432 617 l 2,15,16
 434 615 434 615 433 611.5 c 128,-1,17
 432 608 432 608 427 608 c 2,18,-1
 383 608 l 2,19,20
 367 608 367 608 358 620 c 2,21,-1
 326 663 l 1,0,-1
248 -10 m 0,22,23
 187 -10 187 -10 146 19.5 c 128,-1,24
 105 49 105 49 88 101.5 c 128,-1,25
 71 154 71 154 83 223 c 2,26,-1
 140 547 l 2,27,28
 142 556 142 556 150 556 c 2,29,-1
 156 556 l 2,30,31
 215 556 215 556 203 485 c 2,32,-1
 156 221 l 2,33,34
 143 145 143 145 168.5 103 c 128,-1,35
 194 61 194 61 253 61 c 256,36,37
 312 61 312 61 347 97.5 c 128,-1,38
 382 134 382 134 396 213 c 2,39,-1
 455 547 l 2,40,41
 457 556 457 556 464 556 c 2,42,-1
 471 556 l 2,43,44
 529 556 529 556 517 485 c 2,45,-1
 467 201 l 2,46,47
 449 101 449 101 392.5 45.5 c 128,-1,48
 336 -10 336 -10 248 -10 c 0,22,23
EndSplineSet
EndChar

StartChar: Udieresis
Encoding: 220 220 153
Width: 517
GlyphClass: 1
Flags: W
LayerCount: 2
Fore
SplineSet
208 638 m 0,0,1
 208 659 208 659 223 675 c 128,-1,2
 238 691 238 691 260 691 c 0,3,4
 279 691 279 691 288.5 681 c 128,-1,5
 298 671 298 671 298 654 c 0,6,7
 298 632 298 632 282.5 616 c 128,-1,8
 267 600 267 600 245 600 c 0,9,10
 210 600 210 600 208 638 c 0,0,1
341 638 m 0,11,12
 341 659 341 659 355.5 675 c 128,-1,13
 370 691 370 691 392 691 c 0,14,15
 410 691 410 691 420 681 c 128,-1,16
 430 671 430 671 430 654 c 0,17,18
 430 632 430 632 414.5 616 c 128,-1,19
 399 600 399 600 377 600 c 0,20,21
 341 600 341 600 341 638 c 0,11,12
248 -10 m 0,22,23
 187 -10 187 -10 146 19.5 c 128,-1,24
 105 49 105 49 88 101.5 c 128,-1,25
 71 154 71 154 83 223 c 2,26,-1
 140 547 l 2,27,28
 142 556 142 556 150 556 c 2,29,-1
 156 556 l 2,30,31
 215 556 215 556 203 485 c 2,32,-1
 156 221 l 2,33,34
 143 145 143 145 168.5 103 c 128,-1,35
 194 61 194 61 253 61 c 256,36,37
 312 61 312 61 347 97.5 c 128,-1,38
 382 134 382 134 396 213 c 2,39,-1
 455 547 l 2,40,41
 457 556 457 556 464 556 c 2,42,-1
 471 556 l 2,43,44
 529 556 529 556 517 485 c 2,45,-1
 467 201 l 2,46,47
 449 101 449 101 392.5 45.5 c 128,-1,48
 336 -10 336 -10 248 -10 c 0,22,23
EndSplineSet
EndChar

StartChar: Yacute
Encoding: 221 221 154
Width: 432
GlyphClass: 1
Flags: W
LayerCount: 2
Fore
SplineSet
195 617 m 2,0,-1
 278 684 l 2,1,2
 290 693 290 693 303 693 c 2,3,-1
 367 693 l 2,4,5
 371 693 371 693 371.5 690 c 128,-1,6
 372 687 372 687 369 684 c 2,7,-1
 278 619 l 2,8,9
 264 608 264 608 248 608 c 2,10,-1
 197 608 l 2,11,12
 193 608 193 608 192 611.5 c 128,-1,13
 191 615 191 615 195 617 c 2,0,-1
185 213 m 1,14,-1
 67 547 l 2,15,16
 65 556 65 556 75 556 c 2,17,-1
 95 556 l 2,18,19
 121 556 121 556 134.5 544.5 c 128,-1,20
 148 533 148 533 158 506 c 2,21,-1
 234 286 l 1,22,-1
 411 544 l 2,23,24
 419 556 419 556 430 556 c 2,25,-1
 487 556 l 2,26,27
 497 556 497 556 490 544 c 2,28,-1
 257 213 l 1,29,-1
 221 9 l 2,30,31
 220 0 220 0 212 0 c 2,32,-1
 155 0 l 2,33,34
 148 0 148 0 149 9 c 2,35,-1
 185 213 l 1,14,-1
EndSplineSet
EndChar

StartChar: Thorn
Encoding: 222 222 155
Width: 477
GlyphClass: 1
Flags: W
LayerCount: 2
Fore
SplineSet
116 102 m 1,0,-1
 100 9 l 2,1,2
 99 0 99 0 90 0 c 2,3,-1
 33 0 l 2,4,5
 26 0 26 0 27 9 c 2,6,-1
 121 547 l 2,7,8
 123 556 123 556 131 556 c 2,9,-1
 138 556 l 2,10,11
 196 556 196 556 184 485 c 2,12,-1
 179 455 l 1,13,-1
 293 455 l 2,14,15
 364 455 364 455 411 417 c 128,-1,16
 458 379 458 379 458 306 c 0,17,18
 458 245 458 245 431 199 c 128,-1,19
 404 153 404 153 355.5 127.5 c 128,-1,20
 307 102 307 102 242 102 c 2,21,-1
 116 102 l 1,0,-1
128 173 m 1,22,-1
 250 173 l 2,23,24
 311 173 311 173 347 205.5 c 128,-1,25
 383 238 383 238 383 298 c 0,26,27
 383 339 383 339 357.5 361.5 c 128,-1,28
 332 384 332 384 291 384 c 2,29,-1
 166 384 l 1,30,-1
 128 173 l 1,22,-1
EndSplineSet
EndChar

StartChar: germandbls
Encoding: 223 223 156
Width: 444
GlyphClass: 1
Flags: W
LayerCount: 2
Fore
SplineSet
20 0 m 2,0,1
 13 0 13 0 14 9 c 2,2,-1
 84 407 l 2,3,4
 97 484 97 484 146 525.5 c 128,-1,5
 195 567 195 567 260 567 c 256,6,7
 325 567 325 567 359.5 536.5 c 128,-1,8
 394 506 394 506 394 462 c 0,9,10
 394 434 394 434 377.5 410 c 128,-1,11
 361 386 361 386 340 365 c 128,-1,12
 319 344 319 344 302.5 325.5 c 128,-1,13
 286 307 286 307 286 290 c 0,14,15
 286 271 286 271 302.5 255.5 c 128,-1,16
 319 240 319 240 340.5 224 c 128,-1,17
 362 208 362 208 378.5 185.5 c 128,-1,18
 395 163 395 163 395 130 c 0,19,20
 395 90 395 90 376 58 c 128,-1,21
 357 26 357 26 325 8 c 128,-1,22
 293 -10 293 -10 252 -10 c 0,23,24
 215 -10 215 -10 189.5 3.5 c 128,-1,25
 164 17 164 17 151.5 37.5 c 128,-1,26
 139 58 139 58 139 77 c 0,27,28
 139 85 139 85 141.5 94 c 128,-1,29
 144 103 144 103 154 103 c 0,30,31
 158 103 158 103 161 98 c 0,32,33
 176 79 176 79 195 66 c 128,-1,34
 214 53 214 53 246 53 c 0,35,36
 279 53 279 53 299 70 c 128,-1,37
 319 87 319 87 319 114 c 0,38,39
 319 137 319 137 303 153.5 c 128,-1,40
 287 170 287 170 266.5 186 c 128,-1,41
 246 202 246 202 230 221.5 c 128,-1,42
 214 241 214 241 214 271 c 256,43,44
 214 301 214 301 229.5 324 c 128,-1,45
 245 347 245 347 266 367 c 128,-1,46
 287 387 287 387 302.5 407 c 128,-1,47
 318 427 318 427 318 451 c 0,48,49
 318 501 318 501 252 501 c 0,50,51
 217 501 217 501 190.5 476 c 128,-1,52
 164 451 164 451 156 404 c 2,53,-1
 87 9 l 2,54,55
 86 0 86 0 77 0 c 2,56,-1
 20 0 l 2,0,1
EndSplineSet
EndChar

StartChar: agrave
Encoding: 224 224 157
Width: 449
GlyphClass: 1
Flags: W
LayerCount: 2
Fore
SplineSet
329 439 m 2,0,1
 332 437 332 437 330.5 434 c 128,-1,2
 329 431 329 431 324 431 c 2,3,-1
 273 431 l 2,4,5
 256 431 256 431 247 441 c 2,6,-1
 179 507 l 2,7,8
 177 509 177 509 179 512.5 c 128,-1,9
 181 516 181 516 185 516 c 2,10,-1
 248 516 l 2,11,12
 256 516 256 516 260.5 513.5 c 128,-1,13
 265 511 265 511 270 506 c 2,14,-1
 329 439 l 2,0,1
293 52 m 1,15,16
 267 21 267 21 233.5 6 c 128,-1,17
 200 -9 200 -9 164 -9 c 0,18,19
 103 -9 103 -9 65 34.5 c 128,-1,20
 27 78 27 78 27 148 c 0,21,22
 27 213 27 213 55.5 264.5 c 128,-1,23
 84 316 84 316 131.5 346.5 c 128,-1,24
 179 377 179 377 234 377 c 0,25,26
 275 377 275 377 303 361 c 128,-1,27
 331 345 331 345 344 319 c 1,28,29
 353 345 353 345 369.5 356.5 c 128,-1,30
 386 368 386 368 408 368 c 2,31,-1
 413 368 l 2,32,33
 420 368 420 368 419 360 c 2,34,-1
 358 9 l 2,35,36
 357 0 357 0 348 0 c 2,37,-1
 292 0 l 2,38,39
 284 0 284 0 285 9 c 2,40,-1
 293 52 l 1,15,16
102 152 m 0,41,42
 102 110 102 110 122.5 84.5 c 128,-1,43
 143 59 143 59 183 59 c 0,44,45
 229 59 229 59 259 82.5 c 128,-1,46
 289 106 289 106 304 142.5 c 128,-1,47
 319 179 319 179 319 218 c 0,48,49
 319 259 319 259 297.5 283.5 c 128,-1,50
 276 308 276 308 234 308 c 256,51,52
 192 308 192 308 162.5 284.5 c 128,-1,53
 133 261 133 261 117.5 225 c 128,-1,54
 102 189 102 189 102 152 c 0,41,42
EndSplineSet
EndChar

StartChar: aacute
Encoding: 225 225 158
Width: 449
GlyphClass: 1
Flags: W
LayerCount: 2
Fore
SplineSet
185 439 m 2,0,-1
 268 506 l 2,1,2
 281 516 281 516 293 516 c 2,3,-1
 357 516 l 2,4,5
 362 516 362 516 362.5 512.5 c 128,-1,6
 363 509 363 509 359 507 c 2,7,-1
 269 441 l 2,8,9
 255 431 255 431 239 431 c 2,10,-1
 188 431 l 2,11,12
 184 431 184 431 183 434 c 128,-1,13
 182 437 182 437 185 439 c 2,0,-1
293 52 m 1,14,15
 267 21 267 21 233.5 6 c 128,-1,16
 200 -9 200 -9 164 -9 c 0,17,18
 103 -9 103 -9 65 34.5 c 128,-1,19
 27 78 27 78 27 148 c 0,20,21
 27 213 27 213 55.5 264.5 c 128,-1,22
 84 316 84 316 131.5 346.5 c 128,-1,23
 179 377 179 377 234 377 c 0,24,25
 275 377 275 377 303 361 c 128,-1,26
 331 345 331 345 344 319 c 1,27,28
 353 345 353 345 369.5 356.5 c 128,-1,29
 386 368 386 368 408 368 c 2,30,-1
 413 368 l 2,31,32
 420 368 420 368 419 360 c 2,33,-1
 358 9 l 2,34,35
 357 0 357 0 348 0 c 2,36,-1
 292 0 l 2,37,38
 284 0 284 0 285 9 c 2,39,-1
 293 52 l 1,14,15
102 152 m 0,40,41
 102 110 102 110 122.5 84.5 c 128,-1,42
 143 59 143 59 183 59 c 0,43,44
 229 59 229 59 259 82.5 c 128,-1,45
 289 106 289 106 304 142.5 c 128,-1,46
 319 179 319 179 319 218 c 0,47,48
 319 259 319 259 297.5 283.5 c 128,-1,49
 276 308 276 308 234 308 c 256,50,51
 192 308 192 308 162.5 284.5 c 128,-1,52
 133 261 133 261 117.5 225 c 128,-1,53
 102 189 102 189 102 152 c 0,40,41
EndSplineSet
EndChar

StartChar: acircumflex
Encoding: 226 226 159
Width: 449
GlyphClass: 1
Flags: W
LayerCount: 2
Fore
SplineSet
273 485 m 1,0,-1
 225 442 l 2,1,2
 219 435 219 435 211.5 433 c 128,-1,3
 204 431 204 431 195 431 c 2,4,-1
 148 431 l 2,5,6
 144 431 144 431 143.5 434 c 128,-1,7
 143 437 143 437 146 439 c 2,8,-1
 224 506 l 2,9,10
 235 516 235 516 250 516 c 2,11,-1
 302 516 l 2,12,13
 311 516 311 516 315 514 c 128,-1,14
 319 512 319 512 324 506 c 2,15,-1
 379 439 l 2,16,17
 381 437 381 437 380 434 c 128,-1,18
 379 431 379 431 374 431 c 2,19,-1
 330 431 l 2,20,21
 314 431 314 431 305 442 c 2,22,-1
 273 485 l 1,0,-1
293 52 m 1,23,24
 267 21 267 21 233.5 6 c 128,-1,25
 200 -9 200 -9 164 -9 c 0,26,27
 103 -9 103 -9 65 34.5 c 128,-1,28
 27 78 27 78 27 148 c 0,29,30
 27 213 27 213 55.5 264.5 c 128,-1,31
 84 316 84 316 131.5 346.5 c 128,-1,32
 179 377 179 377 234 377 c 0,33,34
 275 377 275 377 303 361 c 128,-1,35
 331 345 331 345 344 319 c 1,36,37
 353 345 353 345 369.5 356.5 c 128,-1,38
 386 368 386 368 408 368 c 2,39,-1
 413 368 l 2,40,41
 420 368 420 368 419 360 c 2,42,-1
 358 9 l 2,43,44
 357 0 357 0 348 0 c 2,45,-1
 292 0 l 2,46,47
 284 0 284 0 285 9 c 2,48,-1
 293 52 l 1,23,24
102 152 m 0,49,50
 102 110 102 110 122.5 84.5 c 128,-1,51
 143 59 143 59 183 59 c 0,52,53
 229 59 229 59 259 82.5 c 128,-1,54
 289 106 289 106 304 142.5 c 128,-1,55
 319 179 319 179 319 218 c 0,56,57
 319 259 319 259 297.5 283.5 c 128,-1,58
 276 308 276 308 234 308 c 256,59,60
 192 308 192 308 162.5 284.5 c 128,-1,61
 133 261 133 261 117.5 225 c 128,-1,62
 102 189 102 189 102 152 c 0,49,50
EndSplineSet
EndChar

StartChar: atilde
Encoding: 227 227 160
Width: 449
GlyphClass: 1
Flags: W
LayerCount: 2
Fore
SplineSet
390 503 m 0,0,1
 371 431 371 431 311 431 c 0,2,3
 294 431 294 431 278 438 c 128,-1,4
 262 445 262 445 248 451.5 c 128,-1,5
 234 458 234 458 222 458 c 0,6,7
 206 458 206 458 200 439 c 0,8,9
 197 429 197 429 189 429 c 2,10,-1
 155 429 l 2,11,12
 148 429 148 429 149 438 c 0,13,14
 157 474 157 474 176.5 493.5 c 128,-1,15
 196 513 196 513 222 513 c 0,16,17
 241 513 241 513 257.5 506 c 128,-1,18
 274 499 274 499 288 491.5 c 128,-1,19
 302 484 302 484 315 484 c 0,20,21
 331 484 331 484 338 502 c 0,22,23
 342 512 342 512 350 512 c 2,24,-1
 384 512 l 2,25,26
 392 512 392 512 390 503 c 0,0,1
293 52 m 1,27,28
 267 21 267 21 233.5 6 c 128,-1,29
 200 -9 200 -9 164 -9 c 0,30,31
 103 -9 103 -9 65 34.5 c 128,-1,32
 27 78 27 78 27 148 c 0,33,34
 27 213 27 213 55.5 264.5 c 128,-1,35
 84 316 84 316 131.5 346.5 c 128,-1,36
 179 377 179 377 234 377 c 0,37,38
 275 377 275 377 303 361 c 128,-1,39
 331 345 331 345 344 319 c 1,40,41
 353 345 353 345 369.5 356.5 c 128,-1,42
 386 368 386 368 408 368 c 2,43,-1
 413 368 l 2,44,45
 420 368 420 368 419 360 c 2,46,-1
 358 9 l 2,47,48
 357 0 357 0 348 0 c 2,49,-1
 292 0 l 2,50,51
 284 0 284 0 285 9 c 2,52,-1
 293 52 l 1,27,28
102 152 m 0,53,54
 102 110 102 110 122.5 84.5 c 128,-1,55
 143 59 143 59 183 59 c 0,56,57
 229 59 229 59 259 82.5 c 128,-1,58
 289 106 289 106 304 142.5 c 128,-1,59
 319 179 319 179 319 218 c 0,60,61
 319 259 319 259 297.5 283.5 c 128,-1,62
 276 308 276 308 234 308 c 256,63,64
 192 308 192 308 162.5 284.5 c 128,-1,65
 133 261 133 261 117.5 225 c 128,-1,66
 102 189 102 189 102 152 c 0,53,54
EndSplineSet
EndChar

StartChar: adieresis
Encoding: 228 228 161
Width: 449
GlyphClass: 1
Flags: W
LayerCount: 2
Fore
SplineSet
151 460 m 0,0,1
 151 481 151 481 166 497 c 128,-1,2
 181 513 181 513 203 513 c 0,3,4
 221 513 221 513 231 503 c 128,-1,5
 241 493 241 493 241 476 c 0,6,7
 240 454 240 454 225 438 c 128,-1,8
 210 422 210 422 188 422 c 0,9,10
 153 422 153 422 151 460 c 0,0,1
283 460 m 0,11,12
 283 481 283 481 298 497 c 128,-1,13
 313 513 313 513 335 513 c 0,14,15
 353 513 353 513 363 503 c 128,-1,16
 373 493 373 493 373 476 c 0,17,18
 372 454 372 454 357 438 c 128,-1,19
 342 422 342 422 320 422 c 0,20,21
 285 422 285 422 283 460 c 0,11,12
293 52 m 1,22,23
 267 21 267 21 233.5 6 c 128,-1,24
 200 -9 200 -9 164 -9 c 0,25,26
 103 -9 103 -9 65 34.5 c 128,-1,27
 27 78 27 78 27 148 c 0,28,29
 27 213 27 213 55.5 264.5 c 128,-1,30
 84 316 84 316 131.5 346.5 c 128,-1,31
 179 377 179 377 234 377 c 0,32,33
 275 377 275 377 303 361 c 128,-1,34
 331 345 331 345 344 319 c 1,35,36
 353 345 353 345 369.5 356.5 c 128,-1,37
 386 368 386 368 408 368 c 2,38,-1
 413 368 l 2,39,40
 420 368 420 368 419 360 c 2,41,-1
 358 9 l 2,42,43
 357 0 357 0 348 0 c 2,44,-1
 292 0 l 2,45,46
 284 0 284 0 285 9 c 2,47,-1
 293 52 l 1,22,23
102 152 m 0,48,49
 102 110 102 110 122.5 84.5 c 128,-1,50
 143 59 143 59 183 59 c 0,51,52
 229 59 229 59 259 82.5 c 128,-1,53
 289 106 289 106 304 142.5 c 128,-1,54
 319 179 319 179 319 218 c 0,55,56
 319 259 319 259 297.5 283.5 c 128,-1,57
 276 308 276 308 234 308 c 256,58,59
 192 308 192 308 162.5 284.5 c 128,-1,60
 133 261 133 261 117.5 225 c 128,-1,61
 102 189 102 189 102 152 c 0,48,49
EndSplineSet
EndChar

StartChar: aring
Encoding: 229 229 162
Width: 449
GlyphClass: 1
Flags: W
LayerCount: 2
Fore
SplineSet
197 481 m 0,0,1
 198 515 198 515 222 537 c 128,-1,2
 246 559 246 559 277 559 c 0,3,4
 303 559 303 559 320 542.5 c 128,-1,5
 337 526 337 526 337 501 c 0,6,7
 336 467 336 467 313.5 443 c 128,-1,8
 291 419 291 419 258 419 c 0,9,10
 230 419 230 419 213.5 436.5 c 128,-1,11
 197 454 197 454 197 481 c 0,0,1
235 483 m 0,12,13
 235 455 235 455 261 455 c 0,14,15
 281 455 281 455 290 467.5 c 128,-1,16
 299 480 299 480 299 496 c 0,17,18
 299 524 299 524 273 524 c 0,19,20
 256 524 256 524 245.5 511.5 c 128,-1,21
 235 499 235 499 235 483 c 0,12,13
293 52 m 1,22,23
 267 21 267 21 233.5 6 c 128,-1,24
 200 -9 200 -9 164 -9 c 0,25,26
 103 -9 103 -9 65 34.5 c 128,-1,27
 27 78 27 78 27 148 c 0,28,29
 27 213 27 213 55.5 264.5 c 128,-1,30
 84 316 84 316 131.5 346.5 c 128,-1,31
 179 377 179 377 234 377 c 0,32,33
 275 377 275 377 303 361 c 128,-1,34
 331 345 331 345 344 319 c 1,35,36
 353 345 353 345 369.5 356.5 c 128,-1,37
 386 368 386 368 408 368 c 2,38,-1
 413 368 l 2,39,40
 420 368 420 368 419 360 c 2,41,-1
 358 9 l 2,42,43
 357 0 357 0 348 0 c 2,44,-1
 292 0 l 2,45,46
 284 0 284 0 285 9 c 2,47,-1
 293 52 l 1,22,23
102 152 m 0,48,49
 102 110 102 110 122.5 84.5 c 128,-1,50
 143 59 143 59 183 59 c 0,51,52
 229 59 229 59 259 82.5 c 128,-1,53
 289 106 289 106 304 142.5 c 128,-1,54
 319 179 319 179 319 218 c 0,55,56
 319 259 319 259 297.5 283.5 c 128,-1,57
 276 308 276 308 234 308 c 256,58,59
 192 308 192 308 162.5 284.5 c 128,-1,60
 133 261 133 261 117.5 225 c 128,-1,61
 102 189 102 189 102 152 c 0,48,49
EndSplineSet
EndChar

StartChar: ae
Encoding: 230 230 163
Width: 713
GlyphClass: 1
Flags: W
LayerCount: 2
Fore
SplineSet
367 66 m 1,0,-1
 358 9 l 2,1,2
 357 0 357 0 348 0 c 2,3,-1
 294 0 l 2,4,5
 286 0 286 0 287 9 c 2,6,-1
 295 52 l 1,7,8
 269 21 269 21 235.5 6 c 128,-1,9
 202 -9 202 -9 165 -9 c 0,10,11
 104 -9 104 -9 66 34.5 c 128,-1,12
 28 78 28 78 28 148 c 0,13,14
 28 213 28 213 57 264.5 c 128,-1,15
 86 316 86 316 133.5 346.5 c 128,-1,16
 181 377 181 377 237 377 c 0,17,18
 277 377 277 377 305 361 c 128,-1,19
 333 345 333 345 346 319 c 1,20,21
 362 368 362 368 410 368 c 2,22,-1
 412 368 l 2,23,24
 421 368 421 368 420 360 c 2,25,-1
 412 318 l 1,26,27
 437 346 437 346 471.5 361.5 c 128,-1,28
 506 377 506 377 546 377 c 0,29,30
 608 377 608 377 642.5 341 c 128,-1,31
 677 305 677 305 677 247 c 0,32,33
 677 225 677 225 674 209 c 128,-1,34
 671 193 671 193 665 171 c 0,35,36
 661 159 661 159 648 159 c 2,37,-1
 407 159 l 1,38,39
 404 106 404 106 431 80 c 128,-1,40
 458 54 458 54 508 54 c 0,41,42
 549 54 549 54 575.5 66 c 128,-1,43
 602 78 602 78 624 93 c 0,44,45
 628 96 628 96 632 98.5 c 128,-1,46
 636 101 636 101 639 101 c 0,47,48
 647 101 647 101 647 92 c 0,49,50
 647 69 647 69 627 45.5 c 128,-1,51
 607 22 607 22 571.5 6.5 c 128,-1,52
 536 -9 536 -9 490 -9 c 0,53,54
 398 -9 398 -9 367 66 c 1,0,-1
419 214 m 1,55,-1
 604 214 l 1,56,57
 605 222 605 222 605.5 228.5 c 128,-1,58
 606 235 606 235 606 239 c 0,59,60
 606 313 606 313 535 313 c 0,61,62
 491 313 491 313 461.5 287 c 128,-1,63
 432 261 432 261 419 214 c 1,55,-1
185 59 m 0,64,65
 231 59 231 59 261 82.5 c 128,-1,66
 291 106 291 106 306 142.5 c 128,-1,67
 321 179 321 179 321 218 c 0,68,69
 321 259 321 259 299 283.5 c 128,-1,70
 277 308 277 308 236 308 c 0,71,72
 194 308 194 308 164.5 284.5 c 128,-1,73
 135 261 135 261 119.5 225 c 128,-1,74
 104 189 104 189 104 152 c 0,75,76
 104 110 104 110 124.5 84.5 c 128,-1,77
 145 59 145 59 185 59 c 0,64,65
EndSplineSet
EndChar

StartChar: ccedilla
Encoding: 231 231 164
Width: 354
GlyphClass: 1
Flags: W
LayerCount: 2
Fore
SplineSet
198 -8 m 1,0,-1
 148 -87 l 2,1,2
 142 -94 142 -94 136.5 -96 c 128,-1,3
 131 -98 131 -98 121 -98 c 2,4,-1
 74 -98 l 2,5,6
 70 -98 70 -98 69.5 -95 c 128,-1,7
 69 -92 69 -92 71 -89 c 2,8,-1
 136 -7 l 1,9,10
 83 4 83 4 55 45.5 c 128,-1,11
 27 87 27 87 27 147 c 0,12,13
 27 208 27 208 54.5 260 c 128,-1,14
 82 312 82 312 132 344.5 c 128,-1,15
 182 377 182 377 247 377 c 0,16,17
 288 377 288 377 321 362 c 0,18,19
 356 346 356 346 338 307 c 2,20,-1
 330 289 l 2,21,22
 327 281 327 281 323 281 c 0,23,24
 320 281 320 281 315 284 c 0,25,26
 296 296 296 296 277.5 302 c 128,-1,27
 259 308 259 308 233 308 c 0,28,29
 196 308 196 308 166.5 287.5 c 128,-1,30
 137 267 137 267 120 231.5 c 128,-1,31
 103 196 103 196 103 151 c 0,32,33
 103 107 103 107 123.5 80.5 c 128,-1,34
 144 54 144 54 190 54 c 0,35,36
 248 54 248 54 288 91 c 0,37,38
 293 96 293 96 296.5 98.5 c 128,-1,39
 300 101 300 101 304 101 c 0,40,41
 313 101 313 101 313 91 c 0,42,43
 313 63 313 63 282.5 31.5 c 128,-1,44
 252 0 252 0 198 -8 c 1,0,-1
EndSplineSet
EndChar

StartChar: egrave
Encoding: 232 232 165
Width: 403
GlyphClass: 1
Flags: W
LayerCount: 2
Fore
SplineSet
316 439 m 2,0,1
 318 437 318 437 317 434 c 128,-1,2
 316 431 316 431 311 431 c 2,3,-1
 259 431 l 2,4,5
 243 431 243 431 234 441 c 2,6,-1
 166 507 l 2,7,8
 164 509 164 509 166 512.5 c 128,-1,9
 168 516 168 516 172 516 c 2,10,-1
 234 516 l 2,11,12
 243 516 243 516 247.5 513.5 c 128,-1,13
 252 511 252 511 257 506 c 2,14,-1
 316 439 l 2,0,1
98 159 m 1,15,16
 94 106 94 106 121 80 c 128,-1,17
 148 54 148 54 197 54 c 0,18,19
 238 54 238 54 264.5 66 c 128,-1,20
 291 78 291 78 314 93 c 0,21,22
 318 96 318 96 322 98.5 c 128,-1,23
 326 101 326 101 329 101 c 0,24,25
 337 101 337 101 337 92 c 0,26,27
 337 69 337 69 316.5 45.5 c 128,-1,28
 296 22 296 22 260.5 6.5 c 128,-1,29
 225 -9 225 -9 179 -9 c 0,30,31
 112 -9 112 -9 69 32 c 128,-1,32
 26 73 26 73 27 154 c 0,33,34
 28 219 28 219 56.5 269.5 c 128,-1,35
 85 320 85 320 132.5 348.5 c 128,-1,36
 180 377 180 377 236 377 c 0,37,38
 298 377 298 377 332.5 341.5 c 128,-1,39
 367 306 367 306 367 249 c 0,40,41
 366 227 366 227 363 209.5 c 128,-1,42
 360 192 360 192 354 171 c 0,43,44
 351 159 351 159 338 159 c 2,45,-1
 98 159 l 1,15,16
109 214 m 1,46,-1
 293 214 l 1,47,48
 295 222 295 222 295.5 228.5 c 128,-1,49
 296 235 296 235 297 239 c 0,50,51
 297 313 297 313 224 313 c 0,52,53
 181 313 181 313 151.5 287 c 128,-1,54
 122 261 122 261 109 214 c 1,46,-1
EndSplineSet
EndChar

StartChar: eacute
Encoding: 233 233 166
Width: 403
GlyphClass: 1
Flags: W
LayerCount: 2
Fore
SplineSet
172 439 m 2,0,-1
 254 506 l 2,1,2
 267 516 267 516 279 516 c 2,3,-1
 343 516 l 2,4,5
 348 516 348 516 348.5 512.5 c 128,-1,6
 349 509 349 509 346 507 c 2,7,-1
 255 441 l 2,8,9
 241 431 241 431 225 431 c 2,10,-1
 174 431 l 2,11,12
 170 431 170 431 169 434 c 128,-1,13
 168 437 168 437 172 439 c 2,0,-1
98 159 m 1,14,15
 94 106 94 106 121 80 c 128,-1,16
 148 54 148 54 197 54 c 0,17,18
 238 54 238 54 264.5 66 c 128,-1,19
 291 78 291 78 314 93 c 0,20,21
 318 96 318 96 322 98.5 c 128,-1,22
 326 101 326 101 329 101 c 0,23,24
 337 101 337 101 337 92 c 0,25,26
 337 69 337 69 316.5 45.5 c 128,-1,27
 296 22 296 22 260.5 6.5 c 128,-1,28
 225 -9 225 -9 179 -9 c 0,29,30
 112 -9 112 -9 69 32 c 128,-1,31
 26 73 26 73 27 154 c 0,32,33
 28 219 28 219 56.5 269.5 c 128,-1,34
 85 320 85 320 132.5 348.5 c 128,-1,35
 180 377 180 377 236 377 c 0,36,37
 298 377 298 377 332.5 341.5 c 128,-1,38
 367 306 367 306 367 249 c 0,39,40
 366 227 366 227 363 209.5 c 128,-1,41
 360 192 360 192 354 171 c 0,42,43
 351 159 351 159 338 159 c 2,44,-1
 98 159 l 1,14,15
109 214 m 1,45,-1
 293 214 l 1,46,47
 295 222 295 222 295.5 228.5 c 128,-1,48
 296 235 296 235 297 239 c 0,49,50
 297 313 297 313 224 313 c 0,51,52
 181 313 181 313 151.5 287 c 128,-1,53
 122 261 122 261 109 214 c 1,45,-1
EndSplineSet
EndChar

StartChar: ecircumflex
Encoding: 234 234 167
Width: 403
GlyphClass: 1
Flags: W
LayerCount: 2
Fore
SplineSet
259 485 m 1,0,-1
 212 442 l 2,1,2
 205 435 205 435 198 433 c 128,-1,3
 191 431 191 431 182 431 c 2,4,-1
 135 431 l 2,5,6
 131 431 131 431 130 434 c 128,-1,7
 129 437 129 437 133 439 c 2,8,-1
 211 506 l 2,9,10
 222 516 222 516 237 516 c 2,11,-1
 289 516 l 2,12,13
 298 516 298 516 302 514 c 128,-1,14
 306 512 306 512 311 506 c 2,15,-1
 366 439 l 2,16,17
 368 437 368 437 367 434 c 128,-1,18
 366 431 366 431 361 431 c 2,19,-1
 317 431 l 2,20,21
 309 431 309 431 303 433 c 128,-1,22
 297 435 297 435 292 442 c 2,23,-1
 259 485 l 1,0,-1
98 159 m 1,24,25
 94 106 94 106 121 80 c 128,-1,26
 148 54 148 54 197 54 c 0,27,28
 238 54 238 54 264.5 66 c 128,-1,29
 291 78 291 78 314 93 c 0,30,31
 318 96 318 96 322 98.5 c 128,-1,32
 326 101 326 101 329 101 c 0,33,34
 337 101 337 101 337 92 c 0,35,36
 337 69 337 69 316.5 45.5 c 128,-1,37
 296 22 296 22 260.5 6.5 c 128,-1,38
 225 -9 225 -9 179 -9 c 0,39,40
 112 -9 112 -9 69 32 c 128,-1,41
 26 73 26 73 27 154 c 0,42,43
 28 219 28 219 56.5 269.5 c 128,-1,44
 85 320 85 320 132.5 348.5 c 128,-1,45
 180 377 180 377 236 377 c 0,46,47
 298 377 298 377 332.5 341.5 c 128,-1,48
 367 306 367 306 367 249 c 0,49,50
 366 227 366 227 363 209.5 c 128,-1,51
 360 192 360 192 354 171 c 0,52,53
 351 159 351 159 338 159 c 2,54,-1
 98 159 l 1,24,25
109 214 m 1,55,-1
 293 214 l 1,56,57
 295 222 295 222 295.5 228.5 c 128,-1,58
 296 235 296 235 297 239 c 0,59,60
 297 313 297 313 224 313 c 0,61,62
 181 313 181 313 151.5 287 c 128,-1,63
 122 261 122 261 109 214 c 1,55,-1
EndSplineSet
EndChar

StartChar: edieresis
Encoding: 235 235 168
Width: 403
GlyphClass: 1
Flags: W
LayerCount: 2
Fore
SplineSet
144 460 m 0,0,1
 144 481 144 481 159 497 c 128,-1,2
 174 513 174 513 196 513 c 0,3,4
 214 513 214 513 224 503 c 128,-1,5
 234 493 234 493 234 476 c 0,6,7
 233 454 233 454 217.5 438 c 128,-1,8
 202 422 202 422 181 422 c 0,9,10
 144 422 144 422 144 460 c 0,0,1
276 460 m 0,11,12
 276 481 276 481 291 497 c 128,-1,13
 306 513 306 513 328 513 c 0,14,15
 346 513 346 513 356 503 c 128,-1,16
 366 493 366 493 366 476 c 0,17,18
 365 454 365 454 350 438 c 128,-1,19
 335 422 335 422 313 422 c 0,20,21
 278 422 278 422 276 460 c 0,11,12
98 159 m 1,22,23
 94 106 94 106 121 80 c 128,-1,24
 148 54 148 54 197 54 c 0,25,26
 238 54 238 54 264.5 66 c 128,-1,27
 291 78 291 78 314 93 c 0,28,29
 318 96 318 96 322 98.5 c 128,-1,30
 326 101 326 101 329 101 c 0,31,32
 337 101 337 101 337 92 c 0,33,34
 337 69 337 69 316.5 45.5 c 128,-1,35
 296 22 296 22 260.5 6.5 c 128,-1,36
 225 -9 225 -9 179 -9 c 0,37,38
 112 -9 112 -9 69 32 c 128,-1,39
 26 73 26 73 27 154 c 0,40,41
 28 219 28 219 56.5 269.5 c 128,-1,42
 85 320 85 320 132.5 348.5 c 128,-1,43
 180 377 180 377 236 377 c 0,44,45
 298 377 298 377 332.5 341.5 c 128,-1,46
 367 306 367 306 367 249 c 0,47,48
 366 227 366 227 363 209.5 c 128,-1,49
 360 192 360 192 354 171 c 0,50,51
 351 159 351 159 338 159 c 2,52,-1
 98 159 l 1,22,23
109 214 m 1,53,-1
 293 214 l 1,54,55
 295 222 295 222 295.5 228.5 c 128,-1,56
 296 235 296 235 297 239 c 0,57,58
 297 313 297 313 224 313 c 0,59,60
 181 313 181 313 151.5 287 c 128,-1,61
 122 261 122 261 109 214 c 1,53,-1
EndSplineSet
EndChar

StartChar: igrave
Encoding: 236 236 169
Width: 179
GlyphClass: 1
Flags: W
LayerCount: 2
Fore
SplineSet
186 439 m 2,0,1
 188 437 188 437 186.5 434 c 128,-1,2
 185 431 185 431 180 431 c 2,3,-1
 129 431 l 2,4,5
 113 431 113 431 104 441 c 2,6,-1
 36 507 l 2,7,8
 33 509 33 509 35 512.5 c 128,-1,9
 37 516 37 516 41 516 c 2,10,-1
 104 516 l 2,11,12
 117 516 117 516 126 506 c 2,13,-1
 186 439 l 2,0,1
20 0 m 2,14,15
 13 0 13 0 14 9 c 2,16,-1
 76 360 l 2,17,18
 77 368 77 368 85 368 c 2,19,-1
 90 368 l 2,20,21
 118 368 118 368 131 351 c 128,-1,22
 144 334 144 334 137 299 c 2,23,-1
 86 9 l 2,24,25
 85 0 85 0 77 0 c 2,26,-1
 20 0 l 2,14,15
EndSplineSet
EndChar

StartChar: iacute
Encoding: 237 237 170
Width: 179
GlyphClass: 1
Flags: W
LayerCount: 2
Fore
SplineSet
43 439 m 2,0,-1
 126 506 l 2,1,2
 133 511 133 511 138 513.5 c 128,-1,3
 143 516 143 516 151 516 c 2,4,-1
 215 516 l 2,5,6
 219 516 219 516 219.5 512.5 c 128,-1,7
 220 509 220 509 217 507 c 2,8,-1
 126 441 l 2,9,10
 114 431 114 431 96 431 c 2,11,-1
 45 431 l 2,12,13
 41 431 41 431 40.5 434 c 128,-1,14
 40 437 40 437 43 439 c 2,0,-1
20 0 m 2,15,16
 13 0 13 0 14 9 c 2,17,-1
 76 360 l 2,18,19
 77 368 77 368 85 368 c 2,20,-1
 90 368 l 2,21,22
 118 368 118 368 131 351 c 128,-1,23
 144 334 144 334 137 299 c 2,24,-1
 86 9 l 2,25,26
 85 0 85 0 77 0 c 2,27,-1
 20 0 l 2,15,16
EndSplineSet
EndChar

StartChar: icircumflex
Encoding: 238 238 171
Width: 179
GlyphClass: 1
Flags: W
LayerCount: 2
Fore
SplineSet
130 485 m 1,0,-1
 83 442 l 2,1,2
 76 435 76 435 69 433 c 128,-1,3
 62 431 62 431 53 431 c 2,4,-1
 6 431 l 2,5,6
 2 431 2 431 1 434 c 128,-1,7
 0 437 0 437 3 439 c 2,8,-1
 82 506 l 2,9,10
 93 516 93 516 108 516 c 2,11,-1
 160 516 l 2,12,13
 174 516 174 516 181 506 c 2,14,-1
 237 439 l 2,15,16
 239 437 239 437 237.5 434 c 128,-1,17
 236 431 236 431 231 431 c 2,18,-1
 188 431 l 2,19,20
 171 431 171 431 162 442 c 2,21,-1
 130 485 l 1,0,-1
32 0 m 2,22,23
 25 0 25 0 26 9 c 2,24,-1
 87 360 l 2,25,26
 88 368 88 368 96 368 c 2,27,-1
 101 368 l 2,28,29
 161 368 161 368 149 299 c 2,30,-1
 98 9 l 2,31,32
 97 0 97 0 88 0 c 2,33,-1
 32 0 l 2,22,23
EndSplineSet
EndChar

StartChar: idieresis
Encoding: 239 239 172
Width: 179
GlyphClass: 1
Flags: W
LayerCount: 2
Fore
SplineSet
18 460 m 0,0,1
 18 481 18 481 33 497 c 128,-1,2
 48 513 48 513 70 513 c 0,3,4
 88 513 88 513 98 503 c 128,-1,5
 108 493 108 493 108 476 c 0,6,7
 107 454 107 454 92 438 c 128,-1,8
 77 422 77 422 55 422 c 0,9,10
 20 422 20 422 18 460 c 0,0,1
150 460 m 0,11,12
 150 481 150 481 165 497 c 128,-1,13
 180 513 180 513 202 513 c 0,14,15
 220 513 220 513 230 503 c 128,-1,16
 240 493 240 493 240 476 c 0,17,18
 239 454 239 454 224 438 c 128,-1,19
 209 422 209 422 187 422 c 0,20,21
 152 422 152 422 150 460 c 0,11,12
20 0 m 2,22,23
 13 0 13 0 14 9 c 2,24,-1
 76 360 l 2,25,26
 77 368 77 368 85 368 c 2,27,-1
 90 368 l 2,28,29
 118 368 118 368 131 351 c 128,-1,30
 144 334 144 334 137 299 c 2,31,-1
 86 9 l 2,32,33
 85 0 85 0 77 0 c 2,34,-1
 20 0 l 2,22,23
EndSplineSet
EndChar

StartChar: eth
Encoding: 240 240 173
Width: 438
GlyphClass: 1
Flags: W
LayerCount: 2
Fore
SplineSet
265 368 m 1,0,-1
 227 440 l 1,1,-1
 160 407 l 2,2,3
 154 405 154 405 150 412 c 2,4,-1
 139 436 l 2,5,6
 136 441 136 441 138 443 c 128,-1,7
 140 445 140 445 144 447 c 2,8,-1
 208 479 l 1,9,-1
 173 547 l 2,10,11
 172 550 172 550 174 553 c 128,-1,12
 176 556 176 556 180 556 c 2,13,-1
 200 556 l 2,14,15
 229 556 229 556 243.5 549 c 128,-1,16
 258 542 258 542 268 522 c 2,17,-1
 274 511 l 1,18,-1
 329 538 l 2,19,20
 336 542 336 542 339 534 c 2,21,-1
 351 510 l 2,22,23
 355 503 355 503 348 499 c 2,24,-1
 294 472 l 1,25,-1
 369 322 l 2,26,27
 383 296 383 296 389 275.5 c 128,-1,28
 395 255 395 255 395 222 c 0,29,30
 395 159 395 159 368 106.5 c 128,-1,31
 341 54 341 54 292.5 22.5 c 128,-1,32
 244 -9 244 -9 179 -9 c 0,33,34
 108 -9 108 -9 67.5 36.5 c 128,-1,35
 27 82 27 82 27 151 c 0,36,37
 27 212 27 212 55 261.5 c 128,-1,38
 83 311 83 311 132.5 340 c 128,-1,39
 182 369 182 369 244 369 c 0,40,41
 249 369 249 369 254.5 369 c 128,-1,42
 260 369 260 369 265 368 c 1,0,-1
188 59 m 256,43,44
 231 59 231 59 260 81.5 c 128,-1,45
 289 104 289 104 304 139.5 c 128,-1,46
 319 175 319 175 319 214 c 0,47,48
 319 255 319 255 297.5 277.5 c 128,-1,49
 276 300 276 300 232 300 c 0,50,51
 191 300 191 300 161.5 280 c 128,-1,52
 132 260 132 260 116.5 227 c 128,-1,53
 101 194 101 194 101 156 c 0,54,55
 101 115 101 115 123 87 c 128,-1,56
 145 59 145 59 188 59 c 256,43,44
EndSplineSet
EndChar

StartChar: ntilde
Encoding: 241 241 174
Width: 432
GlyphClass: 1
Flags: W
LayerCount: 2
Fore
SplineSet
383 503 m 0,0,1
 364 431 364 431 304 431 c 0,2,3
 287 431 287 431 271 438 c 128,-1,4
 255 445 255 445 241 451.5 c 128,-1,5
 227 458 227 458 215 458 c 0,6,7
 198 458 198 458 192 439 c 0,8,9
 189 429 189 429 182 429 c 2,10,-1
 148 429 l 2,11,12
 141 429 141 429 142 438 c 0,13,14
 159 513 159 513 215 513 c 0,15,16
 234 513 234 513 250 506 c 128,-1,17
 266 499 266 499 280.5 491.5 c 128,-1,18
 295 484 295 484 308 484 c 0,19,20
 324 484 324 484 331 502 c 0,21,22
 335 512 335 512 343 512 c 2,23,-1
 377 512 l 2,24,25
 385 512 385 512 383 503 c 0,0,1
138 318 m 1,26,27
 158 341 158 341 190.5 359 c 128,-1,28
 223 377 223 377 265 377 c 0,29,30
 319 377 319 377 350 343.5 c 128,-1,31
 381 310 381 310 381 261 c 0,32,33
 381 250 381 250 380 238 c 128,-1,34
 379 226 379 226 377 216 c 2,35,-1
 341 9 l 2,36,37
 340 0 340 0 331 0 c 2,38,-1
 275 0 l 2,39,40
 266 0 266 0 269 9 c 2,41,-1
 302 204 l 2,42,43
 304 212 304 212 305 221.5 c 128,-1,44
 306 231 306 231 306 238 c 0,45,46
 306 310 306 310 235 310 c 0,47,48
 192 310 192 310 160.5 282.5 c 128,-1,49
 129 255 129 255 119 199 c 2,50,-1
 86 9 l 2,51,52
 86 0 86 0 77 0 c 2,53,-1
 20 0 l 2,54,55
 13 0 13 0 14 9 c 2,56,-1
 76 360 l 2,57,58
 77 368 77 368 85 368 c 2,59,-1
 90 368 l 2,60,61
 138 368 138 368 138 318 c 1,26,27
EndSplineSet
EndChar

StartChar: ograve
Encoding: 242 242 175
Width: 440
GlyphClass: 1
Flags: W
LayerCount: 2
Fore
SplineSet
337 439 m 2,0,1
 339 437 339 437 338 434 c 128,-1,2
 337 431 337 431 332 431 c 2,3,-1
 280 431 l 2,4,5
 264 431 264 431 255 441 c 2,6,-1
 187 507 l 2,7,8
 185 509 185 509 187 512.5 c 128,-1,9
 189 516 189 516 193 516 c 2,10,-1
 255 516 l 2,11,12
 264 516 264 516 268.5 513.5 c 128,-1,13
 273 511 273 511 278 506 c 2,14,-1
 337 439 l 2,0,1
27 158 m 0,15,16
 27 220 27 220 56.5 269.5 c 128,-1,17
 86 319 86 319 135.5 348 c 128,-1,18
 185 377 185 377 243 377 c 0,19,20
 313 377 313 377 353.5 334 c 128,-1,21
 394 291 394 291 394 222 c 0,22,23
 394 160 394 160 368.5 107 c 128,-1,24
 343 54 343 54 294.5 22.5 c 128,-1,25
 246 -9 246 -9 178 -9 c 256,26,27
 110 -9 110 -9 68.5 36.5 c 128,-1,28
 27 82 27 82 27 158 c 0,15,16
102 156 m 0,29,30
 102 112 102 112 124 85.5 c 128,-1,31
 146 59 146 59 188 59 c 256,32,33
 230 59 230 59 259.5 82 c 128,-1,34
 289 105 289 105 304 140.5 c 128,-1,35
 319 176 319 176 319 214 c 0,36,37
 318 258 318 258 296 283 c 128,-1,38
 274 308 274 308 231 308 c 0,39,40
 190 308 190 308 161 285 c 128,-1,41
 132 262 132 262 117 227 c 128,-1,42
 102 192 102 192 102 156 c 0,29,30
EndSplineSet
EndChar

StartChar: oacute
Encoding: 243 243 176
Width: 440
GlyphClass: 1
Flags: W
LayerCount: 2
Fore
SplineSet
182 439 m 2,0,-1
 265 506 l 2,1,2
 272 511 272 511 277 513.5 c 128,-1,3
 282 516 282 516 290 516 c 2,4,-1
 354 516 l 2,5,6
 358 516 358 516 358.5 512.5 c 128,-1,7
 359 509 359 509 356 507 c 2,8,-1
 265 441 l 2,9,10
 253 431 253 431 235 431 c 2,11,-1
 184 431 l 2,12,13
 180 431 180 431 179.5 434 c 128,-1,14
 179 437 179 437 182 439 c 2,0,-1
27 158 m 0,15,16
 27 220 27 220 56.5 269.5 c 128,-1,17
 86 319 86 319 135.5 348 c 128,-1,18
 185 377 185 377 243 377 c 0,19,20
 313 377 313 377 353.5 334 c 128,-1,21
 394 291 394 291 394 222 c 0,22,23
 394 160 394 160 368.5 107 c 128,-1,24
 343 54 343 54 294.5 22.5 c 128,-1,25
 246 -9 246 -9 178 -9 c 256,26,27
 110 -9 110 -9 68.5 36.5 c 128,-1,28
 27 82 27 82 27 158 c 0,15,16
102 156 m 0,29,30
 102 112 102 112 124 85.5 c 128,-1,31
 146 59 146 59 188 59 c 256,32,33
 230 59 230 59 259.5 82 c 128,-1,34
 289 105 289 105 304 140.5 c 128,-1,35
 319 176 319 176 319 214 c 0,36,37
 318 258 318 258 296 283 c 128,-1,38
 274 308 274 308 231 308 c 0,39,40
 190 308 190 308 161 285 c 128,-1,41
 132 262 132 262 117 227 c 128,-1,42
 102 192 102 192 102 156 c 0,29,30
EndSplineSet
EndChar

StartChar: ocircumflex
Encoding: 244 244 177
Width: 440
GlyphClass: 1
Flags: W
LayerCount: 2
Fore
SplineSet
267 485 m 1,0,-1
 220 442 l 2,1,2
 213 435 213 435 206 433 c 128,-1,3
 199 431 199 431 190 431 c 2,4,-1
 143 431 l 2,5,6
 139 431 139 431 138 434 c 128,-1,7
 137 437 137 437 140 439 c 2,8,-1
 219 506 l 2,9,10
 230 516 230 516 245 516 c 2,11,-1
 297 516 l 2,12,13
 311 516 311 516 318 506 c 2,14,-1
 374 439 l 2,15,16
 376 437 376 437 374.5 434 c 128,-1,17
 373 431 373 431 368 431 c 2,18,-1
 325 431 l 2,19,20
 308 431 308 431 299 442 c 2,21,-1
 267 485 l 1,0,-1
27 158 m 0,22,23
 27 220 27 220 56.5 269.5 c 128,-1,24
 86 319 86 319 135.5 348 c 128,-1,25
 185 377 185 377 243 377 c 0,26,27
 313 377 313 377 353.5 334 c 128,-1,28
 394 291 394 291 394 222 c 0,29,30
 394 160 394 160 368.5 107 c 128,-1,31
 343 54 343 54 294.5 22.5 c 128,-1,32
 246 -9 246 -9 178 -9 c 256,33,34
 110 -9 110 -9 68.5 36.5 c 128,-1,35
 27 82 27 82 27 158 c 0,22,23
102 156 m 0,36,37
 102 112 102 112 124 85.5 c 128,-1,38
 146 59 146 59 188 59 c 256,39,40
 230 59 230 59 259.5 82 c 128,-1,41
 289 105 289 105 304 140.5 c 128,-1,42
 319 176 319 176 319 214 c 0,43,44
 318 258 318 258 296 283 c 128,-1,45
 274 308 274 308 231 308 c 0,46,47
 190 308 190 308 161 285 c 128,-1,48
 132 262 132 262 117 227 c 128,-1,49
 102 192 102 192 102 156 c 0,36,37
EndSplineSet
EndChar

StartChar: otilde
Encoding: 245 245 178
Width: 440
GlyphClass: 1
Flags: W
LayerCount: 2
Fore
SplineSet
384 503 m 0,0,1
 363 431 363 431 304 431 c 0,2,3
 287 431 287 431 271 438 c 128,-1,4
 255 445 255 445 241 451.5 c 128,-1,5
 227 458 227 458 215 458 c 0,6,7
 199 458 199 458 193 439 c 0,8,9
 190 429 190 429 183 429 c 2,10,-1
 149 429 l 2,11,12
 142 429 142 429 143 438 c 0,13,14
 160 513 160 513 215 513 c 0,15,16
 234 513 234 513 250.5 506 c 128,-1,17
 267 499 267 499 281.5 491.5 c 128,-1,18
 296 484 296 484 309 484 c 0,19,20
 325 484 325 484 332 502 c 0,21,22
 335 512 335 512 344 512 c 2,23,-1
 378 512 l 2,24,25
 384 512 384 512 384 503 c 0,0,1
27 158 m 0,26,27
 27 220 27 220 56.5 269.5 c 128,-1,28
 86 319 86 319 135.5 348 c 128,-1,29
 185 377 185 377 243 377 c 0,30,31
 313 377 313 377 353.5 334 c 128,-1,32
 394 291 394 291 394 222 c 0,33,34
 394 160 394 160 368.5 107 c 128,-1,35
 343 54 343 54 294.5 22.5 c 128,-1,36
 246 -9 246 -9 178 -9 c 256,37,38
 110 -9 110 -9 68.5 36.5 c 128,-1,39
 27 82 27 82 27 158 c 0,26,27
102 156 m 0,40,41
 102 112 102 112 124 85.5 c 128,-1,42
 146 59 146 59 188 59 c 256,43,44
 230 59 230 59 259.5 82 c 128,-1,45
 289 105 289 105 304 140.5 c 128,-1,46
 319 176 319 176 319 214 c 0,47,48
 318 258 318 258 296 283 c 128,-1,49
 274 308 274 308 231 308 c 0,50,51
 190 308 190 308 161 285 c 128,-1,52
 132 262 132 262 117 227 c 128,-1,53
 102 192 102 192 102 156 c 0,40,41
EndSplineSet
EndChar

StartChar: odieresis
Encoding: 246 246 179
Width: 440
GlyphClass: 1
Flags: W
LayerCount: 2
Fore
SplineSet
153 460 m 0,0,1
 153 481 153 481 168 497 c 128,-1,2
 183 513 183 513 205 513 c 0,3,4
 223 513 223 513 233 503 c 128,-1,5
 243 493 243 493 243 476 c 0,6,7
 243 454 243 454 227.5 438 c 128,-1,8
 212 422 212 422 190 422 c 0,9,10
 155 422 155 422 153 460 c 0,0,1
285 460 m 0,11,12
 285 481 285 481 300 497 c 128,-1,13
 315 513 315 513 337 513 c 0,14,15
 355 513 355 513 365 503 c 128,-1,16
 375 493 375 493 375 476 c 0,17,18
 374 454 374 454 359 438 c 128,-1,19
 344 422 344 422 322 422 c 0,20,21
 287 422 287 422 285 460 c 0,11,12
27 158 m 0,22,23
 27 220 27 220 56.5 269.5 c 128,-1,24
 86 319 86 319 135.5 348 c 128,-1,25
 185 377 185 377 243 377 c 0,26,27
 313 377 313 377 353.5 334 c 128,-1,28
 394 291 394 291 394 222 c 0,29,30
 394 160 394 160 368.5 107 c 128,-1,31
 343 54 343 54 294.5 22.5 c 128,-1,32
 246 -9 246 -9 178 -9 c 256,33,34
 110 -9 110 -9 68.5 36.5 c 128,-1,35
 27 82 27 82 27 158 c 0,22,23
102 156 m 0,36,37
 102 112 102 112 124 85.5 c 128,-1,38
 146 59 146 59 188 59 c 256,39,40
 230 59 230 59 259.5 82 c 128,-1,41
 289 105 289 105 304 140.5 c 128,-1,42
 319 176 319 176 319 214 c 0,43,44
 318 258 318 258 296 283 c 128,-1,45
 274 308 274 308 231 308 c 0,46,47
 190 308 190 308 161 285 c 128,-1,48
 132 262 132 262 117 227 c 128,-1,49
 102 192 102 192 102 156 c 0,36,37
EndSplineSet
EndChar

StartChar: divide
Encoding: 247 247 180
Width: 403
GlyphClass: 1
Flags: W
LayerCount: 2
Fore
SplineSet
158 404 m 0,0,1
 158 423 158 423 171 435.5 c 128,-1,2
 184 448 184 448 201 448 c 0,3,4
 219 448 219 448 231.5 435.5 c 128,-1,5
 244 423 244 423 244 404 c 0,6,7
 244 387 244 387 231.5 374.5 c 128,-1,8
 219 362 219 362 201 362 c 0,9,10
 184 362 184 362 171 374.5 c 128,-1,11
 158 387 158 387 158 404 c 0,0,1
45 238 m 2,12,13
 37 238 37 238 37 247 c 2,14,-1
 37 295 l 2,15,16
 37 304 37 304 45 304 c 2,17,-1
 315 304 l 2,18,19
 340 304 340 304 353 291 c 128,-1,20
 366 278 366 278 366 257 c 2,21,-1
 366 247 l 2,22,23
 366 238 366 238 358 238 c 2,24,-1
 45 238 l 2,12,13
158 137 m 256,25,26
 158 155 158 155 171 168 c 128,-1,27
 184 181 184 181 201 181 c 0,28,29
 219 181 219 181 231.5 168 c 128,-1,30
 244 155 244 155 244 137 c 256,31,32
 244 119 244 119 231.5 106.5 c 128,-1,33
 219 94 219 94 201 94 c 0,34,35
 184 94 184 94 171 106.5 c 128,-1,36
 158 119 158 119 158 137 c 256,25,26
EndSplineSet
EndChar

StartChar: oslash
Encoding: 248 248 181
Width: 438
GlyphClass: 1
Flags: W
LayerCount: 2
Fore
SplineSet
179 -9 m 0,0,1
 108 -9 108 -9 67.5 36.5 c 128,-1,2
 27 82 27 82 27 151 c 0,3,4
 27 212 27 212 55 263.5 c 128,-1,5
 83 315 83 315 132.5 346 c 128,-1,6
 182 377 182 377 244 377 c 0,7,8
 315 377 315 377 355 334 c 128,-1,9
 395 291 395 291 395 222 c 0,10,11
 395 159 395 159 368 106.5 c 128,-1,12
 341 54 341 54 292.5 22.5 c 128,-1,13
 244 -9 244 -9 179 -9 c 0,0,1
118 94 m 1,14,-1
 278 298 l 1,15,16
 259 308 259 308 232 308 c 0,17,18
 191 308 191 308 161.5 286 c 128,-1,19
 132 264 132 264 116.5 229 c 128,-1,20
 101 194 101 194 101 156 c 256,21,22
 101 118 101 118 118 94 c 1,14,-1
311 258 m 1,23,-1
 158 63 l 1,24,25
 164 62 164 62 172 60.5 c 128,-1,26
 180 59 180 59 188 59 c 0,27,28
 231 59 231 59 260 81.5 c 128,-1,29
 289 104 289 104 304 139.5 c 128,-1,30
 319 175 319 175 319 214 c 0,31,32
 319 227 319 227 317.5 238 c 128,-1,33
 316 249 316 249 311 258 c 1,23,-1
EndSplineSet
EndChar

StartChar: ugrave
Encoding: 249 249 182
Width: 419
GlyphClass: 1
Flags: W
LayerCount: 2
Fore
SplineSet
317 439 m 2,0,1
 319 437 319 437 317.5 434 c 128,-1,2
 316 431 316 431 311 431 c 2,3,-1
 260 431 l 2,4,5
 244 431 244 431 235 441 c 2,6,-1
 167 507 l 2,7,8
 165 509 165 509 166.5 512.5 c 128,-1,9
 168 516 168 516 173 516 c 2,10,-1
 235 516 l 2,11,12
 248 516 248 516 258 506 c 2,13,-1
 317 439 l 2,0,1
37 131 m 0,14,15
 37 143 37 143 38.5 156 c 128,-1,16
 40 169 40 169 42 182 c 2,17,-1
 73 360 l 2,18,19
 74 368 74 368 83 368 c 2,20,-1
 87 368 l 2,21,22
 116 368 116 368 129 351 c 128,-1,23
 142 334 142 334 136 299 c 2,24,-1
 113 168 l 2,25,26
 112 160 112 160 110.5 151 c 128,-1,27
 109 142 109 142 109 133 c 0,28,29
 109 57 109 57 182 57 c 0,30,31
 225 57 225 57 250.5 84 c 128,-1,32
 276 111 276 111 285 161 c 2,33,-1
 320 360 l 2,34,35
 321 368 321 368 329 368 c 2,36,-1
 334 368 l 2,37,38
 394 368 394 368 382 299 c 2,39,-1
 358 161 l 2,40,41
 343 80 343 80 297 35 c 128,-1,42
 251 -10 251 -10 180 -10 c 0,43,44
 113 -10 113 -10 75.5 27 c 128,-1,45
 38 64 38 64 37 131 c 0,14,15
EndSplineSet
EndChar

StartChar: uacute
Encoding: 250 250 183
Width: 419
GlyphClass: 1
Flags: W
LayerCount: 2
Fore
SplineSet
171 439 m 2,0,-1
 254 506 l 2,1,2
 261 511 261 511 266 513.5 c 128,-1,3
 271 516 271 516 279 516 c 2,4,-1
 343 516 l 2,5,6
 347 516 347 516 347.5 512.5 c 128,-1,7
 348 509 348 509 345 507 c 2,8,-1
 254 441 l 2,9,10
 242 431 242 431 224 431 c 2,11,-1
 173 431 l 2,12,13
 169 431 169 431 168 434 c 128,-1,14
 167 437 167 437 171 439 c 2,0,-1
37 131 m 0,15,16
 37 143 37 143 38.5 156 c 128,-1,17
 40 169 40 169 42 182 c 2,18,-1
 73 360 l 2,19,20
 74 368 74 368 83 368 c 2,21,-1
 87 368 l 2,22,23
 116 368 116 368 129 351 c 128,-1,24
 142 334 142 334 136 299 c 2,25,-1
 113 168 l 2,26,27
 112 160 112 160 110.5 151 c 128,-1,28
 109 142 109 142 109 133 c 0,29,30
 109 57 109 57 182 57 c 0,31,32
 225 57 225 57 250.5 84 c 128,-1,33
 276 111 276 111 285 161 c 2,34,-1
 320 360 l 2,35,36
 321 368 321 368 329 368 c 2,37,-1
 334 368 l 2,38,39
 394 368 394 368 382 299 c 2,40,-1
 358 161 l 2,41,42
 343 80 343 80 297 35 c 128,-1,43
 251 -10 251 -10 180 -10 c 0,44,45
 113 -10 113 -10 75.5 27 c 128,-1,46
 38 64 38 64 37 131 c 0,15,16
EndSplineSet
EndChar

StartChar: ucircumflex
Encoding: 251 251 184
Width: 419
GlyphClass: 1
Flags: W
LayerCount: 2
Fore
SplineSet
255 485 m 1,0,-1
 208 442 l 2,1,2
 201 435 201 435 193.5 433 c 128,-1,3
 186 431 186 431 178 431 c 2,4,-1
 130 431 l 2,5,6
 126 431 126 431 125.5 434 c 128,-1,7
 125 437 125 437 128 439 c 2,8,-1
 206 506 l 2,9,10
 217 516 217 516 233 516 c 2,11,-1
 284 516 l 2,12,13
 293 516 293 516 297 514 c 128,-1,14
 301 512 301 512 306 506 c 2,15,-1
 361 439 l 2,16,17
 363 437 363 437 362 434 c 128,-1,18
 361 431 361 431 356 431 c 2,19,-1
 313 431 l 2,20,21
 296 431 296 431 287 442 c 2,22,-1
 255 485 l 1,0,-1
37 131 m 0,23,24
 37 143 37 143 38.5 156 c 128,-1,25
 40 169 40 169 42 182 c 2,26,-1
 73 360 l 2,27,28
 74 368 74 368 83 368 c 2,29,-1
 87 368 l 2,30,31
 116 368 116 368 129 351 c 128,-1,32
 142 334 142 334 136 299 c 2,33,-1
 113 168 l 2,34,35
 112 160 112 160 110.5 151 c 128,-1,36
 109 142 109 142 109 133 c 0,37,38
 109 57 109 57 182 57 c 0,39,40
 225 57 225 57 250.5 84 c 128,-1,41
 276 111 276 111 285 161 c 2,42,-1
 320 360 l 2,43,44
 321 368 321 368 329 368 c 2,45,-1
 334 368 l 2,46,47
 394 368 394 368 382 299 c 2,48,-1
 358 161 l 2,49,50
 343 80 343 80 297 35 c 128,-1,51
 251 -10 251 -10 180 -10 c 0,52,53
 113 -10 113 -10 75.5 27 c 128,-1,54
 38 64 38 64 37 131 c 0,23,24
EndSplineSet
EndChar

StartChar: udieresis
Encoding: 252 252 185
Width: 419
GlyphClass: 1
Flags: W
LayerCount: 2
Fore
SplineSet
144 460 m 0,0,1
 144 481 144 481 158.5 497 c 128,-1,2
 173 513 173 513 195 513 c 0,3,4
 214 513 214 513 224 503 c 128,-1,5
 234 493 234 493 234 476 c 0,6,7
 233 454 233 454 217.5 438 c 128,-1,8
 202 422 202 422 180 422 c 0,9,10
 144 422 144 422 144 460 c 0,0,1
276 460 m 0,11,12
 276 481 276 481 291 497 c 128,-1,13
 306 513 306 513 328 513 c 0,14,15
 345 513 345 513 355 503 c 128,-1,16
 365 493 365 493 365 476 c 0,17,18
 365 454 365 454 349.5 438 c 128,-1,19
 334 422 334 422 313 422 c 0,20,21
 276 422 276 422 276 460 c 0,11,12
37 131 m 0,22,23
 37 143 37 143 38.5 156 c 128,-1,24
 40 169 40 169 42 182 c 2,25,-1
 73 360 l 2,26,27
 74 368 74 368 83 368 c 2,28,-1
 87 368 l 2,29,30
 116 368 116 368 129 351 c 128,-1,31
 142 334 142 334 136 299 c 2,32,-1
 113 168 l 2,33,34
 112 160 112 160 110.5 151 c 128,-1,35
 109 142 109 142 109 133 c 0,36,37
 109 57 109 57 182 57 c 0,38,39
 225 57 225 57 250.5 84 c 128,-1,40
 276 111 276 111 285 161 c 2,41,-1
 320 360 l 2,42,43
 321 368 321 368 329 368 c 2,44,-1
 334 368 l 2,45,46
 394 368 394 368 382 299 c 2,47,-1
 358 161 l 2,48,49
 343 80 343 80 297 35 c 128,-1,50
 251 -10 251 -10 180 -10 c 0,51,52
 113 -10 113 -10 75.5 27 c 128,-1,53
 38 64 38 64 37 131 c 0,22,23
EndSplineSet
EndChar

StartChar: yacute
Encoding: 253 253 186
Width: 341
GlyphClass: 1
Flags: W
LayerCount: 2
Fore
SplineSet
138 439 m 2,0,-1
 221 506 l 2,1,2
 228 511 228 511 233 513.5 c 128,-1,3
 238 516 238 516 246 516 c 2,4,-1
 310 516 l 2,5,6
 314 516 314 516 314.5 512.5 c 128,-1,7
 315 509 315 509 312 507 c 2,8,-1
 221 441 l 2,9,10
 209 431 209 431 191 431 c 2,11,-1
 140 431 l 2,12,13
 136 431 136 431 135 434 c 128,-1,14
 134 437 134 437 138 439 c 2,0,-1
82 -7 m 1,15,-1
 25 360 l 2,16,17
 25 368 25 368 32 368 c 2,18,-1
 45 368 l 2,19,20
 75 368 75 368 88.5 355 c 128,-1,21
 102 342 102 342 106 306 c 2,22,-1
 136 84 l 1,23,-1
 273 357 l 2,24,25
 279 368 279 368 291 368 c 2,26,-1
 344 368 l 2,27,28
 351 368 351 368 347 360 c 2,29,-1
 153 -9 l 2,30,31
 127 -58 127 -58 104 -94.5 c 128,-1,32
 81 -131 81 -131 55 -151 c 128,-1,33
 29 -171 29 -171 -8 -171 c 0,34,35
 -42 -171 -42 -171 -61.5 -150 c 128,-1,36
 -81 -129 -81 -129 -80 -99 c 0,37,38
 -81 -94 -81 -94 -78 -85 c 128,-1,39
 -75 -76 -75 -76 -67 -76 c 0,40,41
 -61 -76 -61 -76 -58 -81 c 0,42,43
 -47 -94 -47 -94 -37 -100 c 128,-1,44
 -27 -106 -27 -106 -13 -106 c 0,45,46
 13 -106 13 -106 32 -85.5 c 128,-1,47
 51 -65 51 -65 82 -7 c 1,15,-1
EndSplineSet
EndChar

StartChar: thorn
Encoding: 254 254 187
Width: 447
GlyphClass: 1
Flags: W
LayerCount: 2
Fore
SplineSet
91 49 m 1,0,-1
 55 -151 l 2,1,2
 55 -160 55 -160 46 -160 c 2,3,-1
 -10 -160 l 2,4,5
 -18 -160 -18 -160 -17 -151 c 2,6,-1
 105 547 l 2,7,8
 107 556 107 556 115 556 c 2,9,-1
 120 556 l 2,10,11
 148 556 148 556 161 539 c 128,-1,12
 174 522 174 522 168 487 c 2,13,-1
 139 320 l 1,14,15
 161 346 161 346 192.5 361.5 c 128,-1,16
 224 377 224 377 264 377 c 0,17,18
 327 377 327 377 365.5 336.5 c 128,-1,19
 404 296 404 296 404 228 c 0,20,21
 404 161 404 161 378 107 c 128,-1,22
 352 53 352 53 307 22 c 128,-1,23
 262 -9 262 -9 205 -9 c 0,24,25
 124 -9 124 -9 91 49 c 1,0,-1
201 59 m 0,26,27
 239 59 239 59 268 80 c 128,-1,28
 297 101 297 101 313.5 136.5 c 128,-1,29
 330 172 330 172 330 213 c 0,30,31
 330 308 330 308 240 308 c 0,32,33
 204 308 204 308 175 288 c 128,-1,34
 146 268 146 268 129 234.5 c 128,-1,35
 112 201 112 201 112 159 c 0,36,37
 112 113 112 113 135 86 c 128,-1,38
 158 59 158 59 201 59 c 0,26,27
EndSplineSet
EndChar

StartChar: ydieresis
Encoding: 255 255 188
Width: 341
GlyphClass: 1
Flags: W
LayerCount: 2
Fore
SplineSet
101 460 m 0,0,1
 101 481 101 481 116 497 c 128,-1,2
 131 513 131 513 153 513 c 0,3,4
 171 513 171 513 181 503 c 128,-1,5
 191 493 191 493 191 476 c 0,6,7
 191 454 191 454 175.5 438 c 128,-1,8
 160 422 160 422 138 422 c 0,9,10
 103 422 103 422 101 460 c 0,0,1
233 460 m 0,11,12
 233 481 233 481 248 497 c 128,-1,13
 263 513 263 513 285 513 c 0,14,15
 303 513 303 513 313 503 c 128,-1,16
 323 493 323 493 323 476 c 0,17,18
 322 454 322 454 307 438 c 128,-1,19
 292 422 292 422 270 422 c 0,20,21
 235 422 235 422 233 460 c 0,11,12
82 -7 m 1,22,-1
 25 360 l 2,23,24
 25 368 25 368 32 368 c 2,25,-1
 45 368 l 2,26,27
 75 368 75 368 88.5 355 c 128,-1,28
 102 342 102 342 106 306 c 2,29,-1
 136 84 l 1,30,-1
 273 357 l 2,31,32
 279 368 279 368 291 368 c 2,33,-1
 344 368 l 2,34,35
 351 368 351 368 347 360 c 2,36,-1
 153 -9 l 2,37,38
 127 -58 127 -58 104 -94.5 c 128,-1,39
 81 -131 81 -131 55 -151 c 128,-1,40
 29 -171 29 -171 -8 -171 c 0,41,42
 -42 -171 -42 -171 -61.5 -150 c 128,-1,43
 -81 -129 -81 -129 -80 -99 c 0,44,45
 -81 -94 -81 -94 -78 -85 c 128,-1,46
 -75 -76 -75 -76 -67 -76 c 0,47,48
 -61 -76 -61 -76 -58 -81 c 0,49,50
 -47 -94 -47 -94 -37 -100 c 128,-1,51
 -27 -106 -27 -106 -13 -106 c 0,52,53
 13 -106 13 -106 32 -85.5 c 128,-1,54
 51 -65 51 -65 82 -7 c 1,22,-1
EndSplineSet
EndChar

StartChar: dotlessi
Encoding: 305 305 189
Width: 179
GlyphClass: 1
Flags: W
LayerCount: 2
Fore
SplineSet
19 0 m 2,0,1
 12 0 12 0 13 9 c 2,2,-1
 75 360 l 2,3,4
 76 368 76 368 84 368 c 2,5,-1
 89 368 l 2,6,7
 117 368 117 368 130 351 c 128,-1,8
 143 334 143 334 136 299 c 2,9,-1
 85 9 l 2,10,11
 84 0 84 0 76 0 c 2,12,-1
 19 0 l 2,0,1
EndSplineSet
EndChar

StartChar: Lslash
Encoding: 321 321 190
Width: 372
GlyphClass: 1
Flags: W
LayerCount: 2
Fore
SplineSet
117 71 m 1,0,-1
 278 71 l 2,1,2
 301 71 301 71 309.5 59 c 128,-1,3
 318 47 318 47 314 27 c 2,4,-1
 311 11 l 2,5,6
 309 0 309 0 298 0 c 2,7,-1
 39 0 l 2,8,9
 32 0 32 0 33 9 c 2,10,-1
 67 204 l 1,11,-1
 19 180 l 2,12,13
 8 175 8 175 10 185 c 2,14,-1
 19 234 l 2,15,16
 21 245 21 245 30 248 c 2,17,-1
 78 273 l 1,18,-1
 127 547 l 2,19,20
 129 556 129 556 137 556 c 2,21,-1
 143 556 l 2,22,23
 202 556 202 556 190 485 c 2,24,-1
 160 315 l 1,25,-1
 303 388 l 2,26,27
 307 390 307 390 309.5 388.5 c 128,-1,28
 312 387 312 387 311 383 c 2,29,-1
 302 333 l 2,30,31
 300 322 300 322 291 318 c 2,32,-1
 148 246 l 1,33,-1
 117 71 l 1,0,-1
EndSplineSet
EndChar

StartChar: lslash
Encoding: 322 322 191
Width: 243
GlyphClass: 1
Flags: W
LayerCount: 2
Fore
SplineSet
62 202 m 1,0,-1
 19 180 l 2,1,2
 8 175 8 175 10 185 c 2,3,-1
 18 233 l 2,4,5
 20 241 20 241 30 247 c 2,6,-1
 73 269 l 1,7,-1
 122 547 l 2,8,9
 124 556 124 556 132 556 c 2,10,-1
 137 556 l 2,11,12
 165 556 165 556 178 539 c 128,-1,13
 191 522 191 522 185 487 c 2,14,-1
 153 310 l 1,15,-1
 212 340 l 2,16,17
 217 342 217 342 219.5 340.5 c 128,-1,18
 222 339 222 339 221 335 c 2,19,-1
 213 286 l 2,20,21
 212 278 212 278 201 272 c 2,22,-1
 141 242 l 1,23,-1
 118 111 l 2,24,25
 116 101 116 101 116 93 c 0,26,27
 116 59 116 59 149 59 c 0,28,29
 163 59 163 59 174 65.5 c 128,-1,30
 185 72 185 72 197 83 c 0,31,32
 203 89 203 89 208 89 c 0,33,34
 215 89 215 89 215 81 c 0,35,36
 215 47 215 47 188 19 c 128,-1,37
 161 -9 161 -9 118 -9 c 0,38,39
 84 -9 84 -9 63 12 c 128,-1,40
 42 33 42 33 42 74 c 0,41,42
 42 83 42 83 43.5 94 c 128,-1,43
 45 105 45 105 47 117 c 2,44,-1
 62 202 l 1,0,-1
EndSplineSet
EndChar

StartChar: OE
Encoding: 338 338 192
Width: 800
GlyphClass: 1
Flags: W
LayerCount: 2
Fore
SplineSet
510 71 m 1,0,-1
 702 71 l 2,1,2
 725 71 725 71 733.5 59 c 128,-1,3
 742 47 742 47 738 27 c 2,4,-1
 735 11 l 2,5,6
 733 0 733 0 722 0 c 2,7,-1
 432 0 l 2,8,9
 426 0 426 0 427 9 c 2,10,-1
 437 67 l 1,11,12
 403 32 403 32 358 11 c 128,-1,13
 313 -10 313 -10 259 -10 c 0,14,15
 164 -10 164 -10 109 50 c 128,-1,16
 54 110 54 110 54 219 c 0,17,18
 54 290 54 290 78 353 c 128,-1,19
 102 416 102 416 144.5 464 c 128,-1,20
 187 512 187 512 241.5 539.5 c 128,-1,21
 296 567 296 567 356 567 c 0,22,23
 410 567 410 567 449.5 546 c 128,-1,24
 489 525 489 525 511 486 c 1,25,-1
 521 547 l 2,26,27
 523 556 523 556 530 556 c 2,28,-1
 780 556 l 2,29,30
 823 556 823 556 815 513 c 2,31,-1
 812 496 l 2,32,33
 810 485 810 485 800 485 c 2,34,-1
 583 485 l 1,35,-1
 552 312 l 1,36,-1
 717 312 l 2,37,38
 762 312 762 312 754 268 c 2,39,-1
 751 252 l 2,40,41
 749 242 749 242 738 242 c 2,42,-1
 540 242 l 1,43,-1
 510 71 l 1,0,-1
263 62 m 256,44,45
 327 62 327 62 375.5 99 c 128,-1,46
 424 136 424 136 452 200.5 c 128,-1,47
 480 265 480 265 480 347 c 0,48,49
 480 419 480 419 445.5 457 c 128,-1,50
 411 495 411 495 346 495 c 0,51,52
 289 495 289 495 240 458 c 128,-1,53
 191 421 191 421 161.5 358.5 c 128,-1,54
 132 296 132 296 132 219 c 0,55,56
 132 143 132 143 165.5 102.5 c 128,-1,57
 199 62 199 62 263 62 c 256,44,45
EndSplineSet
EndChar

StartChar: oe
Encoding: 339 339 193
Width: 688
GlyphClass: 1
Flags: W
LayerCount: 2
Fore
SplineSet
332 66 m 1,0,1
 307 32 307 32 269.5 11.5 c 128,-1,2
 232 -9 232 -9 179 -9 c 0,3,4
 111 -9 111 -9 69.5 36.5 c 128,-1,5
 28 82 28 82 28 158 c 0,6,7
 28 220 28 220 57.5 269.5 c 128,-1,8
 87 319 87 319 136.5 348 c 128,-1,9
 186 377 186 377 244 377 c 0,10,11
 340 377 340 377 371 303 c 1,12,13
 425 377 425 377 520 377 c 0,14,15
 582 377 582 377 616.5 341.5 c 128,-1,16
 651 306 651 306 651 249 c 0,17,18
 651 227 651 227 647.5 209.5 c 128,-1,19
 644 192 644 192 639 171 c 0,20,21
 635 159 635 159 623 159 c 2,22,-1
 383 159 l 1,23,24
 378 106 378 106 405 80 c 128,-1,25
 432 54 432 54 481 54 c 0,26,27
 522 54 522 54 549 66 c 128,-1,28
 576 78 576 78 598 93 c 0,29,30
 603 96 603 96 606.5 98.5 c 128,-1,31
 610 101 610 101 613 101 c 0,32,33
 621 101 621 101 621 92 c 0,34,35
 621 69 621 69 600.5 45.5 c 128,-1,36
 580 22 580 22 545 6.5 c 128,-1,37
 510 -9 510 -9 464 -9 c 0,38,39
 417 -9 417 -9 383 10 c 128,-1,40
 349 29 349 29 332 66 c 1,0,1
393 214 m 1,41,-1
 577 214 l 1,42,43
 579 222 579 222 580 229 c 128,-1,44
 581 236 581 236 581 242 c 0,45,46
 581 313 581 313 509 313 c 0,47,48
 465 313 465 313 435.5 287 c 128,-1,49
 406 261 406 261 393 214 c 1,41,-1
103 156 m 0,50,51
 103 112 103 112 125 85.5 c 128,-1,52
 147 59 147 59 189 59 c 256,53,54
 231 59 231 59 260.5 82 c 128,-1,55
 290 105 290 105 305 140.5 c 128,-1,56
 320 176 320 176 320 214 c 0,57,58
 319 258 319 258 297 283 c 128,-1,59
 275 308 275 308 232 308 c 0,60,61
 191 308 191 308 162 285 c 128,-1,62
 133 262 133 262 118 227 c 128,-1,63
 103 192 103 192 103 156 c 0,50,51
EndSplineSet
EndChar

StartChar: Scaron
Encoding: 352 352 194
Width: 431
GlyphClass: 1
Flags: W
LayerCount: 2
Fore
SplineSet
260 640 m 1,0,-1
 308 683 l 2,1,2
 316 690 316 690 322.5 691.5 c 128,-1,3
 329 693 329 693 337 693 c 2,4,-1
 384 693 l 2,5,6
 389 693 389 693 389.5 690 c 128,-1,7
 390 687 390 687 387 684 c 2,8,-1
 308 618 l 2,9,10
 297 608 297 608 283 608 c 2,11,-1
 230 608 l 2,12,13
 217 608 217 608 208 618 c 2,14,-1
 154 684 l 2,15,16
 152 687 152 687 153.5 690 c 128,-1,17
 155 693 155 693 159 693 c 2,18,-1
 202 693 l 2,19,20
 211 693 211 693 217.5 691.5 c 128,-1,21
 224 690 224 690 228 683 c 2,22,-1
 260 640 l 1,0,-1
2 121 m 0,23,24
 0 154 0 154 19 154 c 0,25,26
 26 154 26 154 30 147 c 0,27,28
 53 110 53 110 88 84.5 c 128,-1,29
 123 59 123 59 183 59 c 0,30,31
 250 59 250 59 284 88.5 c 128,-1,32
 318 118 318 118 318 163 c 0,33,34
 318 189 318 189 300 205.5 c 128,-1,35
 282 222 282 222 253 235 c 128,-1,36
 224 248 224 248 192 260.5 c 128,-1,37
 160 273 160 273 131 289.5 c 128,-1,38
 102 306 102 306 84 331 c 128,-1,39
 66 356 66 356 66 394 c 0,40,41
 66 446 66 446 93 485 c 128,-1,42
 120 524 120 524 167.5 545.5 c 128,-1,43
 215 567 215 567 275 567 c 0,44,45
 314 567 314 567 346 558.5 c 128,-1,46
 378 550 378 550 403 538 c 0,47,48
 424 528 424 528 430.5 514 c 128,-1,49
 437 500 437 500 429 477 c 2,50,-1
 423 459 l 2,51,52
 418 449 418 449 413 449 c 256,53,54
 408 449 408 449 400 455 c 0,55,56
 373 475 373 475 338.5 486.5 c 128,-1,57
 304 498 304 498 264 498 c 0,58,59
 212 498 212 498 177 472.5 c 128,-1,60
 142 447 142 447 142 411 c 0,61,62
 142 384 142 384 160.5 366 c 128,-1,63
 179 348 179 348 207.5 334.5 c 128,-1,64
 236 321 236 321 268.5 308 c 128,-1,65
 301 295 301 295 329.5 279 c 128,-1,66
 358 263 358 263 376.5 240 c 128,-1,67
 395 217 395 217 395 182 c 0,68,69
 395 97 395 97 338 43 c 128,-1,70
 281 -11 281 -11 180 -11 c 0,71,72
 120 -11 120 -11 80.5 11 c 128,-1,73
 41 33 41 33 21.5 63.5 c 128,-1,74
 2 94 2 94 2 121 c 0,23,24
EndSplineSet
EndChar

